SplineFontDB: 3.2
FontName: Erathian
FullName: Erathian
FamilyName: Erathian
Weight: Regular
Copyright: Erathian:\nCopyright (c) 2008-2020, Tom CHEN (tomchen.org)\nSIL Open Font License v1.1\n\nAlegreya Medium:\nCopyright 2011 The Alegreya Project Authors (https://github.com/huertatipografica/Alegreya)\nSIL Open Font License v1.1
Version: 2.0
ItalicAngle: 0
UnderlinePosition: -209
UnderlineWidth: 64
Ascent: 800
Descent: 200
InvalidEm: 0
sfntRevision: 0x00020000
LayerCount: 2
Layer: 0 1 "Back" 1
Layer: 1 1 "Fore" 0
XUID: [1021 539 690955149 24374]
StyleMap: 0x0040
FSType: 0
OS2Version: 0
OS2_WeightWidthSlopeOnly: 0
OS2_UseTypoMetrics: 1
CreationTime: 1213974834
ModificationTime: 1581973674
PfmFamily: 81
TTFWeight: 400
TTFWidth: 5
LineGap: 0
VLineGap: 0
Panose: 0 0 0 0 0 0 0 0 0 0
OS2TypoAscent: 1016
OS2TypoAOffset: 0
OS2TypoDescent: -345
OS2TypoDOffset: 0
OS2TypoLinegap: 0
OS2WinAscent: 1123
OS2WinAOffset: 0
OS2WinDescent: 345
OS2WinDOffset: 0
HheadAscent: 1016
HheadAOffset: 0
HheadDescent: -345
HheadDOffset: 0
OS2SubXSize: 650
OS2SubYSize: 600
OS2SubXOff: 0
OS2SubYOff: 75
OS2SupXSize: 650
OS2SupYSize: 600
OS2SupXOff: 0
OS2SupYOff: 350
OS2StrikeYSize: 64
OS2StrikeYPos: 273
OS2CapHeight: 639
OS2XHeight: 456
OS2Vendor: 'TC  '
OS2CodePages: 2000019f.00000000
OS2UnicodeRanges: 6000028f.00000003.00000000.00000000
Lookup: 1 0 0 "'aalt' Access All Alternates lookup 0" { "'aalt' Access All Alternates lookup 0 subtable"  } ['aalt' ('DFLT' <'dflt' > 'cyrl' <'SRB ' 'dflt' > 'latn' <'AZE ' 'CAT ' 'CRT ' 'ESP ' 'KAZ ' 'MOL ' 'NLD ' 'ROM ' 'TAT ' 'TRK ' 'dflt' > ) ]
Lookup: 3 0 0 "'aalt' Access All Alternates lookup 1" { "'aalt' Access All Alternates lookup 1 subtable"  } ['aalt' ('DFLT' <'dflt' > 'cyrl' <'SRB ' 'dflt' > 'latn' <'AZE ' 'CAT ' 'CRT ' 'ESP ' 'KAZ ' 'MOL ' 'NLD ' 'ROM ' 'TAT ' 'TRK ' 'dflt' > ) ]

StartChar: .notdef
Encoding: 65536 -1 0
Width: 641
Flags: W
LayerCount: 2
Fore
SplineSet
336 228 m 1,0,-1
 657 -93 l 1,1,-1
 641 -109 l 1,2,-1
 320 212 l 1,3,-1
 -1 -109 l 1,4,-1
 -17 -93 l 1,5,-1
 304 228 l 1,6,-1
 -17 549 l 1,7,-1
 -1 565 l 1,8,-1
 320 244 l 1,9,-1
 641 565 l 1,10,-1
 657 549 l 1,11,-1
 336 228 l 1,0,-1
EndSplineSet
Validated: 1
EndChar

StartChar: A
Encoding: 65 65 3
Width: 765
GlyphClass: 2
Flags: W
LayerCount: 2
Fore
SplineSet
434.286132812 714.286132812 m 0,0,1
 494.321289062 714.286132812 494.321289062 714.286132812 540.3984375 682.5703125 c 128,-1,2
 586.475585938 650.85546875 586.475585938 650.85546875 608.649414062 604.954101562 c 128,-1,3
 630.823242188 559.051757812 630.823242188 559.051757812 631.713867188 508.857421875 c 0,4,5
 632.100585938 460.958007812 632.100585938 460.958007812 620.534179688 411.873046875 c 128,-1,6
 608.96875 362.7890625 608.96875 362.7890625 594.7734375 329.399414062 c 128,-1,7
 580.579101562 296.008789062 580.579101562 296.008789062 568.329101562 257.275390625 c 128,-1,8
 556.080078125 218.541992188 556.080078125 218.541992188 555.428710938 189.428710938 c 0,9,10
 554.470703125 182.071289062 554.470703125 182.071289062 554.470703125 174.6640625 c 0,11,12
 554.470703125 147.041992188 554.470703125 147.041992188 571.494140625 117.881835938 c 128,-1,13
 588.517578125 88.72265625 588.517578125 88.72265625 612.571289062 75.142578125 c 0,14,15
 633.982421875 63.0810546875 633.982421875 63.0810546875 652.423828125 67.8525390625 c 128,-1,16
 670.865234375 72.6240234375 670.865234375 72.6240234375 680.25 81.96484375 c 128,-1,17
 689.634765625 91.3046875 689.634765625 91.3046875 703.736328125 103.951171875 c 128,-1,18
 717.837890625 116.59765625 717.837890625 116.59765625 730.571289062 120.286132812 c 0,19,20
 751.106445312 126.40625 751.106445312 126.40625 752.71484375 109.321289062 c 128,-1,21
 754.322265625 92.236328125 754.322265625 92.236328125 741.428710938 81.4287109375 c 0,22,23
 730.993164062 71.73828125 730.993164062 71.73828125 713.9375 54.9853515625 c 128,-1,24
 696.881835938 38.232421875 696.881835938 38.232421875 689.875 32.0546875 c 128,-1,25
 682.869140625 25.876953125 682.869140625 25.876953125 671.0625 18.494140625 c 128,-1,26
 659.254882812 11.1103515625 659.254882812 11.1103515625 646.571289062 7.4287109375 c 0,27,28
 610.130859375 -3.0263671875 610.130859375 -3.0263671875 582.654296875 10.234375 c 128,-1,29
 555.177734375 23.4951171875 555.177734375 23.4951171875 540.626953125 53.3994140625 c 128,-1,30
 526.076171875 83.3037109375 526.076171875 83.3037109375 519.181640625 117.038085938 c 128,-1,31
 512.286132812 150.771484375 512.286132812 150.771484375 512.286132812 186.857421875 c 0,32,33
 512.545898438 235.412109375 512.545898438 235.412109375 538.291992188 336.672851562 c 128,-1,34
 564.0390625 437.93359375 564.0390625 437.93359375 558.857421875 493.713867188 c 0,35,36
 551.588867188 571.95703125 551.588867188 571.95703125 507.29296875 624.263671875 c 128,-1,37
 462.998046875 676.571289062 462.998046875 676.571289062 404.571289062 676.571289062 c 0,38,39
 353.743164062 676.571289062 353.743164062 676.571289062 312.504882812 657.385742188 c 128,-1,40
 271.266601562 638.19921875 271.266601562 638.19921875 242.668945312 603.280273438 c 128,-1,41
 214.072265625 568.360351562 214.072265625 568.360351562 194.924804688 525.215820312 c 128,-1,42
 175.776367188 482.071289062 175.776367188 482.071289062 164 428.571289062 c 0,43,44
 150.176757812 349.552734375 150.176757812 349.552734375 155.05859375 309.713867188 c 128,-1,45
 159.939453125 269.875976562 159.939453125 269.875976562 166.94140625 205.142578125 c 128,-1,46
 173.943359375 140.409179688 173.943359375 140.409179688 167.713867188 84 c 0,47,48
 167.31640625 66.6171875 167.31640625 66.6171875 156.768554688 47.5302734375 c 128,-1,49
 146.219726562 28.443359375 146.219726562 28.443359375 131.713867188 18.857421875 c 0,50,51
 114.815429688 7.9638671875 114.815429688 7.9638671875 85.40234375 2.931640625 c 128,-1,52
 55.990234375 -2.1005859375 55.990234375 -2.1005859375 33.16796875 2.021484375 c 128,-1,53
 10.3466796875 6.1435546875 10.3466796875 6.1435546875 11.4287109375 18.857421875 c 0,54,55
 12.669921875 31.8466796875 12.669921875 31.8466796875 23.40234375 36.6923828125 c 128,-1,56
 34.1357421875 41.537109375 34.1357421875 41.537109375 46.8251953125 40.9462890625 c 128,-1,57
 59.5146484375 40.35546875 59.5146484375 40.35546875 72.287109375 45.4326171875 c 128,-1,58
 85.0595703125 50.5107421875 85.0595703125 50.5107421875 89.4287109375 63.7138671875 c 0,59,60
 100.94140625 99.2978515625 100.94140625 99.2978515625 97.56640625 171.766601562 c 128,-1,61
 94.19140625 244.236328125 94.19140625 244.236328125 90.3388671875 302.614257812 c 128,-1,62
 86.486328125 360.991210938 86.486328125 360.991210938 105.142578125 428.571289062 c 0,63,64
 144.907226562 548.078125 144.907226562 548.078125 219.08984375 619.927734375 c 128,-1,65
 293.271484375 691.778320312 293.271484375 691.778320312 393.713867188 710.571289062 c 0,66,67
 413.708984375 714.286132812 413.708984375 714.286132812 434.286132812 714.286132812 c 0,0,1
262.857421875 445.428710938 m 1,68,69
 273.2890625 472.077148438 273.2890625 472.077148438 301.166015625 492.16796875 c 128,-1,70
 329.04296875 512.259765625 329.04296875 512.259765625 357.713867188 514 c 0,71,72
 396.229492188 516.818359375 396.229492188 516.818359375 434.114257812 499.067382812 c 128,-1,73
 472 481.315429688 472 481.315429688 472 453.142578125 c 0,74,75
 471.608398438 439.833984375 471.608398438 439.833984375 458.286132812 435.963867188 c 128,-1,76
 444.962890625 432.094726562 444.962890625 432.094726562 435.142578125 437.428710938 c 0,77,78
 431.130859375 439.103515625 431.130859375 439.103515625 395.625 461.224609375 c 128,-1,79
 360.119140625 483.345703125 360.119140625 483.345703125 341.142578125 481.142578125 c 0,80,81
 320.49609375 478.681640625 320.49609375 478.681640625 307.912109375 458.166015625 c 128,-1,82
 295.328125 437.649414062 295.328125 437.649414062 296.46875 412.595703125 c 128,-1,83
 297.609375 387.541992188 297.609375 387.541992188 312.571289062 372.857421875 c 0,84,85
 323.9609375 361.685546875 323.9609375 361.685546875 346.428710938 341.499023438 c 128,-1,86
 368.895507812 321.313476562 368.895507812 321.313476562 379.192382812 310.512695312 c 128,-1,87
 389.490234375 299.711914062 389.490234375 299.711914062 402.921875 281.887695312 c 128,-1,88
 416.354492188 264.063476562 416.354492188 264.063476562 422.314453125 244.38671875 c 128,-1,89
 428.275390625 224.708984375 428.275390625 224.708984375 429.428710938 200 c 0,90,91
 429.083984375 159.799804688 429.083984375 159.799804688 400.453125 129.411132812 c 128,-1,92
 371.823242188 99.0234375 371.823242188 99.0234375 331.713867188 96.2861328125 c 0,93,94
 323.5390625 95.798828125 323.5390625 95.798828125 315.31640625 95.798828125 c 0,95,96
 274.8046875 95.798828125 274.8046875 95.798828125 236 107.428710938 c 0,97,98
 225.450195312 112.481445312 225.450195312 112.481445312 225.450195312 124.177734375 c 0,99,100
 225.450195312 132.998046875 225.450195312 132.998046875 232.286132812 138.571289062 c 0,101,102
 239.059570312 143.521484375 239.059570312 143.521484375 278.385742188 135.2421875 c 128,-1,103
 317.711914062 126.962890625 317.711914062 126.962890625 329.428710938 134.571289062 c 0,104,105
 340.96484375 143.6640625 340.96484375 143.6640625 349.12890625 160.495117188 c 128,-1,106
 357.29296875 177.326171875 357.29296875 177.326171875 357.29296875 192.014648438 c 0,107,108
 357.29296875 203.11328125 357.29296875 203.11328125 354 213.713867188 c 0,109,110
 350.533203125 235.62890625 350.533203125 235.62890625 333.609375 255.278320312 c 128,-1,111
 316.686523438 274.927734375 316.686523438 274.927734375 294.67578125 295.579101562 c 128,-1,112
 272.666015625 316.229492188 272.666015625 316.229492188 262.857421875 334.286132812 c 0,113,114
 250.3203125 360.655273438 250.3203125 360.655273438 250.3203125 389.857421875 c 128,-1,115
 250.3203125 419.057617188 250.3203125 419.057617188 262.857421875 445.428710938 c 1,68,69
EndSplineSet
Validated: 33
Substitution2: "Single Substitution lookup 51 subtable" ordfeminine
Substitution2: "'c2sc' Capitals to Small Capitals lookup 35 subtable" a.sc
AlternateSubs2: "'aalt' Access All Alternates lookup 1 subtable" ordfeminine a.sc
Position2: "'cpsp' Capital Spacing lookup 0 subtable" dx=10 dy=0 dh=20 dv=0
EndChar

StartChar: Aogonek
Encoding: 260 260 25
Width: 603
GlyphClass: 2
Flags: W
LayerCount: 2
Fore
SplineSet
670 -152.5 m 4,0,1
 691 -146 691 -146 707 -136 c 5,2,-1
 724 -162 l 5,3,4
 700 -185 700 -185 672 -202.5 c 4,5,6
 644 -220 644 -220 621 -227 c 5,7,8
 571 -227 571 -227 539 -201 c 4,9,10
 507 -175 507 -175 507 -134 c 4,11,12
 507 -104 507 -104 524.5 -75.5 c 4,13,14
 542 -47 542 -47 600 14 c 5,15,-1
 653 13 l 5,16,17
 612 -35 612 -35 597.5 -60.5 c 4,18,19
 583 -86 583 -86 583 -109 c 260,20,21
 583 -132 583 -132 596.5 -145.5 c 4,22,23
 610 -159 610 -159 633 -159 c 4,24,25
 649 -159 649 -159 670 -152.5 c 4,0,1
EndSplineSet
Refer: 3 65 N 1 0 0 1 0 0 2
Substitution2: "'c2sc' Capitals to Small Capitals lookup 35 subtable" aogonek.sc
Substitution2: "'aalt' Access All Alternates lookup 0 subtable" aogonek.sc
Position2: "'cpsp' Capital Spacing lookup 0 subtable" dx=10 dy=0 dh=20 dv=0
EndChar

StartChar: Aringacute
Encoding: 506 506 27
Width: 603
GlyphClass: 2
Flags: W
AnchorPoint: "Anchor-17" 0 0 basechar 0
AnchorPoint: "Anchor-16" 0 0 basechar 0
AnchorPoint: "Anchor-15" 348 943 basechar 0
AnchorPoint: "Anchor-14" 543 10 basechar 0
AnchorPoint: "Anchor-13" 0 0 basechar 0
LayerCount: 2
Fore
SplineSet
263 882 m 1,0,-1
 255 912 l 1,1,2
 340 953 340 953 443 1008 c 1,3,-1
 452 1003 l 1,4,-1
 470 949 l 1,5,-1
 466 939 l 1,6,7
 365 908 365 908 272 876 c 1,8,-1
 263 882 l 1,0,-1
295.5 742.5 m 0,9,10
 276 763 276 763 276 798 c 256,11,12
 276 833 276 833 298.5 855.5 c 0,13,14
 321 878 321 878 357 878 c 0,15,16
 394 878 394 878 412.5 857 c 0,17,18
 431 836 431 836 431 806 c 0,19,20
 431 771 431 771 409 746.5 c 0,21,22
 387 722 387 722 350 722 c 0,23,24
 315 722 315 722 295.5 742.5 c 0,9,10
394 796 m 0,25,26
 394 814 394 814 382.5 825.5 c 0,27,28
 371 837 371 837 350 837 c 0,29,30
 332 837 332 837 322 828 c 0,31,32
 312 819 312 819 312 803 c 0,33,34
 312 783 312 783 326 772.5 c 0,35,36
 340 762 340 762 356 762 c 0,37,38
 394 762 394 762 394 796 c 0,25,26
EndSplineSet
Refer: 3 65 N 1 0 0 1 0 0 2
Substitution2: "'c2sc' Capitals to Small Capitals lookup 35 subtable" aringacute.sc
Substitution2: "'aalt' Access All Alternates lookup 0 subtable" aringacute.sc
Position2: "'cpsp' Capital Spacing lookup 0 subtable" dx=10 dy=0 dh=20 dv=0
EndChar

StartChar: AE
Encoding: 198 198 29
Width: 1193
GlyphClass: 2
Flags: W
LayerCount: 2
Fore
SplineSet
1107.14257812 673.713867188 m 1,0,-1
 1107.14257812 673.428710938 l 1,1,2
 1117.9389701 677.174613121 1117.9389701 677.174613121 1124.96411133 662.428710938 c 128,-1,3
 1131.98925255 647.682808754 1131.98925255 647.682808754 1121.14257812 641.142578125 c 0,4,5
 1098.87317055 627.754209007 1098.87317055 627.754209007 1038.13313013 591.701246377 c 128,-1,6
 977.393089715 555.648283747 977.393089715 555.648283747 946.803612057 536.92937081 c 128,-1,7
 916.214134399 518.210457873 916.214134399 518.210457873 867.61884888 487.573246377 c 128,-1,8
 819.023563361 456.936034881 819.023563361 456.936034881 779.100658932 428.824261435 c 128,-1,9
 739.177754503 400.712487989 739.177754503 400.712487989 701.713867188 371.428710938 c 1,10,11
 728.751193576 371.428710938 728.751193576 371.428710938 778.354492187 370.412868924 c 128,-1,12
 827.957790799 369.39702691 827.957790799 369.39702691 868.597981771 369.39702691 c 128,-1,13
 909.238172743 369.39702691 909.238172743 369.39702691 945.428710938 371.428710938 c 0,14,15
 967.608062429 371.428710938 967.608062429 371.428710938 980.821655273 357.392944336 c 128,-1,16
 994.035248117 343.357177734 994.035248117 343.357177734 978.286132812 325.142578125 c 0,17,18
 941.40241306 287.117014897 941.40241306 287.117014897 873.646049084 218.313640267 c 128,-1,19
 805.889685108 149.510265638 805.889685108 149.510265638 784.286132812 127.428710938 c 0,20,21
 761.03063967 103.372910901 761.03063967 103.372910901 760.55723666 98.0225726535 c 128,-1,22
 760.07490191 92.5712890625 760.07490191 92.5712890625 769.428710938 92.5712890625 c 0,23,24
 812.41971994 91.0494258957 812.41971994 91.0494258957 884.318719488 88.286957677 c 128,-1,25
 956.217719036 85.5244894582 956.217719036 85.5244894582 1041.39612426 82.1889537814 c 128,-1,26
 1126.57452949 78.8534181045 1126.57452949 78.8534181045 1156.28613281 77.7138671875 c 0,27,28
 1173.52220246 77.051324888 1173.52220246 77.051324888 1177.41973413 59.4294978887 c 128,-1,29
 1181.3172658 41.8076708894 1181.3172658 41.8076708894 1172.96145077 24.4751245072 c 128,-1,30
 1164.60563574 7.142578125 1164.60563574 7.142578125 1152 7.142578125 c 0,31,32
 708.330871095 16.857421875 708.330871095 16.857421875 682.571289062 16.857421875 c 0,33,34
 680.535522461 16.857421875 680.535522461 16.857421875 665.607055664 11.2856445312 c 128,-1,35
 650.678588867 5.7138671875 650.678588867 5.7138671875 644.571289062 5.7138671875 c 0,36,37
 637.056896664 6.49970969669 637.056896664 6.49970969669 638.357177734 16.25 c 128,-1,38
 639.657458805 26.0002903033 639.657458805 26.0002903033 646.286132812 34.2861328125 c 0,39,40
 686.574586228 84.0542223258 686.574586228 84.0542223258 771.449615253 171.755732355 c 128,-1,41
 856.324644277 259.457242385 856.324644277 259.457242385 866.857421875 270.857421875 c 0,42,43
 893.215460955 298.97226315 893.215460955 298.97226315 885.130171117 303.665986573 c 0,44,45
 882.586631672 305.142578125 882.586631672 305.142578125 877.428710938 305.142578125 c 0,46,47
 824.286132812 306.571289062 824.286132812 306.571289062 665.142578125 306.571289062 c 0,48,49
 658.862158514 307.126953125 658.862158514 307.126953125 652.55859375 307.126953125 c 0,50,51
 629.711728351 307.126953125 629.711728351 307.126953125 608 300 c 0,52,53
 592.129404284 290.676041969 592.129404284 290.676041969 581.446010988 271.445696257 c 128,-1,54
 570.762617692 252.215350545 570.762617692 252.215350545 558.857421875 217.713867188 c 0,55,56
 551.921761863 197.188785484 551.921761863 197.188785484 550.247482335 179.835523307 c 128,-1,57
 548.573202808 162.482261131 548.573202808 162.482261131 549.948928798 155.079164803 c 128,-1,58
 551.324654787 147.676068475 551.324654787 147.676068475 549.426193273 142.594587028 c 128,-1,59
 547.527731758 137.513105581 547.527731758 137.513105581 539.428710938 135.142578125 c 0,60,61
 528.892938787 132.117688415 528.892938787 132.117688415 525.485618686 149.381540782 c 0,62,63
 517.842798005 188.105383572 517.842798005 188.105383572 538.431518352 255.022377518 c 0,64,65
 542.942665928 269.684407499 542.942665928 269.684407499 547.713867188 279.428710938 c 0,66,67
 557.648323673 299.507092542 557.648323673 299.507092542 568.611817598 316.078547585 c 128,-1,68
 579.575311523 332.650002627 579.575311523 332.650002627 587.816771269 343.27887429 c 128,-1,69
 596.058231016 353.907745954 596.058231016 353.907745954 611.437492149 367.448917955 c 128,-1,70
 626.816753283 380.990089956 626.816753283 380.990089956 634.737525031 387.204800216 c 128,-1,71
 642.658296779 393.419510477 642.658296779 393.419510477 664.548648472 409.485954992 c 128,-1,72
 686.439000164 425.552399507 686.439000164 425.552399507 696.857421875 433.428710938 c 0,73,74
 750.462894495 474.890572686 750.462894495 474.890572686 831.33107487 525.621503708 c 128,-1,75
 912.199255244 576.352434729 912.199255244 576.352434729 972.857421875 606.571289062 c 1,76,77
 1037.81156806 644.519442013 1037.81156806 644.519442013 1107.14257812 673.713867188 c 1,0,-1
441.142578125 712.571289062 m 0,78,79
 501.086316605 712.707415019 501.086316605 712.707415019 547.051997445 680.93812901 c 128,-1,80
 593.017678285 649.168843002 593.017678285 649.168843002 615.138106722 602.871115781 c 128,-1,81
 637.258535159 556.573388561 637.258535159 556.573388561 638 505.713867188 c 0,82,83
 638.386117221 457.823781294 638.386117221 457.823781294 626.826889042 408.74053417 c 128,-1,84
 615.267660863 359.657287046 615.267660863 359.657287046 601.09231567 326.285787241 c 128,-1,85
 586.916970478 292.914287436 586.916970478 292.914287436 574.73756409 254.258386953 c 128,-1,86
 562.558157703 215.602486471 562.558157703 215.602486471 562 186.571289062 c 0,87,88
 561.041992188 179.213576565 561.041992188 179.213576565 561.041992188 171.806640625 c 0,89,90
 561.041992188 144.184754277 561.041992188 144.184754277 578.065577958 115.024979535 c 128,-1,91
 595.089163729 85.8652047925 595.089163729 85.8652047925 619.142578125 72.2861328125 c 0,92,93
 640.44195132 60.2034779614 640.44195132 60.2034779614 658.830322266 65.0003662109 c 128,-1,94
 677.218693211 69.7972544605 677.218693211 69.7972544605 686.571533203 79.1430664062 c 128,-1,95
 695.924373195 88.488878352 695.924373195 88.488878352 710.026977539 101.214233398 c 128,-1,96
 724.129581883 113.939588445 724.129581883 113.939588445 736.857421875 117.713867188 c 0,97,98
 757.393337724 123.638351012 757.393337724 123.638351012 758.99987793 106.500244141 c 128,-1,99
 760.606418136 89.3621372695 760.606418136 89.3621372695 747.713867188 78.5712890625 c 0,100,101
 737.277751377 68.8805439173 737.277751377 68.8805439173 720.222440809 52.1278620229 c 128,-1,102
 703.167130241 35.3751801285 703.167130241 35.3751801285 696.161180407 29.1977452769 c 128,-1,103
 689.155230572 23.0203104253 689.155230572 23.0203104253 677.347959608 15.6369867787 c 128,-1,104
 665.540688644 8.25366313219 665.540688644 8.25366313219 652.857421875 4.5712890625 c 0,105,106
 616.522129752 -5.88272634807 616.522129752 -5.88272634807 589.060252623 7.42326071732 c 128,-1,107
 561.598375494 20.7292477827 561.598375494 20.7292477827 547.020054384 50.6434049321 c 128,-1,108
 532.441733274 80.5575620815 532.441733274 80.5575620815 525.506511168 114.307324438 c 128,-1,109
 518.571289062 148.057086795 518.571289062 148.057086795 518.571289062 184 c 0,110,111
 518.830878194 232.555148652 518.830878194 232.555148652 544.577753874 333.816294856 c 128,-1,112
 570.324629555 435.077441061 570.324629555 435.077441061 565.142578125 490.857421875 c 0,113,114
 557.871578582 569.130861306 557.871578582 569.130861306 513.565497392 621.565430653 c 128,-1,115
 469.259416201 674 469.259416201 674 410.857421875 674 c 0,116,117
 360.044012033 674 360.044012033 674 318.88227018 654.784393194 c 128,-1,118
 277.720528327 635.568786388 277.720528327 635.568786388 249.198586143 600.550369379 c 128,-1,119
 220.676643959 565.53195237 220.676643959 565.53195237 201.578528725 522.418151739 c 128,-1,120
 182.480413491 479.304351108 182.480413491 479.304351108 170.571289062 425.713867188 c 0,121,122
 156.60607085 346.656454591 156.60607085 346.656454591 161.428747106 306.857132523 c 128,-1,123
 166.251423363 267.057810456 166.251423363 267.057810456 173.238245081 202.285771123 c 128,-1,124
 180.225066799 137.51373179 180.225066799 137.51373179 174 81.142578125 c 0,125,126
 173.153327088 64.5174670314 173.153327088 64.5174670314 162.772763771 46.1843077586 c 128,-1,127
 152.392200453 27.8511484858 152.392200453 27.8511484858 138.571289062 18.5712890625 c 0,128,129
 121.502031728 7.79815550393 121.502031728 7.79815550393 92.0503439861 2.76857269497 c 128,-1,130
 62.5986562445 -2.261010114 62.5986562445 -2.261010114 39.7585752848 1.8023908467 c 128,-1,131
 16.918494325 5.8657918074 16.918494325 5.8657918074 18 18.5712890625 c 128,-1,132
 19.2409191203 31.4591624503 19.2409191203 31.4591624503 29.9736564069 36.2919170906 c 128,-1,133
 40.7063936935 41.1246717309 40.7063936935 41.1246717309 53.3966896624 40.5869739006 c 128,-1,134
 66.0869856314 40.0492760703 66.0869856314 40.0492760703 78.8577811628 45.2292645027 c 128,-1,135
 91.6285766941 50.4092529351 91.6285766941 50.4092529351 96 63.7138671875 c 0,136,137
 107.638121716 99.3267503571 107.638121716 99.3267503571 104.264503762 171.76703559 c 128,-1,138
 100.890885807 244.207320823 100.890885807 244.207320823 96.9734519676 302.613823785 c 128,-1,139
 93.0560181283 361.020326746 93.0560181283 361.020326746 111.713867188 428.571289062 c 0,140,141
 151.442715619 546.695464718 151.442715619 546.695464718 225.558982349 618.046450806 c 128,-1,142
 299.67524908 689.397436893 299.67524908 689.397436893 400 708.857421875 c 0,143,144
 420.141529018 712.572265625 420.141529018 712.572265625 441.142578125 712.571289062 c 0,78,79
269.713867188 444 m 1,145,-1
 269.142578125 444 l 1,146,147
 280.185205457 470.031508963 280.185205457 470.031508963 307.978342646 489.620483551 c 128,-1,148
 335.771479834 509.209458138 335.771479834 509.209458138 364 510.857421875 c 0,149,150
 402.515593524 513.675733927 402.515593524 513.675733927 440.400863168 495.924368869 c 128,-1,151
 478.286132812 478.173003811 478.286132812 478.173003811 478.286132812 450 c 0,152,153
 477.894130344 436.691315519 477.894130344 436.691315519 464.571289062 432.821533203 c 128,-1,154
 451.248447781 428.951750887 451.248447781 428.951750887 441.428710938 434.286132812 c 0,155,156
 437.77859535 435.824851869 437.77859535 435.824851869 402.161327349 458.014951196 c 128,-1,157
 366.544059349 480.205050523 366.544059349 480.205050523 347.713867188 478 c 0,158,159
 327.187393261 475.536916676 327.187393261 475.536916676 314.606272124 455.085873473 c 128,-1,160
 302.025150988 434.63483027 302.025150988 434.63483027 303.108246105 409.581118715 c 128,-1,161
 304.191341222 384.527407159 304.191341222 384.527407159 319.142578125 369.713867188 c 0,162,163
 329.960365099 359.362065215 329.960365099 359.362065215 352.928062626 339.101869707 c 128,-1,164
 375.895760153 318.841674198 375.895760153 318.841674198 385.835390499 308.440599043 c 128,-1,165
 395.775020844 298.039523888 395.775020844 298.039523888 409.421875126 280.130729082 c 128,-1,166
 423.068729409 262.221934275 423.068729409 262.221934275 428.957640499 242.612349043 c 128,-1,167
 434.846551588 223.002763812 434.846551588 223.002763812 436 198.286132812 c 0,168,169
 435.564210472 158.281386599 435.564210472 158.281386599 407.017524919 127.893017643 c 128,-1,170
 378.470839366 97.5046486882 378.470839366 97.5046486882 338.571289062 94.5712890625 c 0,171,172
 330.366850142 94.083984375 330.366850142 94.083984375 322.173828125 94.083984375 c 0,173,174
 281.666162117 94.083984375 281.666162117 94.083984375 242.857421875 105.713867188 c 0,175,176
 232.329101562 110.897530188 232.329101562 110.897530188 232.329101562 122.6328125 c 0,177,178
 232.329101562 131.487976439 232.329101562 131.487976439 239.142578125 137.142578125 c 0,179,180
 245.863455251 141.92458778 245.863455251 141.92458778 285.195352663 133.573073907 c 128,-1,181
 324.527250076 125.221560034 324.527250076 125.221560034 336.286132812 132.857421875 c 0,182,183
 347.879713511 142.020811105 347.879713511 142.020811105 356.085364568 158.965653444 c 128,-1,184
 364.291015625 175.910495783 364.291015625 175.910495783 364.291015625 190.688476562 c 0,185,186
 364.291015625 201.578318118 364.291015625 201.578318118 361.142578125 212 c 0,187,188
 357.5536454 233.906280194 357.5536454 233.906280194 340.553037065 253.566612041 c 128,-1,189
 323.552428729 273.226943887 323.552428729 273.226943887 301.54234054 293.862098897 c 128,-1,190
 279.53225235 314.497253907 279.53225235 314.497253907 269.713867188 332.571289062 c 0,191,192
 257.169921875 359.017959659 257.169921875 359.017959659 257.169921875 388.286132812 c 128,-1,193
 257.169921875 417.553329403 257.169921875 417.553329403 269.713867188 444 c 1,145,-1
EndSplineSet
Substitution2: "'c2sc' Capitals to Small Capitals lookup 35 subtable" ae.sc
Substitution2: "'aalt' Access All Alternates lookup 0 subtable" ae.sc
Position2: "'cpsp' Capital Spacing lookup 0 subtable" dx=10 dy=0 dh=20 dv=0
EndChar

StartChar: B
Encoding: 66 66 31
Width: 870
GlyphClass: 2
Flags: W
LayerCount: 2
Fore
SplineSet
556.142578125 64 m 4,0,1
 676.497070312 86.375 676.497070312 86.375 695.857421875 174.571289062 c 4,2,3
 699.484375 196.106445312 699.484375 196.106445312 699.484375 217.943359375 c 4,4,5
 699.484375 272.217773438 699.484375 272.217773438 677.857421875 322 c 4,6,7
 664.817382812 358.3203125 664.817382812 358.3203125 612.2578125 392.427734375 c 132,-1,8
 559.698242188 426.53515625 559.698242188 426.53515625 494.000976562 449.270507812 c 132,-1,9
 428.302734375 472.005859375 428.302734375 472.005859375 364.467773438 489.552734375 c 132,-1,10
 300.6328125 507.098632812 300.6328125 507.098632812 257.387695312 515.263671875 c 6,11,-1
 214.142578125 523.428710938 l 6,12,13
 213.162109375 521.787109375 213.162109375 521.787109375 211.471679688 519.12109375 c 132,-1,14
 209.782226562 516.455078125 209.782226562 516.455078125 204.25390625 508.211914062 c 132,-1,15
 198.724609375 499.967773438 198.724609375 499.967773438 193.676757812 493.71875 c 132,-1,16
 188.627929688 487.469726562 188.627929688 487.469726562 180.9296875 478.661132812 c 132,-1,17
 173.232421875 469.852539062 173.232421875 469.852539062 167.204101562 466.056640625 c 132,-1,18
 161.17578125 462.26171875 161.17578125 462.26171875 153.688476562 458.92578125 c 132,-1,19
 146.200195312 455.58984375 146.200195312 455.58984375 141.571289062 460.286132812 c 4,20,21
 134.243164062 464.682617188 134.243164062 464.682617188 133.615234375 473.72265625 c 132,-1,22
 132.987304688 482.762695312 132.987304688 482.762695312 140.408203125 498.208984375 c 132,-1,23
 147.828125 513.654296875 147.828125 513.654296875 153.340820312 523.482421875 c 132,-1,24
 158.853515625 533.310546875 158.853515625 533.310546875 172.407226562 554.071289062 c 132,-1,25
 185.961914062 574.83203125 185.961914062 574.83203125 189 579.713867188 c 132,-1,26
 192.021484375 584.405273438 192.021484375 584.405273438 198.575195312 594.803710938 c 132,-1,27
 205.129882812 605.203125 205.129882812 605.203125 209.224609375 611.532226562 c 132,-1,28
 213.319335938 617.861328125 213.319335938 617.861328125 219.580078125 627.225585938 c 132,-1,29
 225.840820312 636.58984375 225.840820312 636.58984375 230.518554688 642.529296875 c 132,-1,30
 235.197265625 648.46875 235.197265625 648.46875 240.524414062 654.549804688 c 132,-1,31
 245.8515625 660.629882812 245.8515625 660.629882812 250.473632812 663.930664062 c 132,-1,32
 255.095703125 667.231445312 255.095703125 667.231445312 259 668 c 4,33,34
 262.05078125 668.944335938 262.05078125 668.944335938 265.247070312 668.944335938 c 4,35,36
 276.419921875 668.944335938 276.419921875 668.944335938 282.713867188 659.713867188 c 4,37,38
 287.052734375 654.97265625 287.052734375 654.97265625 284.897460938 646.513671875 c 132,-1,39
 282.741210938 638.0546875 282.741210938 638.0546875 280.25 633.607421875 c 132,-1,40
 277.758789062 629.16015625 277.758789062 629.16015625 271.90625 619.897460938 c 132,-1,41
 266.053710938 610.634765625 266.053710938 610.634765625 263 604.286132812 c 5,42,43
 269.322265625 603.471679688 269.322265625 603.471679688 280.380859375 601.830078125 c 132,-1,44
 291.439453125 600.188476562 291.439453125 600.188476562 325.44921875 593.740234375 c 132,-1,45
 359.459960938 587.291992188 359.459960938 587.291992188 392.616210938 579.409179688 c 132,-1,46
 425.772460938 571.526367188 425.772460938 571.526367188 471.095703125 557.736328125 c 132,-1,47
 516.418945312 543.946289062 516.418945312 543.946289062 555.645507812 528.1484375 c 132,-1,48
 594.87109375 512.350585938 594.87109375 512.350585938 635.479492188 489.543945312 c 132,-1,49
 676.086914062 466.73828125 676.086914062 466.73828125 705.354492188 441.350585938 c 132,-1,50
 734.623046875 415.962890625 734.623046875 415.962890625 754.487304688 382.466796875 c 132,-1,51
 774.3515625 348.970703125 774.3515625 348.970703125 777.286132812 312.286132812 c 4,52,53
 781.404296875 261.422851562 781.404296875 261.422851562 773.9609375 220.3828125 c 132,-1,54
 766.517578125 179.341796875 766.517578125 179.341796875 747.450195312 147.930664062 c 132,-1,55
 728.3828125 116.518554688 728.3828125 116.518554688 707.674804688 94.650390625 c 132,-1,56
 686.967773438 72.7822265625 686.967773438 72.7822265625 655.857421875 48.2861328125 c 4,57,58
 579.693359375 -9.197265625 579.693359375 -9.197265625 411.571289062 2.5712890625 c 4,59,60
 373.611328125 5.1572265625 373.611328125 5.1572265625 328.852539062 25.169921875 c 132,-1,61
 284.09375 45.18359375 284.09375 45.18359375 240.1953125 63.591796875 c 132,-1,62
 196.297851562 82 196.297851562 82 157.286132812 82 c 4,63,64
 139.033203125 82 139.033203125 82 105.360351562 62.197265625 c 132,-1,65
 71.6884765625 42.39453125 71.6884765625 42.39453125 50.7138671875 43.4287109375 c 4,66,67
 27.6259765625 45.0341796875 27.6259765625 45.0341796875 19.748046875 59.349609375 c 132,-1,68
 11.869140625 73.6640625 11.869140625 73.6640625 13.2861328125 100.571289062 c 5,69,70
 21.69921875 135.52734375 21.69921875 135.52734375 52.923828125 163.236328125 c 132,-1,71
 84.1494140625 190.946289062 84.1494140625 190.946289062 119.857421875 195.142578125 c 4,72,73
 150.803710938 196.670898438 150.803710938 196.670898438 187.72265625 179.556640625 c 132,-1,74
 224.640625 162.442382812 224.640625 162.442382812 257.58984375 139.024414062 c 132,-1,75
 290.538085938 115.606445312 290.538085938 115.606445312 337.153320312 93.1708984375 c 132,-1,76
 383.767578125 70.734375 383.767578125 70.734375 434.106445312 61.62109375 c 132,-1,77
 484.444335938 52.5068359375 484.444335938 52.5068359375 556.142578125 64 c 4,0,1
805.286132812 108 m 4,78,79
 822.801757812 107.34765625 822.801757812 107.34765625 837.954101562 94.791015625 c 132,-1,80
 853.106445312 82.2333984375 853.106445312 82.2333984375 857 65.142578125 c 4,81,82
 857 46.810546875 857 46.810546875 834.501953125 33.2626953125 c 132,-1,83
 812.002929688 19.7138671875 812.002929688 19.7138671875 797.857421875 19.7138671875 c 4,84,85
 781.686523438 20.9521484375 781.686523438 20.9521484375 770.243164062 33.3056640625 c 132,-1,86
 758.798828125 45.6591796875 758.798828125 45.6591796875 758.798828125 61.876953125 c 4,87,88
 758.798828125 63.947265625 758.798828125 63.947265625 759 66 c 4,89,90
 759 83.28515625 759 83.28515625 775.016601562 95.642578125 c 132,-1,91
 791.034179688 108 791.034179688 108 805.286132812 108 c 4,78,79
EndSplineSet
Validated: 33
Substitution2: "'c2sc' Capitals to Small Capitals lookup 35 subtable" b.sc
Substitution2: "'aalt' Access All Alternates lookup 0 subtable" b.sc
Position2: "'cpsp' Capital Spacing lookup 0 subtable" dx=10 dy=0 dh=20 dv=0
EndChar

StartChar: C
Encoding: 67 67 32
Width: 358
GlyphClass: 2
Flags: W
LayerCount: 2
Fore
SplineSet
273 795.428710938 m 0,0,1
 309.125976562 795.428710938 309.125976562 795.428710938 317.142578125 768.857421875 c 128,-1,2
 325.16015625 742.286132812 325.16015625 742.286132812 294.428710938 702.857421875 c 0,3,4
 280.254882812 685.5859375 280.254882812 685.5859375 233.137695312 635.240234375 c 128,-1,5
 186.021484375 584.89453125 186.021484375 584.89453125 154.004882812 547.141601562 c 128,-1,6
 121.98828125 509.388671875 121.98828125 509.388671875 123 499.142578125 c 0,7,8
 124.0859375 488.1484375 124.0859375 488.1484375 193.250976562 422.913085938 c 128,-1,9
 262.416015625 357.677734375 262.416015625 357.677734375 262.713867188 344.286132812 c 0,10,11
 262.958007812 333.322265625 262.958007812 333.322265625 232.376953125 307.817382812 c 128,-1,12
 201.795898438 282.311523438 201.795898438 282.311523438 169.71875 257.325195312 c 128,-1,13
 137.641601562 232.33984375 137.641601562 232.33984375 135.571289062 223.713867188 c 0,14,15
 132.778320312 211.015625 132.778320312 211.015625 168.920898438 166.444335938 c 128,-1,16
 205.063476562 121.873046875 205.063476562 121.873046875 242.603515625 83.650390625 c 2,17,-1
 280.142578125 45.4287109375 l 2,18,19
 280.907226562 46.0966796875 280.907226562 46.0966796875 282.196289062 47.1708984375 c 128,-1,20
 283.486328125 48.2451171875 283.486328125 48.2451171875 287.619140625 51.533203125 c 128,-1,21
 291.752929688 54.8203125 291.752929688 54.8203125 295.30078125 57.2138671875 c 128,-1,22
 298.849609375 59.607421875 298.849609375 59.607421875 304.1328125 62.9150390625 c 128,-1,23
 309.415039062 66.2216796875 309.415039062 66.2216796875 313.00390625 67.3359375 c 128,-1,24
 316.592773438 68.4501953125 316.592773438 68.4501953125 320.805664062 69.1787109375 c 128,-1,25
 325.01953125 69.9072265625 325.01953125 69.9072265625 326.428710938 67.142578125 c 0,26,27
 335.112304688 58.1962890625 335.112304688 58.1962890625 309.48046875 30.126953125 c 128,-1,28
 283.849609375 2.0576171875 283.849609375 2.0576171875 251.7578125 -20.888671875 c 128,-1,29
 219.666015625 -43.8359375 219.666015625 -43.8359375 212.142578125 -40.5712890625 c 0,30,31
 203.338867188 -34.708984375 203.338867188 -34.708984375 206.893554688 -25.439453125 c 128,-1,32
 210.44921875 -16.169921875 210.44921875 -16.169921875 219.295898438 -7.513671875 c 2,33,-1
 228.142578125 1.142578125 l 1,34,35
 220.74609375 7.4853515625 220.74609375 7.4853515625 208.461914062 18.2490234375 c 128,-1,36
 196.176757812 29.01171875 196.176757812 29.01171875 164.708007812 58.1142578125 c 128,-1,37
 133.239257812 87.216796875 133.239257812 87.216796875 109.09765625 111.611328125 c 128,-1,38
 84.9560546875 136.004882812 84.9560546875 136.004882812 64.9326171875 161.282226562 c 128,-1,39
 44.908203125 186.559570312 44.908203125 186.559570312 44.4287109375 198 c 0,40,41
 43.6923828125 215.547851562 43.6923828125 215.547851562 74.32421875 243.928710938 c 128,-1,42
 104.956054688 272.309570312 104.956054688 272.309570312 136.151367188 297.405273438 c 128,-1,43
 167.346679688 322.5 167.346679688 322.5 167.571289062 331.713867188 c 128,-1,44
 167.798828125 341.049804688 167.798828125 341.049804688 136.124023438 370.2734375 c 128,-1,45
 104.450195312 399.498046875 104.450195312 399.498046875 72.8271484375 431.725585938 c 128,-1,46
 41.205078125 463.954101562 41.205078125 463.954101562 41.5712890625 480.571289062 c 128,-1,47
 41.9404296875 497.291015625 41.9404296875 497.291015625 94.5107421875 554.190429688 c 128,-1,48
 147.081054688 611.088867188 147.081054688 611.088867188 200.631835938 665.428710938 c 128,-1,49
 254.18359375 719.767578125 254.18359375 719.767578125 255.857421875 729.142578125 c 0,50,51
 257.243164062 736.904296875 257.243164062 736.904296875 251.77734375 755.654296875 c 128,-1,52
 246.311523438 774.404296875 246.311523438 774.404296875 249.4609375 784.916992188 c 128,-1,53
 252.609375 795.428710938 252.609375 795.428710938 273 795.428710938 c 0,0,1
EndSplineSet
Validated: 33
Substitution2: "Single Substitution lookup 54 subtable" C.ss01
Substitution2: "'ss01' Style Set 1 lookup 44 subtable" C.ss01
Substitution2: "'c2sc' Capitals to Small Capitals lookup 35 subtable" c.sc
AlternateSubs2: "'aalt' Access All Alternates lookup 1 subtable" c.sc C.ss01
Position2: "'cpsp' Capital Spacing lookup 0 subtable" dx=10 dy=0 dh=20 dv=0
EndChar

StartChar: Ccedilla
Encoding: 199 199 35
Width: 371
GlyphClass: 2
Flags: W
AnchorPoint: "Anchor-13" 227 -235 basechar 0
LayerCount: 2
Fore
SplineSet
274 17 m 0,0,-1
 263 -48 l 1,1,2
 307 -76 307 -76 330 -95.5 c 0,3,4
 353 -115 353 -115 353 -140 c 256,5,6
 353 -165 353 -165 334.5 -187 c 0,7,8
 316 -209 316 -209 286.5 -222 c 0,9,10
 257 -235 257 -235 227 -235 c 0,11,12
 200 -235 200 -235 177.5 -224.5 c 0,13,14
 155 -214 155 -214 155 -196 c 0,15,16
 155 -180 155 -180 185 -137 c 1,17,-1
 194 -137 l 1,18,19
 195 -164 195 -164 209 -178.5 c 0,20,21
 223 -193 223 -193 247 -193 c 0,22,23
 266 -193 266 -193 279 -183.5 c 0,24,25
 292 -174 292 -174 292 -159 c 0,26,27
 292 -143 292 -143 269.5 -125.5 c 0,28,29
 247 -108 247 -108 207 -85 c 1,30,-1
 220 -11 l 0,31,-1
 274 17 l 0,0,-1
EndSplineSet
Refer: 32 67 N 1 0 0 1 0 0 2
Substitution2: "'c2sc' Capitals to Small Capitals lookup 35 subtable" ccedilla.sc
Substitution2: "'aalt' Access All Alternates lookup 0 subtable" ccedilla.sc
Position2: "'cpsp' Capital Spacing lookup 0 subtable" dx=10 dy=0 dh=20 dv=0
EndChar

StartChar: uni1E08
Encoding: 7688 7688 36
Width: 621
GlyphClass: 2
Flags: W
AnchorPoint: "Anchor-17" 0 0 basechar 0
AnchorPoint: "Anchor-16" 0 0 basechar 0
AnchorPoint: "Anchor-15" 0 0 basechar 0
AnchorPoint: "Anchor-14" 0 0 basechar 0
AnchorPoint: "Anchor-13" 324 -235 basechar 0
LayerCount: 2
Fore
SplineSet
240 715 m 1,0,-1
 231 749 l 1,1,2
 326 795 326 795 440 856 c 1,3,-1
 451 850 l 1,4,-1
 471 790 l 1,5,-1
 466 779 l 1,6,7
 354 745 354 745 250 708 c 1,8,-1
 240 715 l 1,0,-1
576 212 m 1,9,10
 558 111 558 111 552 38 c 1,11,-1
 545 28 l 1,12,13
 507 12 507 12 454 0.5 c 128,-1,14
 401 -11 401 -11 344 -12 c 1,15,-1
 333 -48 l 1,16,17
 377 -76 377 -76 400 -95.5 c 128,-1,18
 423 -115 423 -115 423 -140 c 256,19,20
 423 -165 423 -165 404.5 -187 c 128,-1,21
 386 -209 386 -209 356.5 -222 c 128,-1,22
 327 -235 327 -235 297 -235 c 0,23,24
 270 -235 270 -235 247.5 -224.5 c 128,-1,25
 225 -214 225 -214 225 -196 c 0,26,27
 225 -180 225 -180 255 -137 c 1,28,-1
 264 -137 l 1,29,30
 265 -164 265 -164 279.5 -178.5 c 128,-1,31
 294 -193 294 -193 318 -193 c 0,32,33
 337 -193 337 -193 349.5 -183.5 c 128,-1,34
 362 -174 362 -174 362 -159 c 0,35,36
 362 -143 362 -143 339.5 -125.5 c 128,-1,37
 317 -108 317 -108 277 -85 c 1,38,-1
 299 -11 l 1,39,40
 176 0 176 0 105.5 83 c 128,-1,41
 35 166 35 166 35 300 c 0,42,43
 35 402 35 402 79 482 c 128,-1,44
 123 562 123 562 202.5 606.5 c 128,-1,45
 282 651 282 651 384 651 c 0,46,47
 464 651 464 651 566 627 c 1,48,-1
 571 618 l 1,49,50
 551 534 551 534 545 441 c 1,51,-1
 475 436 l 1,52,53
 478 464 478 464 478 487 c 0,54,55
 478 576 478 576 347 576 c 0,56,57
 256 576 256 576 204.5 512 c 128,-1,58
 153 448 153 448 153 334 c 0,59,60
 153 249 153 249 178 186.5 c 128,-1,61
 203 124 203 124 248.5 90.5 c 128,-1,62
 294 57 294 57 355 57 c 0,63,64
 417 57 417 57 453.5 93 c 128,-1,65
 490 129 490 129 506 206 c 1,66,-1
 576 212 l 1,9,10
EndSplineSet
Validated: 1
Substitution2: "'c2sc' Capitals to Small Capitals lookup 35 subtable" uni1E09.sc
Substitution2: "'aalt' Access All Alternates lookup 0 subtable" uni1E09.sc
Position2: "'cpsp' Capital Spacing lookup 0 subtable" dx=10 dy=0 dh=20 dv=0
EndChar

StartChar: D
Encoding: 68 68 39
Width: 721
GlyphClass: 2
Flags: W
LayerCount: 2
Fore
SplineSet
215.142578125 687.428710938 m 4,0,1
 224.620117188 685.651367188 224.620117188 685.651367188 233.435546875 676.17578125 c 132,-1,2
 242.250976562 666.701171875 242.250976562 666.701171875 236 655.713867188 c 4,3,4
 231.635742188 648.043945312 231.635742188 648.043945312 208.236328125 642.803710938 c 132,-1,5
 184.836914062 637.564453125 184.836914062 637.564453125 182.571289062 627.142578125 c 4,6,7
 180.278320312 616.186523438 180.278320312 616.186523438 203.374023438 589.950195312 c 132,-1,8
 226.469726562 563.713867188 226.469726562 563.713867188 246 563.713867188 c 4,9,10
 302.37109375 561.249023438 302.37109375 561.249023438 457.895507812 556.729492188 c 132,-1,11
 613.419921875 552.208984375 613.419921875 552.208984375 644 551.142578125 c 4,12,13
 661.729492188 550.663085938 661.729492188 550.663085938 682.533203125 536.711914062 c 132,-1,14
 703.336914062 522.760742188 703.336914062 522.760742188 701.142578125 508 c 4,15,16
 693.889648438 461.096679688 693.889648438 461.096679688 680.291992188 374.163085938 c 132,-1,17
 666.693359375 287.229492188 666.693359375 287.229492188 652.850585938 198.7890625 c 132,-1,18
 639.008789062 110.348632812 639.008789062 110.348632812 632 65.142578125 c 4,19,20
 621.701171875 1.142578125 621.701171875 1.142578125 593.142578125 1.142578125 c 4,21,22
 540.106445312 1.142578125 540.106445312 1.142578125 373.607421875 4 c 132,-1,23
 207.107421875 6.857421875 207.107421875 6.857421875 154.286132812 6.857421875 c 4,24,25
 136.556640625 6.392578125 136.556640625 6.392578125 118.390625 -5.16015625 c 132,-1,26
 100.224609375 -16.712890625 100.224609375 -16.712890625 92.2861328125 -32.5712890625 c 4,27,28
 87.556640625 -42.5859375 87.556640625 -42.5859375 91.21484375 -64.75 c 132,-1,29
 94.8720703125 -86.9140625 94.8720703125 -86.9140625 88.857421875 -95.4287109375 c 4,30,31
 79.4912109375 -112.87890625 79.4912109375 -112.87890625 60.2861328125 -117.713867188 c 4,32,33
 54.916015625 -119.838867188 54.916015625 -119.838867188 49.142578125 -119.838867188 c 132,-1,34
 43.3701171875 -119.838867188 43.3701171875 -119.838867188 38 -117.713867188 c 4,35,36
 26.923828125 -108.646484375 26.923828125 -108.646484375 21.4287109375 -95.4287109375 c 4,37,38
 17.673828125 -84.5322265625 17.673828125 -84.5322265625 17.673828125 -73 c 132,-1,39
 17.673828125 -61.4677734375 17.673828125 -61.4677734375 21.4287109375 -50.5712890625 c 4,40,41
 44.58203125 -15.3251953125 44.58203125 -15.3251953125 90.3740234375 14.728515625 c 132,-1,42
 136.165039062 44.7822265625 136.165039062 44.7822265625 177.713867188 52 c 4,43,44
 205.241210938 54.1376953125 205.241210938 54.1376953125 334.75 51.6787109375 c 132,-1,45
 464.258789062 49.21875 464.258789062 49.21875 516 52 c 4,46,47
 530.115234375 52.7626953125 530.115234375 52.7626953125 538.208007812 65.294921875 c 132,-1,48
 546.30078125 77.8271484375 546.30078125 77.8271484375 548 91.142578125 c 4,49,50
 559.4765625 170.044921875 559.4765625 170.044921875 596.571289062 418.857421875 c 4,51,52
 601.501953125 444.075195312 601.501953125 444.075195312 599.357421875 460.615234375 c 132,-1,53
 597.212890625 477.154296875 597.212890625 477.154296875 594.65625 486.313476562 c 132,-1,54
 592.098632812 495.471679688 592.098632812 495.471679688 586.018554688 499.846679688 c 132,-1,55
 579.9375 504.221679688 579.9375 504.221679688 576.997070312 505.111328125 c 132,-1,56
 574.055664062 506 574.055664062 506 571.142578125 506 c 4,57,58
 526.745117188 506.758789062 526.745117188 506.758789062 455.55078125 509.255859375 c 132,-1,59
 384.35546875 511.752929688 384.35546875 511.752929688 301.306640625 515.029296875 c 132,-1,60
 218.2578125 518.305664062 218.2578125 518.305664062 185.142578125 519.428710938 c 4,61,62
 155.462890625 520.50390625 155.462890625 520.50390625 120.706054688 559.548828125 c 132,-1,63
 85.94921875 598.594726562 85.94921875 598.594726562 91.7138671875 624.857421875 c 4,64,65
 95.9638671875 644.754882812 95.9638671875 644.754882812 147.709960938 667.6875 c 132,-1,66
 199.456054688 690.619140625 199.456054688 690.619140625 215.142578125 687.428710938 c 4,0,1
EndSplineSet
Validated: 33
Substitution2: "Single Substitution lookup 54 subtable" D.ss01
Substitution2: "'ss01' Style Set 1 lookup 44 subtable" D.ss01
Substitution2: "'c2sc' Capitals to Small Capitals lookup 35 subtable" d.sc
AlternateSubs2: "'aalt' Access All Alternates lookup 1 subtable" d.sc D.ss01
Position2: "'cpsp' Capital Spacing lookup 0 subtable" dx=10 dy=0 dh=20 dv=0
EndChar

StartChar: Eth
Encoding: 208 208 41
Width: 741
Flags: W
LayerCount: 2
Fore
SplineSet
717 296 m 1,0,-1
 339 296 l 1,1,-1
 332 303 l 1,2,-1
 340 347 l 1,3,-1
 717 348 l 1,4,-1
 723 340 l 1,5,-1
 717 296 l 1,0,-1
EndSplineSet
Refer: 39 68 N 1 0 0 1 0 0 2
Substitution2: "'c2sc' Capitals to Small Capitals lookup 35 subtable" eth.sc
Substitution2: "'aalt' Access All Alternates lookup 0 subtable" eth.sc
Position2: "'cpsp' Capital Spacing lookup 0 subtable" dx=10 dy=0 dh=20 dv=0
EndChar

StartChar: Dcroat
Encoding: 272 272 43
Width: 711
Flags: W
LayerCount: 2
Fore
SplineSet
699 296 m 1,0,-1
 321 296 l 1,1,-1
 314 303 l 1,2,-1
 322 347 l 1,3,-1
 699 348 l 1,4,-1
 705 340 l 1,5,-1
 699 296 l 1,0,-1
EndSplineSet
Refer: 39 68 N 1 0 0 1 0 0 2
Substitution2: "'c2sc' Capitals to Small Capitals lookup 35 subtable" dcroat.sc
Substitution2: "'aalt' Access All Alternates lookup 0 subtable" dcroat.sc
Position2: "'cpsp' Capital Spacing lookup 0 subtable" dx=10 dy=0 dh=20 dv=0
EndChar

StartChar: E
Encoding: 69 69 47
Width: 733
GlyphClass: 2
Flags: W
LayerCount: 2
Fore
SplineSet
633.571289062 668.857421875 m 1,0,-1
 633 668.857421875 l 2,1,2
 643.796875 672.602539062 643.796875 672.602539062 650.821289062 657.857421875 c 128,-1,3
 657.846679688 643.111328125 657.846679688 643.111328125 647 636.571289062 c 0,4,5
 625.728515625 623.765625 625.728515625 623.765625 564.071289062 587.09765625 c 128,-1,6
 502.413085938 550.430664062 502.413085938 550.430664062 472.586914062 532.115234375 c 128,-1,7
 442.760742188 513.80078125 442.760742188 513.80078125 393.8359375 482.87890625 c 128,-1,8
 344.91015625 451.95703125 344.91015625 451.95703125 305.163085938 423.850585938 c 128,-1,9
 265.416015625 395.744140625 265.416015625 395.744140625 227.857421875 366.286132812 c 1,10,11
 243.620117188 366.286132812 243.620117188 366.286132812 349.821289062 363.857421875 c 128,-1,12
 456.0234375 361.428710938 456.0234375 361.428710938 471.571289062 364.857421875 c 0,13,14
 493.694335938 366.046875 493.694335938 366.046875 507.357421875 351.96484375 c 128,-1,15
 521.020507812 337.881835938 521.020507812 337.881835938 505.857421875 320 c 0,16,17
 477.291015625 290.41796875 477.291015625 290.41796875 444.921875 257.477539062 c 128,-1,18
 412.552734375 224.536132812 412.552734375 224.536132812 372.983398438 184.5234375 c 128,-1,19
 333.4140625 144.509765625 333.4140625 144.509765625 311.857421875 122.571289062 c 0,20,21
 286.75 96.599609375 286.75 96.599609375 288.551757812 91.0341796875 c 0,22,23
 289.71875 87.4287109375 289.71875 87.4287109375 297.286132812 87.4287109375 c 0,24,25
 347.184570312 85.8046875 347.184570312 85.8046875 683.857421875 72.857421875 c 0,26,27
 701.09375 72.1943359375 701.09375 72.1943359375 704.991210938 54.5009765625 c 128,-1,28
 708.888671875 36.8076171875 708.888671875 36.8076171875 700.533203125 19.404296875 c 128,-1,29
 692.176757812 2 692.176757812 2 679.571289062 2 c 0,30,31
 281.342773438 11.7138671875 281.342773438 11.7138671875 210.428710938 11.7138671875 c 0,32,33
 171.145507812 12.6083984375 171.145507812 12.6083984375 170.626953125 21.1875 c 0,34,35
 170.436523438 24.345703125 170.436523438 24.345703125 173.857421875 28.5712890625 c 0,36,37
 213.76953125 78.880859375 213.76953125 78.880859375 296.655273438 164.516601562 c 128,-1,38
 379.541015625 250.151367188 379.541015625 250.151367188 395.286132812 267.428710938 c 0,39,40
 418.953125 293.544921875 418.953125 293.544921875 414.81640625 298.919921875 c 0,41,42
 412.666015625 301.713867188 412.666015625 301.713867188 405.571289062 301.713867188 c 2,43,-1
 193.571289062 301.713867188 l 2,44,45
 191.2890625 301.713867188 191.2890625 301.713867188 181.776367188 302.155273438 c 128,-1,46
 172.263671875 302.596679688 172.263671875 302.596679688 166.767578125 302.478515625 c 128,-1,47
 161.272460938 302.359375 161.272460938 302.359375 154.080078125 300.458984375 c 128,-1,48
 146.887695312 298.55859375 146.887695312 298.55859375 143 294.571289062 c 0,49,50
 141.317382812 292.818359375 141.317382812 292.818359375 132.534179688 284.014648438 c 128,-1,51
 123.750976562 275.211914062 123.750976562 275.211914062 120.750976562 271.794921875 c 128,-1,52
 117.750976562 268.377929688 117.750976562 268.377929688 111.783203125 260.036132812 c 128,-1,53
 105.815429688 251.6953125 105.815429688 251.6953125 104.444335938 246.038085938 c 128,-1,54
 103.073242188 240.381835938 103.073242188 240.381835938 103.22265625 232.248046875 c 128,-1,55
 103.372070312 224.114257812 103.372070312 224.114257812 107.286132812 216.286132812 c 0,56,57
 110.397460938 210.063476562 110.397460938 210.063476562 119.553710938 204.624023438 c 128,-1,58
 128.708984375 199.185546875 128.708984375 199.185546875 137.470703125 196.08984375 c 128,-1,59
 146.232421875 192.993164062 146.232421875 192.993164062 153.797851562 188.185546875 c 128,-1,60
 161.36328125 183.376953125 161.36328125 183.376953125 161.291992188 178.416015625 c 128,-1,61
 161.221679688 173.455078125 161.221679688 173.455078125 152.713867188 164.286132812 c 0,62,63
 101.887695312 118.018554688 101.887695312 118.018554688 61.857421875 128.571289062 c 0,64,65
 28.822265625 137.434570312 28.822265625 137.434570312 22.28515625 171.75 c 128,-1,66
 15.7490234375 206.065429688 15.7490234375 206.065429688 33.2861328125 236.571289062 c 0,67,68
 44.87890625 260.168945312 44.87890625 260.168945312 63.435546875 284.159179688 c 128,-1,69
 81.9912109375 308.149414062 81.9912109375 308.149414062 95.0908203125 322.711914062 c 128,-1,70
 108.189453125 337.2734375 108.189453125 337.2734375 138.772460938 362.590820312 c 128,-1,71
 169.354492188 387.908203125 169.354492188 387.908203125 177.90234375 394.423828125 c 128,-1,72
 186.44921875 400.938476562 186.44921875 400.938476562 223 428.571289062 c 0,73,74
 276.6328125 469.69140625 276.6328125 469.69140625 357.5 519.919921875 c 128,-1,75
 438.368164062 570.1484375 438.368164062 570.1484375 499 600 c 1,76,77
 564.181640625 638.567382812 564.181640625 638.567382812 633.571289062 668.857421875 c 1,0,-1
158.713867188 563.713867188 m 1,78,-1
 158.713867188 564.857421875 l 2,79,80
 160.922851562 565.0546875 160.922851562 565.0546875 163.16015625 565.0546875 c 0,81,82
 176.315429688 565.0546875 176.315429688 565.0546875 189.579101562 556.625 c 128,-1,83
 202.842773438 548.196289062 202.842773438 548.196289062 208.428710938 536.286132812 c 0,84,85
 221.090820312 513.581054688 221.090820312 513.581054688 195.305664062 489.172851562 c 128,-1,86
 169.520507812 464.764648438 169.520507812 464.764648438 133.286132812 467.713867188 c 0,87,88
 103.962890625 470.142578125 103.962890625 470.142578125 116.201171875 510.192382812 c 0,89,90
 127.328125 546.608398438 127.328125 546.608398438 151.247070312 560.616210938 c 0,91,92
 155.112304688 562.879882812 155.112304688 562.879882812 158.713867188 563.713867188 c 1,78,-1
680.428710938 348.571289062 m 0,93,94
 691.146484375 352.016601562 691.146484375 352.016601562 698.9609375 342.133789062 c 128,-1,95
 706.775390625 332.250976562 706.775390625 332.250976562 709 320.571289062 c 0,96,97
 714.047851562 296.340820312 714.047851562 296.340820312 695.173828125 266.231445312 c 0,98,99
 674.21875 232.799804688 674.21875 232.799804688 654.428710938 259.713867188 c 0,100,101
 645.013671875 274.788085938 645.013671875 274.788085938 645.013671875 292.560546875 c 0,102,103
 645.013671875 308.790039062 645.013671875 308.790039062 655.389648438 325.201171875 c 128,-1,104
 665.766601562 341.612304688 665.766601562 341.612304688 680.428710938 348.571289062 c 0,93,94
EndSplineSet
Validated: 33
Substitution2: "'c2sc' Capitals to Small Capitals lookup 35 subtable" e.sc
Substitution2: "'aalt' Access All Alternates lookup 0 subtable" e.sc
Position2: "'cpsp' Capital Spacing lookup 0 subtable" dx=10 dy=0 dh=20 dv=0
EndChar

StartChar: uni1E1C
Encoding: 7708 7708 51
Width: 593
GlyphClass: 2
Flags: W
AnchorPoint: "Anchor-17" 0 0 basechar 0
AnchorPoint: "Anchor-16" 0 0 basechar 0
AnchorPoint: "Anchor-15" 0 0 basechar 0
AnchorPoint: "Anchor-14" 524 40 basechar 0
AnchorPoint: "Anchor-13" 328 -235 basechar 0
LayerCount: 2
Fore
SplineSet
240.5 733.5 m 128,-1,1
 208 764 208 764 194 809 c 1,2,-1
 215 829 l 1,3,-1
 227 831 l 1,4,5
 240 805 240 805 266.5 791 c 128,-1,6
 293 777 293 777 326 777 c 256,7,8
 359 777 359 777 385.5 791 c 128,-1,9
 412 805 412 805 425 831 c 1,10,-1
 437 829 l 1,11,-1
 458 809 l 1,12,13
 445 764 445 764 412 733.5 c 128,-1,14
 379 703 379 703 326 703 c 256,15,0
 273 703 273 703 240.5 733.5 c 128,-1,1
544 177 m 1,16,17
 526 98 526 98 516 1 c 1,18,-1
 509 -7 l 1,19,-1
 351 -2 l 1,20,-1
 337 -48 l 1,21,22
 381 -76 381 -76 404 -95.5 c 128,-1,23
 427 -115 427 -115 427 -140 c 256,24,25
 427 -165 427 -165 408.5 -187 c 128,-1,26
 390 -209 390 -209 360.5 -222 c 128,-1,27
 331 -235 331 -235 301 -235 c 0,28,29
 274 -235 274 -235 251.5 -224.5 c 128,-1,30
 229 -214 229 -214 229 -196 c 0,31,32
 229 -180 229 -180 259 -137 c 1,33,-1
 268 -137 l 1,34,35
 269 -164 269 -164 283.5 -178.5 c 128,-1,36
 298 -193 298 -193 322 -193 c 0,37,38
 341 -193 341 -193 353.5 -183.5 c 128,-1,39
 366 -174 366 -174 366 -159 c 0,40,41
 366 -143 366 -143 343.5 -125.5 c 128,-1,42
 321 -108 321 -108 281 -85 c 1,43,-1
 305 -1 l 1,44,45
 264 0 264 0 203 0 c 0,46,47
 124 0 124 0 49 -10 c 1,48,-1
 55 45 l 1,49,50
 99 51 99 51 115 69 c 128,-1,51
 131 87 131 87 131 130 c 2,52,-1
 132 533 l 2,53,54
 132 565 132 565 125 576 c 128,-1,55
 118 587 118 587 97 587 c 2,56,-1
 64 585 l 1,57,-1
 60 591 l 1,58,-1
 68 642 l 1,59,60
 185 639 185 639 226 639 c 0,61,62
 342 639 342 639 411.5 641.5 c 128,-1,63
 481 644 481 644 528 651 c 1,64,-1
 533 643 l 1,65,66
 525 606 525 606 518.5 558 c 128,-1,67
 512 510 512 510 510 470 c 1,68,-1
 443 465 l 1,69,-1
 445 507 l 2,70,71
 445 539 445 539 436 552.5 c 128,-1,72
 427 566 427 566 399.5 570.5 c 128,-1,73
 372 575 372 575 304 575 c 0,74,75
 273 575 273 575 261 573 c 128,-1,76
 249 571 249 571 245.5 563.5 c 128,-1,77
 242 556 242 556 241 538 c 2,78,-1
 233 361 l 1,79,-1
 332 360 l 2,80,81
 354 360 354 360 387.5 363 c 128,-1,82
 421 366 421 366 452 370 c 1,83,-1
 457 363 l 1,84,-1
 443 292 l 1,85,86
 338 295 338 295 308 295 c 0,87,88
 279 295 279 295 231 289 c 1,89,-1
 228 119 l 2,90,91
 228 91 228 91 232.5 79 c 128,-1,92
 237 67 237 67 251 63 c 128,-1,93
 265 59 265 59 300 59 c 0,94,95
 375 59 375 59 408 67 c 128,-1,96
 441 75 441 75 455 98.5 c 128,-1,97
 469 122 469 122 477 178 c 1,98,-1
 539 184 l 1,99,-1
 544 177 l 1,16,17
EndSplineSet
Validated: 1
Substitution2: "'c2sc' Capitals to Small Capitals lookup 35 subtable" uni1E1D.sc
Substitution2: "'aalt' Access All Alternates lookup 0 subtable" uni1E1D.sc
Position2: "'cpsp' Capital Spacing lookup 0 subtable" dx=10 dy=0 dh=20 dv=0
EndChar

StartChar: Eogonek
Encoding: 280 280 68
Width: 603
GlyphClass: 2
Flags: W
LayerCount: 2
Fore
SplineSet
504 -151.5 m 4,0,1
 525 -145 525 -145 541 -135 c 5,2,-1
 558 -161 l 5,3,4
 534 -184 534 -184 506 -201.5 c 4,5,6
 478 -219 478 -219 455 -226 c 5,7,8
 405 -226 405 -226 373 -200 c 4,9,10
 341 -174 341 -174 341 -133 c 4,11,12
 341 -103 341 -103 358.5 -74.5 c 4,13,14
 376 -46 376 -46 434 15 c 5,15,-1
 487 14 l 5,16,17
 446 -34 446 -34 431.5 -59.5 c 4,18,19
 417 -85 417 -85 417 -108 c 260,20,21
 417 -131 417 -131 430.5 -144.5 c 4,22,23
 444 -158 444 -158 467 -158 c 4,24,25
 483 -158 483 -158 504 -151.5 c 4,0,1
EndSplineSet
Refer: 47 69 N 1 0 0 1 0 0 2
Substitution2: "'c2sc' Capitals to Small Capitals lookup 35 subtable" eogonek.sc
Substitution2: "'aalt' Access All Alternates lookup 0 subtable" eogonek.sc
Position2: "'cpsp' Capital Spacing lookup 0 subtable" dx=10 dy=0 dh=20 dv=0
EndChar

StartChar: uni01B7
Encoding: 439 439 70
Width: 556
GlyphClass: 2
Flags: W
AnchorPoint: "Anchor-17" 0 0 basechar 0
AnchorPoint: "Anchor-16" 0 0 basechar 0
AnchorPoint: "Anchor-15" 295 639 basechar 0
AnchorPoint: "Anchor-14" 0 0 basechar 0
AnchorPoint: "Anchor-13" 276 0 basechar 0
LayerCount: 2
Fore
SplineSet
459 307.5 m 128,-1,1
 512 264 512 264 512 190 c 0,2,3
 512 129 512 129 477 83.5 c 128,-1,4
 442 38 442 38 379 13 c 128,-1,5
 316 -12 316 -12 235 -12 c 0,6,7
 165 -12 165 -12 75 6 c 1,8,-1
 69 14 l 1,9,10
 73 54 73 54 73 94 c 2,11,-1
 71 184 l 1,12,-1
 80 192 l 1,13,-1
 136 195 l 1,14,15
 135 123 135 123 165 89.5 c 128,-1,16
 195 56 195 56 260 56 c 256,17,18
 325 56 325 56 359 87 c 128,-1,19
 393 118 393 118 393 180 c 256,20,21
 393 242 393 242 357 270 c 128,-1,22
 321 298 321 298 245 298 c 2,23,-1
 219 297 l 1,24,-1
 213 304 l 1,25,-1
 218 349 l 1,26,-1
 395 554 l 1,27,-1
 220 554 l 2,28,29
 188 554 188 554 172 546 c 128,-1,30
 156 538 156 538 148.5 516.5 c 128,-1,31
 141 495 141 495 136 449 c 1,32,-1
 69 446 l 1,33,34
 82 518 82 518 84 640 c 1,35,-1
 94 649 l 1,36,-1
 260 640 l 1,37,-1
 490 639 l 1,38,-1
 506 590 l 1,39,-1
 305 359 l 1,40,0
 406 351 406 351 459 307.5 c 128,-1,1
EndSplineSet
Validated: 33
Substitution2: "'c2sc' Capitals to Small Capitals lookup 35 subtable" uni0292.sc
Substitution2: "'aalt' Access All Alternates lookup 0 subtable" uni0292.sc
EndChar

StartChar: F
Encoding: 70 70 72
Width: 814
GlyphClass: 2
Flags: W
LayerCount: 2
Fore
SplineSet
89.7138671875 567.713867188 m 1,0,1
 415.056640625 564.006835938 415.056640625 564.006835938 516.571289062 567.713867188 c 0,2,3
 532.291015625 568.208007812 532.291015625 568.208007812 603.352539062 568.803710938 c 128,-1,4
 674.4140625 569.399414062 674.4140625 569.399414062 716.571289062 571.713867188 c 0,5,6
 723.736328125 571.713867188 723.736328125 571.713867188 737.895507812 573.61328125 c 128,-1,7
 752.055664062 575.512695312 752.055664062 575.512695312 762.069335938 576.19140625 c 128,-1,8
 772.083984375 576.87109375 772.083984375 576.87109375 782.169921875 575.46484375 c 128,-1,9
 792.256835938 574.05859375 792.256835938 574.05859375 796.263671875 566.729492188 c 128,-1,10
 800.271484375 559.399414062 800.271484375 559.399414062 797.428710938 546 c 128,-1,11
 794.623046875 532.748046875 794.623046875 532.748046875 790.47265625 528.19140625 c 128,-1,12
 786.321289062 523.634765625 786.321289062 523.634765625 782.419921875 524.862304688 c 128,-1,13
 778.51953125 526.08984375 778.51953125 526.08984375 772.936523438 523.012695312 c 128,-1,14
 767.353515625 519.935546875 767.353515625 519.935546875 762.571289062 509.713867188 c 0,15,16
 749.1953125 453.118164062 749.1953125 453.118164062 741.713867188 395.428710938 c 0,17,18
 739.385742188 363.854492188 739.385742188 363.854492188 722.857421875 336.857421875 c 0,19,20
 714.25390625 321.448242188 714.25390625 321.448242188 665.930664062 315.892578125 c 128,-1,21
 617.608398438 310.3359375 617.608398438 310.3359375 573.497070312 312.203125 c 128,-1,22
 529.38671875 314.069335938 529.38671875 314.069335938 522.857421875 317.142578125 c 0,23,24
 513.459960938 322.221679688 513.459960938 322.221679688 509.888671875 346.793945312 c 128,-1,25
 506.317382812 371.365234375 506.317382812 371.365234375 507.444335938 393.396484375 c 2,26,-1
 508.571289062 415.428710938 l 1,27,28
 466.848632812 413.442382812 466.848632812 413.442382812 462.286132812 420.286132812 c 0,29,30
 458.202148438 425.341796875 458.202148438 425.341796875 459.357421875 433.75 c 128,-1,31
 460.51171875 442.157226562 460.51171875 442.157226562 468 443.142578125 c 0,32,33
 513.989257812 449.713867188 513.989257812 449.713867188 556.286132812 449.713867188 c 0,34,35
 557.693359375 449.713867188 557.693359375 449.713867188 563.723632812 449.873046875 c 128,-1,36
 569.75390625 450.032226562 569.75390625 450.032226562 574.047851562 449.979492188 c 128,-1,37
 578.341796875 449.92578125 578.341796875 449.92578125 584.9375 449.634765625 c 128,-1,38
 591.534179688 449.344726562 591.534179688 449.344726562 596.111328125 448.27734375 c 128,-1,39
 600.689453125 447.209960938 600.689453125 447.209960938 605.112304688 445.518554688 c 128,-1,40
 609.536132812 443.828125 609.536132812 443.828125 611.658203125 440.796875 c 128,-1,41
 613.78125 437.765625 613.78125 437.765625 613.428710938 433.713867188 c 0,42,43
 612.666992188 427.873046875 612.666992188 427.873046875 602.952148438 424.086914062 c 128,-1,44
 593.23828125 420.301757812 593.23828125 420.301757812 583.904296875 419.436523438 c 2,45,-1
 574.571289062 418.571289062 l 1,46,47
 573.881835938 409.963867188 573.881835938 409.963867188 573.881835938 401.31640625 c 0,48,49
 573.881835938 376.036132812 573.881835938 376.036132812 579.713867188 351.428710938 c 0,50,51
 581.5546875 346.493164062 581.5546875 346.493164062 584.069335938 343.737304688 c 128,-1,52
 586.583984375 340.982421875 586.583984375 340.982421875 591.514648438 340.04296875 c 128,-1,53
 596.4453125 339.102539062 596.4453125 339.102539062 600.07421875 339.04296875 c 128,-1,54
 603.702148438 338.983398438 603.702148438 338.983398438 612.798828125 339.461914062 c 128,-1,55
 621.896484375 339.94140625 621.896484375 339.94140625 627.713867188 340 c 0,56,57
 640.928710938 340.133789062 640.928710938 340.133789062 645.525390625 341.012695312 c 128,-1,58
 650.12109375 341.891601562 650.12109375 341.891601562 656.92578125 350.0234375 c 128,-1,59
 663.731445312 358.155273438 663.731445312 358.155273438 668.249023438 374.2265625 c 128,-1,60
 672.766601562 390.298828125 672.766601562 390.298828125 680.286132812 423.142578125 c 0,61,62
 687.094726562 458.02734375 687.094726562 458.02734375 690 493.428710938 c 0,63,64
 690 502.66796875 690 502.66796875 682.846679688 509.357421875 c 128,-1,65
 675.693359375 516.046875 675.693359375 516.046875 661.102539062 519.514648438 c 128,-1,66
 646.51171875 522.982421875 646.51171875 522.982421875 632.977539062 524.999023438 c 128,-1,67
 619.443359375 527.014648438 619.443359375 527.014648438 597.749023438 527.166992188 c 128,-1,68
 576.053710938 527.319335938 576.053710938 527.319335938 564.220703125 527.100585938 c 128,-1,69
 552.387695312 526.881835938 552.387695312 526.881835938 532.265625 526.139648438 c 0,70,71
 523.986328125 525.833984375 523.986328125 525.833984375 520.286132812 525.713867188 c 0,72,73
 478.762695312 524.444335938 478.762695312 524.444335938 427.9765625 524.444335938 c 128,-1,74
 377.190429688 524.444335938 377.190429688 524.444335938 347.166992188 525.079101562 c 2,75,-1
 317.142578125 525.713867188 l 1,76,-1
 280 48.5712890625 l 1,77,-1
 482 44.857421875 l 1,78,79
 501.46484375 106.859375 501.46484375 106.859375 519.713867188 107.713867188 c 0,80,81
 529.805664062 108.198242188 529.805664062 108.198242188 535.122070312 105.418945312 c 128,-1,82
 540.438476562 102.638671875 540.438476562 102.638671875 540.669921875 97.029296875 c 128,-1,83
 540.901367188 91.419921875 540.901367188 91.419921875 539.958984375 86.9130859375 c 128,-1,84
 539.015625 82.4072265625 539.015625 82.4072265625 536.249023438 75.78125 c 128,-1,85
 533.482421875 69.1552734375 533.482421875 69.1552734375 533.142578125 68 c 0,86,87
 530.704101562 60.0029296875 530.704101562 60.0029296875 525.762695312 42.029296875 c 128,-1,88
 520.8203125 24.0556640625 520.8203125 24.0556640625 517.3046875 12.5888671875 c 128,-1,89
 513.790039062 1.123046875 513.790039062 1.123046875 508.934570312 -12.041015625 c 128,-1,90
 504.080078125 -25.205078125 504.080078125 -25.205078125 498.96875 -31.9501953125 c 128,-1,91
 493.858398438 -38.6943359375 493.858398438 -38.6943359375 488.571289062 -38.857421875 c 0,92,93
 472.444335938 -39.4921875 472.444335938 -39.4921875 467.373046875 -29.634765625 c 128,-1,94
 462.301757812 -19.7783203125 462.301757812 -19.7783203125 465.293945312 -9.603515625 c 2,95,-1
 468.286132812 0.5712890625 l 1,96,97
 417.891601562 3.71484375 417.891601562 3.71484375 362.857421875 4 c 2,98,-1
 133.428710938 0 l 2,99,100
 133.330078125 0 133.330078125 0 129.547851562 -0.380859375 c 128,-1,101
 125.765625 -0.7626953125 125.765625 -0.7626953125 121.276367188 -0.935546875 c 128,-1,102
 116.786132812 -1.1083984375 116.786132812 -1.1083984375 110.782226562 -1.029296875 c 128,-1,103
 104.778320312 -0.9501953125 104.778320312 -0.9501953125 99.421875 0.23046875 c 128,-1,104
 94.0654296875 1.4111328125 94.0654296875 1.4111328125 89.41796875 3.4599609375 c 128,-1,105
 84.7705078125 5.509765625 84.7705078125 5.509765625 82.125 9.552734375 c 128,-1,106
 79.48046875 13.5966796875 79.48046875 13.5966796875 79.7138671875 19.142578125 c 0,107,108
 79.7138671875 31.689453125 79.7138671875 31.689453125 84.5263671875 36.599609375 c 128,-1,109
 89.33984375 41.509765625 89.33984375 41.509765625 103.142578125 42.5712890625 c 2,110,-1
 190.571289062 46.2861328125 l 1,111,-1
 228.857421875 523.428710938 l 1,112,-1
 64 526.857421875 l 1,113,114
 46.8291015625 494.854492188 46.8291015625 494.854492188 32.2861328125 493.142578125 c 0,115,116
 -5.6630859375 488.96875 -5.6630859375 488.96875 32.2861328125 547.428710938 c 0,117,118
 36.0654296875 552.809570312 36.0654296875 552.809570312 45.533203125 570.725585938 c 0,119,120
 74.3017578125 625.163085938 74.3017578125 625.163085938 90.2060546875 625.650390625 c 0,121,122
 99.1796875 625.924804688 99.1796875 625.924804688 106.857421875 613.428710938 c 0,123,124
 109.524414062 608.857421875 109.524414062 608.857421875 105.23828125 597.428710938 c 128,-1,125
 100.952148438 586 100.952148438 586 95.3330078125 576.856445312 c 2,126,-1
 89.7138671875 567.713867188 l 1,0,1
EndSplineSet
Validated: 33
Substitution2: "'c2sc' Capitals to Small Capitals lookup 35 subtable" f.sc
Substitution2: "'aalt' Access All Alternates lookup 0 subtable" f.sc
Position2: "'cpsp' Capital Spacing lookup 0 subtable" dx=10 dy=0 dh=20 dv=0
EndChar

StartChar: G
Encoding: 71 71 73
Width: 800
GlyphClass: 2
Flags: W
LayerCount: 2
Fore
SplineSet
785.713867188 547.713867188 m 4,0,1
 785.713867188 537.637695312 785.713867188 537.637695312 781.928710938 526.319335938 c 132,-1,2
 778.143554688 515.000976562 778.143554688 515.000976562 767.967773438 499.015625 c 132,-1,3
 757.791992188 483.030273438 757.791992188 483.030273438 751.986328125 474.561523438 c 132,-1,4
 746.180664062 466.09375 746.180664062 466.09375 729.659179688 444.446289062 c 132,-1,5
 713.137695312 422.798828125 713.137695312 422.798828125 709.142578125 417.428710938 c 4,6,7
 676.639648438 373.875 676.639648438 373.875 634.631835938 334.235351562 c 132,-1,8
 592.624023438 294.595703125 592.624023438 294.595703125 543.557617188 260.190429688 c 132,-1,9
 494.4921875 225.784179688 494.4921875 225.784179688 452.739257812 199.638671875 c 132,-1,10
 410.986328125 173.493164062 410.986328125 173.493164062 354.328125 139.650390625 c 132,-1,11
 297.669921875 105.806640625 297.669921875 105.806640625 265.142578125 84.5712890625 c 4,12,13
 243.284179688 70.26953125 243.284179688 70.26953125 210.993164062 48.2265625 c 132,-1,14
 178.701171875 26.18359375 178.701171875 26.18359375 162.030273438 15.2470703125 c 132,-1,15
 145.359375 4.3115234375 145.359375 4.3115234375 123.98046875 -8.138671875 c 132,-1,16
 102.602539062 -20.5888671875 102.602539062 -20.5888671875 86.5380859375 -25.9638671875 c 132,-1,17
 70.474609375 -31.3388671875 70.474609375 -31.3388671875 55.4287109375 -32 c 4,18,19
 42.771484375 -32 42.771484375 -32 33.814453125 -23.04296875 c 132,-1,20
 24.857421875 -14.0849609375 24.857421875 -14.0849609375 24.857421875 -1.4287109375 c 5,21,22
 30.6328125 15.6142578125 30.6328125 15.6142578125 39.7138671875 31.142578125 c 4,23,24
 41.541015625 35.1455078125 41.541015625 35.1455078125 43.4970703125 47.6044921875 c 132,-1,25
 45.4521484375 60.0625 45.4521484375 60.0625 49.55078125 68.9677734375 c 132,-1,26
 53.6494140625 77.873046875 53.6494140625 77.873046875 62.2861328125 80.2861328125 c 4,27,28
 66.896484375 81.5859375 66.896484375 81.5859375 82.6611328125 78.361328125 c 132,-1,29
 98.42578125 75.13671875 98.42578125 75.13671875 107.713867188 78.2861328125 c 4,30,31
 116.110351562 81.4248046875 116.110351562 81.4248046875 169.595703125 98.09765625 c 132,-1,32
 223.080078125 114.76953125 223.080078125 114.76953125 248.286132812 125.713867188 c 4,33,34
 318.65234375 157.375976562 318.65234375 157.375976562 411.240234375 213.715820312 c 132,-1,35
 503.828125 270.0546875 503.828125 270.0546875 564.286132812 318 c 4,36,37
 593.008789062 344.1953125 593.008789062 344.1953125 627.248046875 386.471679688 c 132,-1,38
 661.487304688 428.747070312 661.487304688 428.747070312 681.142578125 462.286132812 c 4,39,40
 700.001953125 498.021484375 700.001953125 498.021484375 700.001953125 538.427734375 c 4,41,42
 700.001953125 538.748046875 700.001953125 538.748046875 700 539.142578125 c 4,43,44
 701.49609375 554.356445312 701.49609375 554.356445312 691.5390625 579.372070312 c 132,-1,45
 681.58203125 604.388671875 681.58203125 604.388671875 667.428710938 610.286132812 c 4,46,47
 643.46484375 617.755859375 643.46484375 617.755859375 618.364257812 617.755859375 c 4,48,49
 581.08203125 617.755859375 581.08203125 617.755859375 547.428710938 601.713867188 c 4,50,51
 530.510742188 593.138671875 530.510742188 593.138671875 511.68359375 573.033203125 c 132,-1,52
 492.857421875 552.926757812 492.857421875 552.926757812 492.857421875 540.571289062 c 4,53,54
 493.3671875 531.973632812 493.3671875 531.973632812 499.813476562 525.52734375 c 132,-1,55
 506.259765625 519.08203125 506.259765625 519.08203125 514.857421875 518.571289062 c 4,56,57
 523.553710938 518.571289062 523.553710938 518.571289062 528.530273438 524.732421875 c 132,-1,58
 533.5078125 530.892578125 533.5078125 530.892578125 535.334960938 538.28515625 c 132,-1,59
 537.163085938 545.678710938 537.163085938 545.678710938 543.405273438 551.838867188 c 132,-1,60
 549.6484375 558 549.6484375 558 560.571289062 558 c 4,61,62
 561.564453125 558.0703125 561.564453125 558.0703125 562.571289062 558.0703125 c 4,63,64
 574.400390625 558.0703125 574.400390625 558.0703125 582.771484375 549.69921875 c 132,-1,65
 591.142578125 541.328125 591.142578125 541.328125 591.142578125 529.499023438 c 4,66,67
 591.142578125 508.73828125 591.142578125 508.73828125 561.932617188 487.512695312 c 132,-1,68
 532.72265625 466.286132812 532.72265625 466.286132812 516.571289062 466.286132812 c 4,69,70
 498.658203125 466.286132812 498.658203125 466.286132812 486.060546875 474.8125 c 132,-1,71
 473.462890625 483.33984375 473.462890625 483.33984375 466.739257812 493.572265625 c 132,-1,72
 460.015625 503.803710938 460.015625 503.803710938 443.908203125 512.331054688 c 132,-1,73
 427.80078125 520.857421875 427.80078125 520.857421875 403.713867188 520.857421875 c 4,74,75
 358.834960938 519.2421875 358.834960938 519.2421875 315.428710938 507.713867188 c 4,76,77
 309.48828125 505.529296875 309.48828125 505.529296875 305.30078125 503.149414062 c 132,-1,78
 301.114257812 500.76953125 301.114257812 500.76953125 299.020507812 499.041015625 c 132,-1,79
 296.926757812 497.311523438 296.926757812 497.311523438 295.848632812 494.921875 c 132,-1,80
 294.771484375 492.532226562 294.771484375 492.532226562 294.639648438 491.49609375 c 132,-1,81
 294.5078125 490.459960938 294.5078125 490.459960938 294.682617188 488.217773438 c 132,-1,82
 294.857421875 485.9765625 294.857421875 485.9765625 294.857421875 485.713867188 c 4,83,84
 294.857421875 483.892578125 294.857421875 483.892578125 304.572265625 468.678710938 c 132,-1,85
 314.286132812 453.463867188 314.286132812 453.463867188 314.286132812 448.857421875 c 4,86,87
 314.286132812 434.991210938 314.286132812 434.991210938 302.60546875 426.486328125 c 132,-1,88
 290.924804688 417.98046875 290.924804688 417.98046875 280.251953125 415.990234375 c 132,-1,89
 269.579101562 414 269.579101562 414 260 414 c 4,90,91
 259.715820312 414 259.715820312 414 255.934570312 413.97265625 c 132,-1,92
 252.154296875 413.9453125 252.154296875 413.9453125 251.138671875 413.9765625 c 132,-1,93
 250.122070312 414.008789062 250.122070312 414.008789062 246.459960938 414.212890625 c 132,-1,94
 242.797851562 414.41796875 242.797851562 414.41796875 241.380859375 414.80859375 c 132,-1,95
 239.962890625 415.19921875 239.962890625 415.19921875 236.840820312 415.96875 c 132,-1,96
 233.719726562 416.73828125 233.719726562 416.73828125 232.322265625 417.821289062 c 132,-1,97
 230.924804688 418.904296875 230.924804688 418.904296875 228.764648438 420.5703125 c 132,-1,98
 226.60546875 422.237304688 226.60546875 422.237304688 225.650390625 424.344726562 c 132,-1,99
 224.6953125 426.451171875 224.6953125 426.451171875 223.918945312 429.348632812 c 132,-1,100
 223.142578125 432.245117188 223.142578125 432.245117188 223.142578125 435.713867188 c 4,101,102
 223.142578125 441.071289062 223.142578125 441.071289062 231.857421875 458.786132812 c 132,-1,103
 240.571289062 476.5 240.571289062 476.5 240.571289062 481.428710938 c 4,104,105
 240.571289062 495.379882812 240.571289062 495.379882812 219.421875 531.26171875 c 132,-1,106
 198.2734375 567.142578125 198.2734375 567.142578125 183.428710938 567.142578125 c 4,107,108
 165.002929688 567.142578125 165.002929688 567.142578125 142.970703125 534.907226562 c 132,-1,109
 120.9375 502.672851562 120.9375 502.672851562 117.713867188 488.571289062 c 4,110,111
 116.36328125 482.583007812 116.36328125 482.583007812 117.131835938 477.004882812 c 132,-1,112
 117.901367188 471.426757812 117.901367188 471.426757812 116.10546875 462.899414062 c 132,-1,113
 114.310546875 454.372070312 114.310546875 454.372070312 108.857421875 447.142578125 c 4,114,115
 90.5263671875 429.551757812 90.5263671875 429.551757812 65.142578125 428.571289062 c 4,116,117
 14.2861328125 428.571289062 14.2861328125 428.571289062 14.2861328125 464.286132812 c 4,118,119
 14.2861328125 474.127929688 14.2861328125 474.127929688 18.5205078125 478.760742188 c 132,-1,120
 22.7548828125 483.392578125 22.7548828125 483.392578125 33.9560546875 488.000976562 c 132,-1,121
 45.1572265625 492.610351562 45.1572265625 492.610351562 51.142578125 496.571289062 c 4,122,123
 65.7353515625 509.545898438 65.7353515625 509.545898438 81.390625 531.478515625 c 132,-1,124
 97.044921875 553.412109375 97.044921875 553.412109375 104.571289062 571.428710938 c 4,125,126
 111.356445312 582.711914062 111.356445312 582.711914062 119.986328125 600.224609375 c 132,-1,127
 128.616210938 617.736328125 128.616210938 617.736328125 132.8984375 624.530273438 c 132,-1,128
 137.1796875 631.323242188 137.1796875 631.323242188 146.682617188 637.233398438 c 132,-1,129
 156.186523438 643.142578125 156.186523438 643.142578125 170.286132812 643.142578125 c 4,130,131
 180.336914062 643.142578125 180.336914062 643.142578125 188.62109375 640.680664062 c 132,-1,132
 196.90625 638.21875 196.90625 638.21875 205.0859375 631.711914062 c 132,-1,133
 213.265625 625.205078125 213.265625 625.205078125 217.942382812 620.653320312 c 132,-1,134
 222.619140625 616.102539062 222.619140625 616.102539062 232.349609375 604.896484375 c 132,-1,135
 242.081054688 593.689453125 242.081054688 593.689453125 246.571289062 588.857421875 c 4,136,137
 271.310546875 561.905273438 271.310546875 561.905273438 308.107421875 558.786132812 c 132,-1,138
 344.903320312 555.666992188 344.903320312 555.666992188 429.428710938 566.857421875 c 4,139,140
 448.9921875 568.966796875 448.9921875 568.966796875 463.340820312 579.764648438 c 132,-1,141
 477.689453125 590.561523438 477.689453125 590.561523438 486.145507812 603.4765625 c 132,-1,142
 494.602539062 616.391601562 494.602539062 616.391601562 513.135742188 632.032226562 c 132,-1,143
 531.668945312 647.672851562 531.668945312 647.672851562 557.142578125 657.142578125 c 4,144,145
 582.296875 668.0703125 582.296875 668.0703125 609.713867188 668.571289062 c 4,146,147
 614.719726562 668.788085938 614.719726562 668.788085938 619.766601562 668.788085938 c 4,148,149
 647.172851562 668.788085938 647.172851562 668.788085938 683.0703125 658.594726562 c 132,-1,150
 718.96875 648.40234375 718.96875 648.40234375 742.286132812 634 c 4,151,152
 760.413085938 622.889648438 760.413085938 622.889648438 773.243164062 599.978515625 c 132,-1,153
 786.072265625 577.067382812 786.072265625 577.067382812 786.072265625 555.805664062 c 4,154,155
 786.072265625 551.744140625 786.072265625 551.744140625 785.713867188 547.713867188 c 4,0,1
EndSplineSet
Validated: 33
Substitution2: "'c2sc' Capitals to Small Capitals lookup 35 subtable" g.sc
Substitution2: "'aalt' Access All Alternates lookup 0 subtable" g.sc
Position2: "'cpsp' Capital Spacing lookup 0 subtable" dx=10 dy=0 dh=20 dv=0
EndChar

StartChar: uni01E4
Encoding: 484 484 80
Width: 672
Flags: W
LayerCount: 2
Fore
SplineSet
542 210 m 5,0,-1
 326 208 l 5,1,-1
 320 216 l 5,2,-1
 327 260 l 5,3,-1
 543 261 l 5,4,-1
 603 264 l 5,5,-1
 609 253 l 5,6,-1
 605 210 l 5,7,-1
 542 210 l 5,0,-1
EndSplineSet
Refer: 73 71 N 1 0 0 1 0 0 2
Substitution2: "'c2sc' Capitals to Small Capitals lookup 35 subtable" uni01E5.sc
Substitution2: "'aalt' Access All Alternates lookup 0 subtable" uni01E5.sc
EndChar

StartChar: H
Encoding: 72 72 81
Width: 718
GlyphClass: 2
Flags: W
LayerCount: 2
Fore
SplineSet
471.428710938 94.5712890625 m 0,0,1
 479.939453125 144.571289062 479.939453125 144.571289062 439.428710938 144.571289062 c 0,2,3
 425.439453125 144.571289062 425.439453125 144.571289062 409.862304688 126.795898438 c 128,-1,4
 394.286132812 109.021484375 394.286132812 109.021484375 394.286132812 95.7138671875 c 0,5,6
 397.256835938 81.814453125 397.256835938 81.814453125 409.311523438 70.5126953125 c 128,-1,7
 421.366210938 59.2119140625 421.366210938 59.2119140625 435.428710938 57.142578125 c 0,8,9
 448.545898438 57.142578125 448.545898438 57.142578125 458.723632812 69.4140625 c 128,-1,10
 468.90234375 81.685546875 468.90234375 81.685546875 471.428710938 94.5712890625 c 0,0,1
664 637.428710938 m 1,11,12
 669.546875 628.018554688 669.546875 628.018554688 686.059570312 610.734375 c 128,-1,13
 702.571289062 593.451171875 702.571289062 593.451171875 702.571289062 580.286132812 c 0,14,15
 702.571289062 571.295898438 702.571289062 571.295898438 696.208984375 564.93359375 c 128,-1,16
 689.846679688 558.571289062 689.846679688 558.571289062 680.857421875 558.571289062 c 0,17,18
 669.915039062 558.571289062 669.915039062 558.571289062 645.5625 575.986328125 c 128,-1,19
 621.209960938 593.401367188 621.209960938 593.401367188 616 594.571289062 c 0,20,21
 577.78515625 609.1953125 577.78515625 609.1953125 537.428710938 616 c 1,22,23
 488.415039062 613.375976562 488.415039062 613.375976562 440 605.428710938 c 0,24,25
 427.766601562 603.420898438 427.766601562 603.420898438 426.4453125 568.290039062 c 128,-1,26
 425.124023438 533.159179688 425.124023438 533.159179688 431.2578125 497.642578125 c 128,-1,27
 437.392578125 462.125 437.392578125 462.125 443.713867188 457.713867188 c 0,28,29
 448.5078125 454.369140625 448.5078125 454.369140625 463.069335938 462.427734375 c 128,-1,30
 477.630859375 470.486328125 477.630859375 470.486328125 504.64453125 482.143554688 c 128,-1,31
 531.659179688 493.80078125 531.659179688 493.80078125 560 496 c 0,32,33
 611.548828125 500.069335938 611.548828125 500.069335938 630.345703125 479.172851562 c 128,-1,34
 649.142578125 458.276367188 649.142578125 458.276367188 649.142578125 422.857421875 c 0,35,36
 649.142578125 374.185546875 649.142578125 374.185546875 586.857421875 288 c 0,37,38
 577.849609375 275.594726562 577.849609375 275.594726562 563.120117188 258.495117188 c 128,-1,39
 548.389648438 241.39453125 548.389648438 241.39453125 540.83203125 231.978515625 c 128,-1,40
 533.2734375 222.5625 533.2734375 222.5625 528.235351562 209.120117188 c 128,-1,41
 523.196289062 195.677734375 523.196289062 195.677734375 525.713867188 182.286132812 c 0,42,43
 527.0390625 174.924804688 527.0390625 174.924804688 531.611328125 160.821289062 c 128,-1,44
 536.18359375 146.716796875 536.18359375 146.716796875 538.96875 136.209960938 c 128,-1,45
 541.75390625 125.703125 541.75390625 125.703125 541.201171875 108.561523438 c 128,-1,46
 540.647460938 91.419921875 540.647460938 91.419921875 534.286132812 73.4287109375 c 0,47,48
 520.790039062 34.310546875 520.790039062 34.310546875 479.5078125 15.3017578125 c 128,-1,49
 438.224609375 -3.70703125 438.224609375 -3.70703125 404 0.857421875 c 0,50,51
 372.401367188 4.1064453125 372.401367188 4.1064453125 347.287109375 28.71875 c 128,-1,52
 322.171875 53.330078125 322.171875 53.330078125 318.286132812 84.857421875 c 0,53,54
 318.793945312 99.9814453125 318.793945312 99.9814453125 326.49609375 118.481445312 c 128,-1,55
 334.198242188 136.982421875 334.198242188 136.982421875 344.571289062 148 c 0,56,57
 361.135742188 166.431640625 361.135742188 166.431640625 389.096679688 186.104492188 c 128,-1,58
 417.056640625 205.77734375 417.056640625 205.77734375 440 215.142578125 c 0,59,60
 483.200195312 234.717773438 483.200195312 234.717773438 535.743164062 297.259765625 c 128,-1,61
 588.286132812 359.801757812 588.286132812 359.801757812 588.286132812 397.713867188 c 0,62,63
 587.620117188 417.916992188 587.620117188 417.916992188 573.053710938 434.66015625 c 128,-1,64
 558.48828125 451.40234375 558.48828125 451.40234375 538.571289062 454.857421875 c 0,65,66
 525.833007812 454.857421875 525.833007812 454.857421875 502.469726562 436.786132812 c 128,-1,67
 479.107421875 418.71484375 479.107421875 418.71484375 453.244140625 400.642578125 c 128,-1,68
 427.380859375 382.571289062 427.380859375 382.571289062 408.571289062 382.571289062 c 0,69,70
 407.643554688 382.529296875 407.643554688 382.529296875 406.6953125 382.529296875 c 0,71,72
 390.884765625 382.529296875 390.884765625 382.529296875 378.709960938 393.67578125 c 128,-1,73
 366.53515625 404.822265625 366.53515625 404.822265625 365.142578125 420.571289062 c 2,74,-1
 367.713867188 599.428710938 l 1,75,-1
 154.286132812 602 l 1,76,77
 151.141601562 516.196289062 151.141601562 516.196289062 150.571289062 470.286132812 c 2,78,-1
 150.571289062 309.713867188 l 1,79,80
 150.571289062 309.713867188 150.571289062 309.713867188 188.393554688 312.213867188 c 0,81,82
 211.58203125 310.685546875 211.58203125 310.685546875 209.713867188 298.857421875 c 0,83,84
 208.6796875 293.166015625 208.6796875 293.166015625 197.946289062 288.756835938 c 128,-1,85
 187.213867188 284.34765625 187.213867188 284.34765625 159.005859375 276.671875 c 128,-1,86
 130.797851562 268.99609375 130.797851562 268.99609375 113.142578125 263.142578125 c 0,87,88
 108.203125 261.51171875 108.203125 261.51171875 98.427734375 258.102539062 c 128,-1,89
 88.65234375 254.693359375 88.65234375 254.693359375 81.142578125 252.145507812 c 128,-1,90
 73.6318359375 249.59765625 73.6318359375 249.59765625 63.8369140625 246.455078125 c 128,-1,91
 54.04296875 243.313476562 54.04296875 243.313476562 46.681640625 241.533203125 c 128,-1,92
 39.3203125 239.751953125 39.3203125 239.751953125 32.3857421875 238.607421875 c 128,-1,93
 25.4501953125 237.461914062 25.4501953125 237.461914062 21.1171875 238.177734375 c 128,-1,94
 16.7841796875 238.893554688 16.7841796875 238.893554688 15.4287109375 241.428710938 c 0,95,96
 9.7138671875 251.713867188 9.7138671875 251.713867188 25.142578125 264.78515625 c 128,-1,97
 40.5712890625 277.856445312 40.5712890625 277.856445312 58.8564453125 285.78515625 c 2,98,-1
 77.142578125 293.713867188 l 1,99,100
 79.142578125 430.1015625 79.142578125 430.1015625 79.142578125 482 c 2,101,-1
 79.142578125 606.857421875 l 1,102,103
 73.703125 609.0703125 73.703125 609.0703125 65.6396484375 612.942382812 c 128,-1,104
 57.5771484375 616.814453125 57.5771484375 616.814453125 44.07421875 627.724609375 c 128,-1,105
 30.5712890625 638.634765625 30.5712890625 638.634765625 30.5712890625 648.286132812 c 0,106,107
 30.552734375 648.709960938 30.552734375 648.709960938 30.552734375 649.174804688 c 0,108,109
 30.552734375 657.809570312 30.552734375 657.809570312 36.6640625 663.920898438 c 128,-1,110
 42.7744140625 670.032226562 42.7744140625 670.032226562 51.4091796875 670.032226562 c 0,111,112
 51.984375 670.032226562 51.984375 670.032226562 52.5712890625 670 c 0,113,114
 67.478515625 668.360351562 67.478515625 668.360351562 85.009765625 653.323242188 c 128,-1,115
 102.541992188 638.286132812 102.541992188 638.286132812 112.286132812 638.286132812 c 0,116,117
 140.588867188 638.286132812 140.588867188 638.286132812 237.072265625 636.569335938 c 128,-1,118
 333.5546875 634.852539062 333.5546875 634.852539062 392.927734375 636.288085938 c 128,-1,119
 452.30078125 637.724609375 452.30078125 637.724609375 492.571289062 644.286132812 c 0,120,121
 507.641601562 646.75 507.641601562 646.75 520.776367188 659.25390625 c 128,-1,122
 533.91015625 671.7578125 533.91015625 671.7578125 541.68359375 684.911132812 c 128,-1,123
 549.45703125 698.063476562 549.45703125 698.063476562 560.838867188 707.798828125 c 128,-1,124
 572.220703125 717.533203125 572.220703125 717.533203125 584.857421875 715.713867188 c 0,125,126
 595.390625 714.19921875 595.390625 714.19921875 604.942382812 709.369140625 c 128,-1,127
 614.494140625 704.5390625 614.494140625 704.5390625 620.3671875 700.487304688 c 128,-1,128
 626.240234375 696.435546875 626.240234375 696.435546875 634.259765625 685.803710938 c 128,-1,129
 642.279296875 675.171875 642.279296875 675.171875 644.780273438 671.4296875 c 128,-1,130
 647.280273438 667.6875 647.280273438 667.6875 655.38671875 653.475585938 c 128,-1,131
 663.493164062 639.263671875 663.493164062 639.263671875 664.571289062 637.428710938 c 2,132,-1
 664 637.428710938 l 1,11,12
EndSplineSet
Validated: 33
Substitution2: "'c2sc' Capitals to Small Capitals lookup 35 subtable" h.sc
Substitution2: "'aalt' Access All Alternates lookup 0 subtable" h.sc
Position2: "'cpsp' Capital Spacing lookup 0 subtable" dx=10 dy=0 dh=20 dv=0
EndChar

StartChar: Hbar
Encoding: 294 294 82
Width: 748
GlyphClass: 2
Flags: W
AnchorPoint: "Anchor-17" 0 0 basechar 0
AnchorPoint: "Anchor-16" 368 324 basechar 0
AnchorPoint: "Anchor-15" 371 647 basechar 0
AnchorPoint: "Anchor-14" 0 0 basechar 0
AnchorPoint: "Anchor-13" 376 0 basechar 0
LayerCount: 2
Fore
SplineSet
40 516 m 1,0,-1
 30 525 l 1,1,-1
 38 568 l 1,2,-1
 547 572 l 1,3,-1
 560 558 l 1,4,-1
 556 518 l 1,5,-1
 40 516 l 1,0,-1
374 447 m 1,6,-1
 374 447 l 1,6,-1
EndSplineSet
Refer: 81 72 N 1 0 0 1 0 0 2
Substitution2: "'c2sc' Capitals to Small Capitals lookup 35 subtable" hbar.sc
Substitution2: "'aalt' Access All Alternates lookup 0 subtable" hbar.sc
Position2: "'cpsp' Capital Spacing lookup 0 subtable" dx=10 dy=0 dh=20 dv=0
EndChar

StartChar: I
Encoding: 73 73 87
Width: 520
GlyphClass: 2
Flags: W
LayerCount: 2
Fore
SplineSet
435.713867188 281.713867188 m 4,0,1
 412.555664062 289.365234375 412.555664062 289.365234375 410.963867188 305.857421875 c 132,-1,2
 409.373046875 322.349609375 409.373046875 322.349609375 424.571289062 363.428710938 c 4,3,4
 440.661132812 409.776367188 440.661132812 409.776367188 450.342773438 422.102539062 c 132,-1,5
 460.025390625 434.4296875 460.025390625 434.4296875 483.142578125 426.857421875 c 4,6,7
 491.323242188 424.232421875 491.323242188 424.232421875 496.64453125 421.395507812 c 132,-1,8
 501.96484375 418.559570312 501.96484375 418.559570312 504.412109375 413.676757812 c 132,-1,9
 506.859375 408.79296875 506.859375 408.79296875 507.99609375 405.4609375 c 132,-1,10
 509.1328125 402.127929688 509.1328125 402.127929688 507.467773438 393.79296875 c 132,-1,11
 505.802734375 385.458007812 505.802734375 385.458007812 504.474609375 380.749023438 c 132,-1,12
 503.146484375 376.040039062 503.146484375 376.040039062 499.087890625 363.374023438 c 132,-1,13
 495.029296875 350.708007812 495.029296875 350.708007812 492.857421875 343.428710938 c 4,14,15
 480.301757812 301.342773438 480.301757812 301.342773438 469.33203125 287.888671875 c 132,-1,16
 458.362304688 274.434570312 458.362304688 274.434570312 435.713867188 281.713867188 c 4,0,1
35.7138671875 283.142578125 m 4,17,18
 12.5556640625 290.79296875 12.5556640625 290.79296875 10.9638671875 307.28515625 c 132,-1,19
 9.373046875 323.77734375 9.373046875 323.77734375 24.5712890625 364.857421875 c 4,20,21
 40.6611328125 411.205078125 40.6611328125 411.205078125 50.3427734375 423.53125 c 132,-1,22
 60.025390625 435.858398438 60.025390625 435.858398438 83.142578125 428.286132812 c 4,23,24
 91.318359375 425.6015625 91.318359375 425.6015625 96.646484375 422.712890625 c 132,-1,25
 101.975585938 419.82421875 101.975585938 419.82421875 104.409179688 414.864257812 c 132,-1,26
 106.842773438 409.904296875 106.842773438 409.904296875 107.999023438 406.576171875 c 132,-1,27
 109.155273438 403.247070312 109.155273438 403.247070312 107.46484375 394.829101562 c 132,-1,28
 105.775390625 386.411132812 105.775390625 386.411132812 104.477539062 381.783203125 c 132,-1,29
 103.1796875 377.154296875 103.1796875 377.154296875 99.0849609375 364.418945312 c 132,-1,30
 94.9912109375 351.682617188 94.9912109375 351.682617188 92.857421875 344.571289062 c 4,31,32
 80.2587890625 302.576171875 80.2587890625 302.576171875 69.291015625 289.125 c 132,-1,33
 58.32421875 275.672851562 58.32421875 275.672851562 35.7138671875 283.142578125 c 4,17,18
60 327.713867188 m 5,34,-1
 446.571289062 327.713867188 l 5,35,-1
 468.571289062 384.857421875 l 5,36,-1
 85.142578125 384.857421875 l 5,37,-1
 60 327.713867188 l 5,34,-1
EndSplineSet
Validated: 37
Substitution2: "Single Substitution lookup 54 subtable" I.ss01
Substitution2: "'ss01' Style Set 1 lookup 44 subtable" I.ss01
Substitution2: "'c2sc' Capitals to Small Capitals lookup 35 subtable" i.sc
AlternateSubs2: "'aalt' Access All Alternates lookup 1 subtable" i.sc I.ss01
Position2: "'cpsp' Capital Spacing lookup 0 subtable" dx=10 dy=0 dh=20 dv=0
EndChar

StartChar: Iogonek
Encoding: 302 302 102
Width: 363
GlyphClass: 2
Flags: W
LayerCount: 2
Fore
SplineSet
357 156 m 1,0,1
 334 133 334 133 305.5 115.5 c 0,2,3
 277 98 277 98 254 91 c 1,4,5
 204 91 204 91 172.5 117 c 0,6,7
 141 143 141 143 141 184 c 0,8,9
 141 205 141 205 148 222.5 c 0,10,11
 155 240 155 240 174 265 c 0,12,13
 193 290 193 290 233 332 c 1,14,-1
 286 331 l 1,15,16
 245 283 245 283 230.5 257.5 c 0,17,18
 216 232 216 232 216 209 c 256,19,20
 216 186 216 186 229.5 172.5 c 0,21,22
 243 159 243 159 267 159 c 0,23,24
 283 159 283 159 303.5 165.5 c 0,25,26
 324 172 324 172 340 182 c 1,27,-1
 357 156 l 1,0,1
EndSplineSet
Refer: 87 73 N 1 0 0 1 0 0 2
Substitution2: "'c2sc' Capitals to Small Capitals lookup 35 subtable" iogonek.sc
Substitution2: "'aalt' Access All Alternates lookup 0 subtable" iogonek.sc
Position2: "'cpsp' Capital Spacing lookup 0 subtable" dx=10 dy=0 dh=20 dv=0
EndChar

StartChar: J
Encoding: 74 74 104
Width: 516
GlyphClass: 2
Flags: W
LayerCount: 2
Fore
SplineSet
273.286132812 652.286132812 m 1,0,1
 289.131835938 637.202148438 289.131835938 637.202148438 313.581054688 613.245117188 c 128,-1,2
 338.029296875 589.288085938 338.029296875 589.288085938 386.133789062 537.231445312 c 128,-1,3
 434.23828125 485.173828125 434.23828125 485.173828125 449.857421875 459.142578125 c 0,4,5
 470.999023438 425.83203125 470.999023438 425.83203125 485.9609375 374.334960938 c 128,-1,6
 500.922851562 322.836914062 500.922851562 322.836914062 500.922851562 283.3828125 c 0,7,8
 500.922851562 245.180664062 500.922851562 245.180664062 492.142578125 208 c 0,9,10
 481.823242188 157.076171875 481.823242188 157.076171875 442.811523438 102.411132812 c 128,-1,11
 403.80078125 47.7451171875 403.80078125 47.7451171875 359 21.4287109375 c 0,12,13
 315.498046875 0.013671875 315.498046875 0.013671875 267.010742188 0.013671875 c 0,14,15
 249.75 0.013671875 249.75 0.013671875 232.713867188 2.857421875 c 0,16,17
 213.79296875 6.5400390625 213.79296875 6.5400390625 175.5078125 26.6826171875 c 128,-1,18
 137.221679688 46.8251953125 137.221679688 46.8251953125 108.396484375 65.126953125 c 2,19,-1
 79.5712890625 83.4287109375 l 1,20,21
 74.9287109375 80.2294921875 74.9287109375 80.2294921875 67.728515625 75.5576171875 c 128,-1,22
 60.52734375 70.8857421875 60.52734375 70.8857421875 46.0810546875 63.5859375 c 128,-1,23
 31.634765625 56.2861328125 31.634765625 56.2861328125 26.4287109375 57.4287109375 c 0,24,25
 12.9833984375 61.2392578125 12.9833984375 61.2392578125 11.5712890625 75.142578125 c 0,26,27
 11.5712890625 98.53515625 11.5712890625 98.53515625 89.857421875 150.286132812 c 0,28,29
 130.06640625 181.4921875 130.06640625 181.4921875 173.857421875 207.428710938 c 1,30,31
 184.932617188 207.428710938 184.932617188 207.428710938 195.251953125 200.126953125 c 128,-1,32
 205.571289062 192.82421875 205.571289062 192.82421875 205.571289062 184.571289062 c 1,33,34
 184.349609375 161.416015625 184.349609375 161.416015625 159 142.857421875 c 1,35,36
 176.751953125 124.795898438 176.751953125 124.795898438 205.717773438 104.788085938 c 128,-1,37
 234.682617188 84.7802734375 234.682617188 84.7802734375 257.857421875 74.5712890625 c 0,38,39
 302.333007812 60.4267578125 302.333007812 60.4267578125 338.678710938 66.78515625 c 128,-1,40
 375.024414062 73.14453125 375.024414062 73.14453125 390.142578125 91.142578125 c 0,41,42
 433.622070312 140.55078125 433.622070312 140.55078125 429 248.571289062 c 0,43,44
 427 291.69140625 427 291.69140625 400.161132812 341.955078125 c 128,-1,45
 373.322265625 392.219726562 373.322265625 392.219726562 336.447265625 433.155273438 c 128,-1,46
 299.571289062 474.090820312 299.571289062 474.090820312 262.981445312 508.8671875 c 128,-1,47
 226.391601562 543.643554688 226.391601562 543.643554688 200.981445312 563.107421875 c 2,48,-1
 175.571289062 582.571289062 l 2,49,50
 173.4453125 581.237304688 173.4453125 581.237304688 169.837890625 579.140625 c 128,-1,51
 166.23046875 577.04296875 166.23046875 577.04296875 156.475585938 572.458984375 c 128,-1,52
 146.719726562 567.875976562 146.719726562 567.875976562 138.541992188 565.42578125 c 128,-1,53
 130.364257812 562.975585938 130.364257812 562.975585938 121.887695312 563.544921875 c 128,-1,54
 113.411132812 564.114257812 113.411132812 564.114257812 109.571289062 569.713867188 c 0,55,56
 88.119140625 601.176757812 88.119140625 601.176757812 179 652.857421875 c 0,57,58
 180.413085938 653.665039062 180.413085938 653.665039062 211.6484375 676.216796875 c 128,-1,59
 242.884765625 698.768554688 242.884765625 698.768554688 267.11328125 709.973632812 c 128,-1,60
 291.341796875 721.1796875 291.341796875 721.1796875 301.286132812 712 c 0,61,62
 310.153320312 700.645507812 310.153320312 700.645507812 303.931640625 687.375976562 c 128,-1,63
 297.708984375 674.106445312 297.708984375 674.106445312 285.498046875 663.196289062 c 2,64,-1
 273.286132812 652.286132812 l 1,0,1
EndSplineSet
Validated: 33
Substitution2: "'c2sc' Capitals to Small Capitals lookup 35 subtable" j.sc
Substitution2: "'aalt' Access All Alternates lookup 0 subtable" j.sc
Position2: "'cpsp' Capital Spacing lookup 0 subtable" dx=10 dy=0 dh=20 dv=0
EndChar

StartChar: K
Encoding: 75 75 106
Width: 314
GlyphClass: 2
Flags: W
LayerCount: 2
Fore
SplineSet
67.857421875 -44.2861328125 m 1,0,1
 31.68359375 -44.2861328125 31.68359375 -44.2861328125 23.607421875 -17.5361328125 c 128,-1,2
 15.5302734375 9.21484375 15.5302734375 9.21484375 46.4287109375 48.857421875 c 0,3,4
 60.9052734375 66.4765625 60.9052734375 66.4765625 108.127929688 116.8046875 c 128,-1,5
 155.350585938 167.133789062 155.350585938 167.133789062 187.77734375 205.099609375 c 128,-1,6
 220.203125 243.065429688 220.203125 243.065429688 219.571289062 253.428710938 c 0,7,8
 218.883789062 264.6953125 218.883789062 264.6953125 149.232421875 330.060546875 c 128,-1,9
 79.5810546875 395.426757812 79.5810546875 395.426757812 79.2861328125 408.857421875 c 0,10,11
 79.0419921875 419.932617188 79.0419921875 419.932617188 109.833984375 445.530273438 c 128,-1,12
 140.625 471.126953125 140.625 471.126953125 172.833007812 496.184570312 c 128,-1,13
 205.041015625 521.243164062 205.041015625 521.243164062 207 530 c 0,14,15
 209.920898438 542.698242188 209.920898438 542.698242188 173.706054688 587.413085938 c 128,-1,16
 137.4921875 632.126953125 137.4921875 632.126953125 99.8173828125 670.4921875 c 2,17,-1
 62.142578125 708.857421875 l 2,18,19
 61.3720703125 708.182617188 61.3720703125 708.182617188 60.072265625 707.095703125 c 128,-1,20
 58.771484375 706.0078125 58.771484375 706.0078125 54.6025390625 702.669921875 c 128,-1,21
 50.43359375 699.33203125 50.43359375 699.33203125 46.849609375 696.870117188 c 128,-1,22
 43.265625 694.408203125 43.265625 694.408203125 37.9267578125 690.984375 c 128,-1,23
 32.587890625 687.561523438 32.587890625 687.561523438 28.9482421875 686.303710938 c 128,-1,24
 25.3095703125 685.046875 25.3095703125 685.046875 21.0302734375 684.1171875 c 128,-1,25
 16.7509765625 683.1875 16.7509765625 683.1875 15.2861328125 685.713867188 c 0,26,27
 6.7412109375 694.521484375 6.7412109375 694.521484375 32.48828125 722.609375 c 128,-1,28
 58.234375 750.697265625 58.234375 750.697265625 90.2734375 773.771484375 c 128,-1,29
 122.313476562 796.844726562 122.313476562 796.844726562 129.571289062 793.713867188 c 0,30,31
 138.375 787.713867188 138.375 787.713867188 134.8203125 778.380859375 c 128,-1,32
 131.264648438 769.046875 131.264648438 769.046875 122.41796875 760.380859375 c 2,33,-1
 113.571289062 751.713867188 l 1,34,35
 121.001953125 745.34765625 121.001953125 745.34765625 133.344726562 734.545898438 c 128,-1,36
 145.6875 723.744140625 145.6875 723.744140625 177.3046875 694.54296875 c 128,-1,37
 208.920898438 665.342773438 208.920898438 665.342773438 233.17578125 640.873046875 c 128,-1,38
 257.430664062 616.404296875 257.430664062 616.404296875 277.546875 591.065429688 c 128,-1,39
 297.663085938 565.725585938 297.663085938 565.725585938 298.142578125 554.286132812 c 0,40,41
 298.879882812 536.73046875 298.879882812 536.73046875 268.17578125 508.149414062 c 128,-1,42
 237.47265625 479.567382812 237.47265625 479.567382812 206.205078125 454.327148438 c 128,-1,43
 174.938476562 429.086914062 174.938476562 429.086914062 174.713867188 420 c 128,-1,44
 174.486328125 410.791015625 174.486328125 410.791015625 206.303710938 381.422851562 c 128,-1,45
 238.120117188 352.053710938 238.120117188 352.053710938 269.88671875 319.625 c 128,-1,46
 301.65234375 287.196289062 301.65234375 287.196289062 301.286132812 270.571289062 c 128,-1,47
 300.916992188 253.850585938 300.916992188 253.850585938 248.127929688 196.733398438 c 128,-1,48
 195.33984375 139.6171875 195.33984375 139.6171875 141.491210938 84.98046875 c 128,-1,49
 87.642578125 30.3427734375 87.642578125 30.3427734375 85.857421875 20.857421875 c 0,50,51
 84.3662109375 12.9375 84.3662109375 12.9375 89.80859375 -5.8603515625 c 128,-1,52
 95.2509765625 -24.6591796875 95.2509765625 -24.6591796875 92.0966796875 -35.1865234375 c 128,-1,53
 88.94140625 -45.7138671875 88.94140625 -45.7138671875 68.4287109375 -45.7138671875 c 1,54,-1
 67.857421875 -44.2861328125 l 1,0,1
EndSplineSet
Validated: 33
Substitution2: "'c2sc' Capitals to Small Capitals lookup 35 subtable" k.sc
Substitution2: "'aalt' Access All Alternates lookup 0 subtable" k.sc
Position2: "'cpsp' Capital Spacing lookup 0 subtable" dx=10 dy=0 dh=20 dv=0
EndChar

StartChar: L
Encoding: 76 76 109
Width: 422
GlyphClass: 2
Flags: W
LayerCount: 2
Fore
SplineSet
356.713867188 761.428710938 m 0,0,1
 343.380859375 747.333007812 343.380859375 747.333007812 313.666015625 721.975585938 c 128,-1,2
 283.952148438 696.619140625 283.952148438 696.619140625 260.905273438 678.309570312 c 2,3,-1
 237.857421875 660 l 1,4,-1
 224.713867188 464 l 1,5,6
 282.116210938 481.56640625 282.116210938 481.56640625 315.536132812 473 c 128,-1,7
 348.955078125 464.43359375 348.955078125 464.43359375 345.286132812 434 c 0,8,9
 341.446289062 403.040039062 341.446289062 403.040039062 325.671875 366.931640625 c 128,-1,10
 309.8984375 330.822265625 309.8984375 330.822265625 290.12890625 301.40234375 c 128,-1,11
 270.360351562 271.982421875 270.360351562 271.982421875 251.139648438 246.986328125 c 128,-1,12
 231.918945312 221.989257812 231.918945312 221.989257812 218.888671875 207.994140625 c 2,13,-1
 205.857421875 194 l 1,14,-1
 191.286132812 35.4287109375 l 1,15,-1
 334.142578125 52.5712890625 l 1,16,17
 358.013671875 77.10546875 358.013671875 77.10546875 391.286132812 85.142578125 c 0,18,19
 404.240234375 85.142578125 404.240234375 85.142578125 407.857421875 75.75 c 128,-1,20
 411.474609375 66.357421875 411.474609375 66.357421875 403 53.7138671875 c 0,21,22
 399.427734375 48.4375 399.427734375 48.4375 392.138671875 37.3447265625 c 128,-1,23
 384.849609375 26.251953125 384.849609375 26.251953125 380.3828125 19.6865234375 c 128,-1,24
 375.915039062 13.12109375 375.915039062 13.12109375 369.063476562 3.513671875 c 128,-1,25
 362.211914062 -6.0927734375 362.211914062 -6.0927734375 357.012695312 -11.8701171875 c 128,-1,26
 351.8125 -17.646484375 351.8125 -17.646484375 345.728515625 -23.4599609375 c 128,-1,27
 339.64453125 -29.2724609375 339.64453125 -29.2724609375 334.041992188 -31.951171875 c 128,-1,28
 328.439453125 -34.630859375 328.439453125 -34.630859375 323.286132812 -34.5712890625 c 0,29,30
 312.23828125 -34.4443359375 312.23828125 -34.4443359375 310.952148438 -21.73046875 c 128,-1,31
 309.666992188 -9.015625 309.666992188 -9.015625 313.904296875 3.634765625 c 2,32,-1
 318.142578125 16.2861328125 l 1,33,-1
 27.2861328125 -32.5712890625 l 2,34,35
 12.6962890625 -35.0322265625 12.6962890625 -35.0322265625 13.060546875 -18.4521484375 c 0,36,37
 13.513671875 2.1396484375 13.513671875 2.1396484375 28.9287109375 8.6787109375 c 0,38,39
 30.6484375 9.4091796875 30.6484375 9.4091796875 32.4287109375 9.7138671875 c 2,40,-1
 118.142578125 23.7138671875 l 1,41,-1
 138.713867188 268.571289062 l 1,42,43
 193.251953125 255.859375 193.251953125 255.859375 236.728515625 294.842773438 c 128,-1,44
 280.205078125 333.826171875 280.205078125 333.826171875 288.142578125 391.428710938 c 0,45,46
 291.3203125 414.126953125 291.3203125 414.126953125 279.87109375 424.280273438 c 128,-1,47
 268.421875 434.43359375 268.421875 434.43359375 240.142578125 428.286132812 c 0,48,49
 219.061523438 422.979492188 219.061523438 422.979492188 192.356445312 409.333984375 c 128,-1,50
 165.651367188 395.688476562 165.651367188 395.688476562 149 381.713867188 c 1,51,-1
 165 622.857421875 l 1,52,53
 137.323242188 612.642578125 137.323242188 612.642578125 107.857421875 611.142578125 c 0,54,55
 103.711914062 611.142578125 103.711914062 611.142578125 101.515625 616.912109375 c 128,-1,56
 99.318359375 622.681640625 99.318359375 622.681640625 102.104492188 630.23046875 c 128,-1,57
 104.889648438 637.778320312 104.889648438 637.778320312 113.286132812 641.713867188 c 0,58,59
 169.778320312 668.252929688 169.778320312 668.252929688 209.854492188 693.35546875 c 128,-1,60
 249.930664062 718.458007812 249.930664062 718.458007812 265.864257812 733.497070312 c 128,-1,61
 281.797851562 748.536132812 281.797851562 748.536132812 297.184570312 762.275390625 c 128,-1,62
 312.571289062 776.014648438 312.571289062 776.014648438 325.286132812 782.286132812 c 0,63,64
 336.955078125 789.224609375 336.955078125 789.224609375 354.453125 782.446289062 c 0,65,66
 370.708984375 776.150390625 370.708984375 776.150390625 356.713867188 761.428710938 c 0,0,1
EndSplineSet
Validated: 33
Substitution2: "Single Substitution lookup 54 subtable" L.ss01
Substitution2: "'ss01' Style Set 1 lookup 44 subtable" L.ss01
Substitution2: "'c2sc' Capitals to Small Capitals lookup 35 subtable" l.sc
AlternateSubs2: "'aalt' Access All Alternates lookup 1 subtable" l.sc L.ss01
Position2: "'cpsp' Capital Spacing lookup 0 subtable" dx=10 dy=0 dh=20 dv=0
EndChar

StartChar: Lcaron
Encoding: 317 317 112
Width: 520
GlyphClass: 2
Flags: W
AnchorPoint: "Anchor-17" 0 0 basechar 0
AnchorPoint: "Anchor-16" 0 0 basechar 0
AnchorPoint: "Anchor-15" 190 647 basechar 0
AnchorPoint: "Anchor-14" 0 0 basechar 0
AnchorPoint: "Anchor-13" 287 0 basechar 0
LayerCount: 2
Fore
SplineSet
350 487 m 5,0,1
 351 504 351 504 351 538 c 4,2,3
 351 625 351 625 343 709 c 5,4,-1
 427 723 l 5,5,-1
 434 714 l 5,6,7
 419 599 419 599 397 500 c 5,8,-1
 363 484 l 5,9,-1
 350 487 l 5,0,1
EndSplineSet
Refer: 109 76 N 1 0 0 1 0 0 2
Substitution2: "'c2sc' Capitals to Small Capitals lookup 35 subtable" lcaron.sc
Substitution2: "'aalt' Access All Alternates lookup 0 subtable" lcaron.sc
Position2: "'cpsp' Capital Spacing lookup 0 subtable" dx=10 dy=0 dh=20 dv=0
EndChar

StartChar: Lslash
Encoding: 321 321 118
Width: 557
GlyphClass: 2
Flags: W
AnchorPoint: "Anchor-17" 0 0 basechar 0
AnchorPoint: "Anchor-16" 0 0 basechar 0
AnchorPoint: "Anchor-15" 195 647 basechar 0
AnchorPoint: "Anchor-14" 0 0 basechar 0
AnchorPoint: "Anchor-13" 292 0 basechar 0
LayerCount: 2
Fore
SplineSet
71 261 m 5,0,-1
 62 264 l 5,1,-1
 52 309 l 5,2,-1
 398 471 l 5,3,-1
 406 467 l 5,4,-1
 416 423 l 5,5,-1
 71 261 l 5,0,-1
EndSplineSet
Refer: 109 76 S 1 0 0 1 0 0 2
Substitution2: "'c2sc' Capitals to Small Capitals lookup 35 subtable" lslash.sc
Substitution2: "'aalt' Access All Alternates lookup 0 subtable" lslash.sc
Position2: "'cpsp' Capital Spacing lookup 0 subtable" dx=10 dy=0 dh=20 dv=0
EndChar

StartChar: M
Encoding: 77 77 119
Width: 705
GlyphClass: 2
Flags: W
LayerCount: 2
Fore
SplineSet
166.286132812 714.286132812 m 0,0,1
 203.286132812 714.286132812 203.286132812 714.286132812 218.116210938 709.588867188 c 128,-1,2
 232.946289062 704.892578125 232.946289062 704.892578125 246.857421875 683.428710938 c 0,3,4
 261.017578125 661.4296875 261.017578125 661.4296875 272.522460938 639.606445312 c 128,-1,5
 284.02734375 617.782226562 284.02734375 617.782226562 297.001953125 590.96484375 c 128,-1,6
 309.975585938 564.146484375 309.975585938 564.146484375 320 545.428710938 c 1,7,8
 329.953125 535.866210938 329.953125 535.866210938 343.75390625 535.866210938 c 0,9,10
 359.194335938 535.866210938 359.194335938 535.866210938 369.428710938 547.428710938 c 0,11,12
 492.65625 708.02734375 492.65625 708.02734375 522.857421875 714.286132812 c 0,13,14
 557.0078125 717.274414062 557.0078125 717.274414062 591.286132812 717.274414062 c 128,-1,15
 625.563476562 717.274414062 625.563476562 717.274414062 659.713867188 714.286132812 c 0,16,17
 667.958984375 713.131835938 667.958984375 713.131835938 676.624023438 712.961914062 c 128,-1,18
 685.2890625 712.791992188 685.2890625 712.791992188 687.697265625 712.409179688 c 128,-1,19
 690.10546875 712.025390625 690.10546875 712.025390625 691.767578125 709.559570312 c 128,-1,20
 693.428710938 707.094726562 693.428710938 707.094726562 693.428710938 700.571289062 c 0,21,22
 693.428710938 681.486328125 693.428710938 681.486328125 678.021484375 675.258789062 c 128,-1,23
 662.614257812 669.03125 662.614257812 669.03125 646.360351562 672.168945312 c 128,-1,24
 630.106445312 675.306640625 630.106445312 675.306640625 620.286132812 672 c 1,25,26
 620.286132812 214.857421875 620.286132812 214.857421875 607.713867188 145.713867188 c 0,27,28
 600.87109375 109.692382812 600.87109375 109.692382812 530.286132812 111.428710938 c 0,29,30
 522.447265625 111.62109375 522.447265625 111.62109375 508.364257812 110.905273438 c 128,-1,31
 494.28125 110.188476562 494.28125 110.188476562 484.86328125 110.087890625 c 128,-1,32
 475.4453125 109.986328125 475.4453125 109.986328125 465.616210938 111.147460938 c 128,-1,33
 455.788085938 112.307617188 455.788085938 112.307617188 451.098632812 116.775390625 c 128,-1,34
 446.409179688 121.243164062 446.409179688 121.243164062 447.142578125 129.142578125 c 0,35,36
 447.98046875 138.17578125 447.98046875 138.17578125 459.178710938 142.162109375 c 128,-1,37
 470.376953125 146.147460938 470.376953125 146.147460938 483.615234375 147.1015625 c 128,-1,38
 496.854492188 148.056640625 496.854492188 148.056640625 509.125976562 156.259765625 c 128,-1,39
 521.396484375 164.463867188 521.396484375 164.463867188 524 180.857421875 c 0,40,41
 531.1484375 227.44921875 531.1484375 227.44921875 534.635742188 297.349609375 c 128,-1,42
 538.122070312 367.250976562 538.122070312 367.250976562 540.126953125 462.5546875 c 128,-1,43
 542.130859375 557.858398438 542.130859375 557.858398438 543.713867188 595.428710938 c 2,44,-1
 543.713867188 674 l 1,45,46
 526.798828125 666.124023438 526.798828125 666.124023438 507.04296875 649.883789062 c 128,-1,47
 487.286132812 633.642578125 487.286132812 633.642578125 476.286132812 618.571289062 c 0,48,49
 457.05859375 595.416992188 457.05859375 595.416992188 398.663085938 518.916015625 c 128,-1,50
 340.267578125 442.415039062 340.267578125 442.415039062 320 418.571289062 c 0,51,52
 314.000976562 410.571289062 314.000976562 410.571289062 304 410.571289062 c 128,-1,53
 293.999023438 410.571289062 293.999023438 410.571289062 288 418.571289062 c 2,54,-1
 164.286132812 658.857421875 l 1,55,56
 162.27734375 353.723632812 162.27734375 353.723632812 158 67.4287109375 c 0,57,58
 158 37.5439453125 158 37.5439453125 183.025390625 32.75 c 0,59,60
 210.657226562 27.45703125 210.657226562 27.45703125 228.375 57.908203125 c 0,61,62
 233.165039062 66.1416015625 233.165039062 66.1416015625 236 76.2861328125 c 0,63,64
 241.5546875 95.1220703125 241.5546875 95.1220703125 242.213867188 113.928710938 c 128,-1,65
 242.874023438 132.734375 242.874023438 132.734375 236 139.142578125 c 0,66,67
 216 150.572265625 216 150.572265625 216 173.142578125 c 0,68,69
 216 213.713867188 216 213.713867188 252 213.713867188 c 0,70,71
 276.736328125 213.713867188 276.736328125 213.713867188 283.864257812 191.176757812 c 128,-1,72
 290.991210938 168.639648438 290.991210938 168.639648438 290.286132812 113.142578125 c 0,73,74
 289.278320312 33.89453125 289.278320312 33.89453125 198.286132812 -20.5712890625 c 0,75,76
 175.780273438 -36.8837890625 175.780273438 -36.8837890625 147.983398438 -36.8837890625 c 0,77,78
 121.555664062 -36.8837890625 121.555664062 -36.8837890625 99.7138671875 -22 c 0,79,80
 87.7685546875 -14.5673828125 87.7685546875 -14.5673828125 82.3486328125 4.2646484375 c 128,-1,81
 76.9296875 23.095703125 76.9296875 23.095703125 77.365234375 45.2587890625 c 128,-1,82
 77.80078125 67.4228515625 77.80078125 67.4228515625 78.2861328125 92.2861328125 c 0,83,84
 80.3173828125 144.984375 80.3173828125 144.984375 82.9609375 289.198242188 c 128,-1,85
 85.603515625 433.413085938 85.603515625 433.413085938 87.23046875 551.27734375 c 2,86,-1
 88.857421875 669.142578125 l 2,87,88
 87.859375 669.026367188 87.859375 669.026367188 86.1171875 668.848632812 c 128,-1,89
 84.3740234375 668.671875 84.3740234375 668.671875 79.033203125 668.286132812 c 128,-1,90
 73.6923828125 667.901367188 73.6923828125 667.901367188 68.5048828125 667.708984375 c 128,-1,91
 63.318359375 667.517578125 63.318359375 667.517578125 56.2666015625 667.602539062 c 128,-1,92
 49.2158203125 667.6875 49.2158203125 667.6875 43.162109375 668.206054688 c 128,-1,93
 37.1083984375 668.724609375 37.1083984375 668.724609375 30.923828125 670.004882812 c 128,-1,94
 24.73828125 671.284179688 24.73828125 671.284179688 20.3955078125 673.237304688 c 128,-1,95
 16.0517578125 675.190429688 16.0517578125 675.190429688 13.3115234375 678.388671875 c 128,-1,96
 10.5712890625 681.586914062 10.5712890625 681.586914062 10.5712890625 685.713867188 c 0,97,98
 10.6923828125 693.729492188 10.6923828125 693.729492188 13.798828125 699.096679688 c 128,-1,99
 16.9052734375 704.46484375 16.9052734375 704.46484375 23.099609375 707.622070312 c 128,-1,100
 29.29296875 710.779296875 29.29296875 710.779296875 38.6318359375 712.34375 c 128,-1,101
 47.970703125 713.907226562 47.970703125 713.907226562 60.5576171875 714.315429688 c 128,-1,102
 73.1435546875 714.724609375 73.1435546875 714.724609375 89.03515625 714.59375 c 128,-1,103
 104.92578125 714.463867188 104.92578125 714.463867188 124.224609375 714.232421875 c 128,-1,104
 143.522460938 714.000976562 143.522460938 714.000976562 166.286132812 714.286132812 c 0,0,1
EndSplineSet
Validated: 33
Substitution2: "Single Substitution lookup 54 subtable" M.ss01
Substitution2: "'ss01' Style Set 1 lookup 44 subtable" M.ss01
Substitution2: "'c2sc' Capitals to Small Capitals lookup 35 subtable" m.sc
AlternateSubs2: "'aalt' Access All Alternates lookup 1 subtable" m.sc M.ss01
Position2: "'cpsp' Capital Spacing lookup 0 subtable" dx=10 dy=0 dh=20 dv=0
EndChar

StartChar: N
Encoding: 78 78 121
Width: 732
GlyphClass: 2
Flags: W
LayerCount: 2
Fore
SplineSet
317.428710938 462.857421875 m 1,0,1
 335.178710938 462.857421875 335.178710938 462.857421875 403.25 458.142578125 c 128,-1,2
 471.321289062 453.428710938 471.321289062 453.428710938 473.428710938 453.428710938 c 0,3,4
 478.536132812 453.428710938 478.536132812 453.428710938 524.46484375 458.142578125 c 128,-1,5
 570.392578125 462.857421875 570.392578125 462.857421875 573.142578125 462.857421875 c 0,6,7
 593.349609375 462.857421875 593.349609375 462.857421875 614.831054688 458.783203125 c 128,-1,8
 636.3125 454.708984375 636.3125 454.708984375 659.69140625 445.422851562 c 128,-1,9
 683.0703125 436.135742188 683.0703125 436.135742188 699.268554688 417.014648438 c 128,-1,10
 715.466796875 397.89453125 715.466796875 397.89453125 718.286132812 371.713867188 c 0,11,12
 719.555664062 358.294921875 719.555664062 358.294921875 719.555664062 344.801757812 c 0,13,14
 719.555664062 308.685546875 719.555664062 308.685546875 710.571289062 273.713867188 c 0,15,16
 707.078125 253.0859375 707.078125 253.0859375 696.784179688 237.538085938 c 128,-1,17
 686.489257812 221.989257812 686.489257812 221.989257812 669.596679688 213.090820312 c 128,-1,18
 652.703125 204.19140625 652.703125 204.19140625 637.436523438 198.590820312 c 128,-1,19
 622.169921875 192.990234375 622.169921875 192.990234375 599.377929688 190.924804688 c 128,-1,20
 576.5859375 188.859375 576.5859375 188.859375 564.47265625 188.400390625 c 128,-1,21
 552.358398438 187.940429688 552.358398438 187.940429688 532.416992188 187.989257812 c 0,22,23
 528.247070312 188 528.247070312 188 526.286132812 188 c 0,24,25
 523.142578125 188 523.142578125 188 431.428710938 197.428710938 c 128,-1,26
 339.71484375 206.857421875 339.71484375 206.857421875 336.571289062 206.857421875 c 0,27,28
 335.892578125 206.857421875 335.892578125 206.857421875 281.825195312 208.040039062 c 128,-1,29
 227.7578125 209.223632812 227.7578125 209.223632812 172.080078125 210.150390625 c 128,-1,30
 116.401367188 211.077148438 116.401367188 211.077148438 106.286132812 210.571289062 c 0,31,32
 99.326171875 210.571289062 99.326171875 210.571289062 85.8603515625 209.629882812 c 128,-1,33
 72.3935546875 208.688476562 72.3935546875 208.688476562 64.6220703125 208.606445312 c 128,-1,34
 56.8505859375 208.525390625 56.8505859375 208.525390625 45.8955078125 211.24609375 c 128,-1,35
 34.9404296875 213.967773438 34.9404296875 213.967773438 25.7138671875 220.286132812 c 0,36,37
 9.6005859375 231.638671875 9.6005859375 231.638671875 9.6005859375 251.349609375 c 0,38,39
 9.6005859375 252.818359375 9.6005859375 252.818359375 9.7138671875 254.286132812 c 0,40,41
 10.990234375 277.844726562 10.990234375 277.844726562 28.40234375 297.015625 c 128,-1,42
 45.8154296875 316.185546875 45.8154296875 316.185546875 69.142578125 319.713867188 c 0,43,44
 73.1650390625 319.713867188 73.1650390625 319.713867188 92.5869140625 304.26171875 c 128,-1,45
 112.008789062 288.80859375 112.008789062 288.80859375 123.713867188 286 c 0,46,47
 145.334960938 281.891601562 145.334960938 281.891601562 215 273.37109375 c 128,-1,48
 284.665039062 264.849609375 284.665039062 264.849609375 304 264 c 0,49,50
 321.892578125 264 321.892578125 264 405.25 260.857421875 c 128,-1,51
 488.607421875 257.713867188 488.607421875 257.713867188 490.857421875 257.713867188 c 0,52,53
 495.185546875 257.713867188 495.185546875 257.713867188 559.713867188 265.428710938 c 0,54,55
 568.391601562 266.439453125 568.391601562 266.439453125 575.095703125 268.716796875 c 128,-1,56
 581.799804688 270.993164062 581.799804688 270.993164062 586.482421875 276.58984375 c 128,-1,57
 591.165039062 282.1875 591.165039062 282.1875 594.024414062 284.856445312 c 128,-1,58
 596.883789062 287.525390625 596.883789062 287.525390625 599.263671875 297.033203125 c 128,-1,59
 601.64453125 306.541015625 601.64453125 306.541015625 602.2578125 308.413085938 c 128,-1,60
 602.87109375 310.28515625 602.87109375 310.28515625 604.548828125 322.513671875 c 128,-1,61
 606.225585938 334.743164062 606.225585938 334.743164062 606.286132812 335.142578125 c 0,62,63
 606.428710938 337.3125 606.428710938 337.3125 606.428710938 339.5078125 c 0,64,65
 606.428710938 363.458984375 606.428710938 363.458984375 589.643554688 382.7734375 c 128,-1,66
 572.859375 402.087890625 572.859375 402.087890625 549.142578125 405.428710938 c 0,67,68
 529.590820312 407.459960938 529.590820312 407.459960938 386.857421875 411.142578125 c 0,69,70
 384.375 411.142578125 384.375 411.142578125 360.178710938 409.94140625 c 128,-1,71
 335.981445312 408.741210938 335.981445312 408.741210938 316.206054688 409.17578125 c 128,-1,72
 296.4296875 409.610351562 296.4296875 409.610351562 271.0625 412.05859375 c 128,-1,73
 245.696289062 414.506835938 245.696289062 414.506835938 226.953125 422.880859375 c 128,-1,74
 208.209960938 431.254882812 208.209960938 431.254882812 200 444.857421875 c 0,75,76
 191.072265625 459.298828125 191.072265625 459.298828125 200.501953125 480.283203125 c 128,-1,77
 209.931640625 501.267578125 209.931640625 501.267578125 230.857421875 488.286132812 c 0,78,79
 271.64453125 468.580078125 271.64453125 468.580078125 317.428710938 462.857421875 c 1,0,1
EndSplineSet
Validated: 33
Substitution2: "'c2sc' Capitals to Small Capitals lookup 35 subtable" n.sc
Substitution2: "'aalt' Access All Alternates lookup 0 subtable" n.sc
Position2: "'cpsp' Capital Spacing lookup 0 subtable" dx=10 dy=0 dh=20 dv=0
EndChar

StartChar: Eng
Encoding: 330 330 128
Width: 723
Flags: W
LayerCount: 2
Fore
SplineSet
466 87 m 1,0,-1
 469 96 l 1,1,2
 514 119 514 119 539 147.5 c 0,3,4
 564 176 564 176 575 215 c 1,5,-1
 702 248 l 1,6,-1
 686 220 l 0,7,8
 587 85 587 85 487 51 c 1,9,-1
 466 87 l 1,0,-1
EndSplineSet
Refer: 121 78 N 1 0 0 1 0 0 2
Substitution2: "'c2sc' Capitals to Small Capitals lookup 35 subtable" eng.sc
Substitution2: "'aalt' Access All Alternates lookup 0 subtable" eng.sc
Position2: "'cpsp' Capital Spacing lookup 0 subtable" dx=10 dy=0 dh=20 dv=0
EndChar

StartChar: O
Encoding: 79 79 132
Width: 698
GlyphClass: 2
Flags: W
LayerCount: 2
Fore
SplineSet
184.571289062 766.571289062 m 0,0,1
 198.897460938 766.338867188 198.897460938 766.338867188 222.62890625 766.235351562 c 0,2,3
 260.046875 766.072265625 260.046875 766.072265625 272.787109375 764.435546875 c 128,-1,4
 285.52734375 762.798828125 285.52734375 762.798828125 286 755.713867188 c 0,5,6
 286.969726562 746.014648438 286.969726562 746.014648438 279.120117188 741.515625 c 128,-1,7
 271.270507812 737.015625 271.270507812 737.015625 261.15234375 736.885742188 c 128,-1,8
 251.033203125 736.756835938 251.033203125 736.756835938 241.87890625 735.104492188 c 128,-1,9
 232.725585938 733.453125 232.725585938 733.453125 231.713867188 728.857421875 c 2,10,-1
 219.428710938 608 l 1,11,-1
 521.713867188 641.713867188 l 1,12,13
 522.678710938 654.739257812 522.678710938 654.739257812 524.756835938 674.399414062 c 128,-1,14
 526.834960938 694.05859375 526.834960938 694.05859375 535.147460938 729.600585938 c 128,-1,15
 543.4609375 765.142578125 543.4609375 765.142578125 554 770.857421875 c 0,16,17
 568.430664062 777.064453125 568.430664062 777.064453125 584.142578125 777.064453125 c 128,-1,18
 599.85546875 777.064453125 599.85546875 777.064453125 614.286132812 770.857421875 c 0,19,20
 617.380859375 769.471679688 617.380859375 769.471679688 619.63671875 766.467773438 c 128,-1,21
 621.892578125 763.46484375 621.892578125 763.46484375 623.030273438 758.6015625 c 128,-1,22
 624.16796875 753.73828125 624.16796875 753.73828125 624.909179688 749.158203125 c 128,-1,23
 625.649414062 744.578125 625.649414062 744.578125 625.416992188 737.432617188 c 128,-1,24
 625.184570312 730.287109375 625.184570312 730.287109375 625.017578125 725.499023438 c 128,-1,25
 624.849609375 720.7109375 624.849609375 720.7109375 623.853515625 712.651367188 c 128,-1,26
 622.857421875 704.592773438 622.857421875 704.592773438 622.387695312 700.96484375 c 128,-1,27
 621.918945312 697.337890625 621.918945312 697.337890625 620.765625 689.733398438 c 128,-1,28
 619.612304688 682.12890625 619.612304688 682.12890625 619.428710938 680.857421875 c 0,29,30
 607.345703125 581.384765625 607.345703125 581.384765625 583.068359375 441.833007812 c 128,-1,31
 558.791015625 302.28125 558.791015625 302.28125 536.571289062 204.571289062 c 0,32,33
 532.896484375 184.859375 532.896484375 184.859375 479.428710938 180 c 0,34,35
 358.030273438 168.495117188 358.030273438 168.495117188 301.447265625 155.853515625 c 128,-1,36
 244.864257812 143.211914062 244.864257812 143.211914062 214 125.713867188 c 0,37,38
 191.248046875 112.815429688 191.248046875 112.815429688 159.283203125 87.619140625 c 128,-1,39
 127.318359375 62.423828125 127.318359375 62.423828125 100.716796875 29.046875 c 128,-1,40
 74.115234375 -4.3291015625 74.115234375 -4.3291015625 82.5712890625 -23.7138671875 c 0,41,42
 89.658203125 -40.9072265625 89.658203125 -40.9072265625 107.93359375 -46.87890625 c 128,-1,43
 126.208984375 -52.849609375 126.208984375 -52.849609375 142.923828125 -49.7880859375 c 128,-1,44
 159.638671875 -46.7255859375 159.638671875 -46.7255859375 168.286132812 -40 c 0,45,46
 178.859375 -32.01171875 178.859375 -32.01171875 173.365234375 -18.8994140625 c 128,-1,47
 167.87109375 -5.787109375 167.87109375 -5.787109375 161.301757812 5.3759765625 c 128,-1,48
 154.732421875 16.5390625 154.732421875 16.5390625 168.286132812 32.5712890625 c 0,49,50
 175.619140625 41.9453125 175.619140625 41.9453125 212.857421875 35.2861328125 c 128,-1,51
 250.094726562 28.626953125 250.094726562 28.626953125 256.571289062 10.5712890625 c 0,52,53
 265.764648438 -15.0908203125 265.764648438 -15.0908203125 226.434570312 -44.2919921875 c 128,-1,54
 187.104492188 -73.494140625 187.104492188 -73.494140625 148.857421875 -84.857421875 c 0,55,56
 127.147460938 -94.2431640625 127.147460938 -94.2431640625 103.499023438 -94.2431640625 c 0,57,58
 70.1279296875 -94.2431640625 70.1279296875 -94.2431640625 42 -76.2861328125 c 0,59,60
 28.5224609375 -67.4599609375 28.5224609375 -67.4599609375 18.9833984375 -49.8115234375 c 128,-1,61
 9.4453125 -32.1630859375 9.4453125 -32.1630859375 9.4453125 -16.0517578125 c 0,62,63
 9.4453125 6.2021484375 9.4453125 6.2021484375 22 24.5712890625 c 0,64,65
 41.337890625 64.2236328125 41.337890625 64.2236328125 100.75390625 101.25390625 c 128,-1,66
 160.168945312 138.284179688 160.168945312 138.284179688 224.857421875 161.713867188 c 0,67,68
 268.370117188 177.46875 268.370117188 177.46875 330.8828125 191.075195312 c 128,-1,69
 393.395507812 204.681640625 393.395507812 204.681640625 424.259765625 215.305664062 c 128,-1,70
 455.124023438 225.9296875 455.124023438 225.9296875 459.428710938 244.286132812 c 0,71,72
 483.934570312 337.1484375 483.934570312 337.1484375 494.857421875 432.571289062 c 2,73,-1
 516.571289062 600 l 1,74,75
 326.650390625 576.262695312 326.650390625 576.262695312 221.142578125 564.286132812 c 1,76,77
 212.348632812 427.487304688 212.348632812 427.487304688 198.286132812 408.286132812 c 0,78,79
 188.515625 394.987304688 188.515625 394.987304688 172.325195312 393.208007812 c 128,-1,80
 156.135742188 391.427734375 156.135742188 391.427734375 144.150390625 400.221679688 c 128,-1,81
 132.165039062 409.015625 132.165039062 409.015625 132.857421875 422.857421875 c 0,82,83
 139.194335938 557.76953125 139.194335938 557.76953125 143.743164062 635.040039062 c 128,-1,84
 148.29296875 712.310546875 148.29296875 712.310546875 148.857421875 725.713867188 c 0,85,86
 149.178710938 730.890625 149.178710938 730.890625 139.977539062 731.28125 c 128,-1,87
 130.776367188 731.670898438 130.776367188 731.670898438 119.606445312 729.321289062 c 128,-1,88
 108.4375 726.971679688 108.4375 726.971679688 99.0751953125 731.701171875 c 128,-1,89
 89.7138671875 736.430664062 89.7138671875 736.430664062 89.7138671875 750.286132812 c 0,90,91
 89.375 766.571289062 89.375 766.571289062 184.571289062 766.571289062 c 0,0,1
678.286132812 359.713867188 m 0,92,93
 687.706054688 358.772460938 687.706054688 358.772460938 688.071289062 340.821289062 c 128,-1,94
 688.436523438 322.870117188 688.436523438 322.870117188 684.571289062 304.571289062 c 0,95,96
 679.540039062 270.227539062 679.540039062 270.227539062 659.571289062 263.857421875 c 128,-1,97
 639.602539062 257.487304688 639.602539062 257.487304688 625.142578125 288.286132812 c 0,98,99
 622.578125 296.374023438 622.578125 296.374023438 622.578125 304.86328125 c 0,100,101
 622.578125 327.57421875 622.578125 327.57421875 638.651367188 343.647460938 c 128,-1,102
 654.724609375 359.720703125 654.724609375 359.720703125 677.435546875 359.720703125 c 0,103,104
 677.874023438 359.720703125 677.874023438 359.720703125 678.286132812 359.713867188 c 0,92,93
EndSplineSet
Validated: 33
Substitution2: "Single Substitution lookup 51 subtable" ordmasculine
Substitution2: "'c2sc' Capitals to Small Capitals lookup 35 subtable" o.sc
AlternateSubs2: "'aalt' Access All Alternates lookup 1 subtable" ordmasculine o.sc
Position2: "'cpsp' Capital Spacing lookup 0 subtable" dx=10 dy=0 dh=20 dv=0
EndChar

StartChar: Ohorn
Encoding: 416 416 149
Width: 699
GlyphClass: 2
Flags: W
LayerCount: 2
Fore
SplineSet
588 682 m 1,0,1
 616 682 616 682 634 695 c 0,2,3
 652 708 652 708 652 730 c 0,4,5
 652 747 652 747 643.5 765.5 c 0,6,7
 635 784 635 784 621 797 c 1,8,-1
 623 811 l 1,9,10
 658 841 658 841 688 841 c 0,11,12
 714 841 714 841 730 819 c 0,13,14
 746 797 746 797 746 760 c 0,15,16
 746 727 746 727 727 699 c 0,17,18
 708 671 708 671 676.5 655 c 0,19,20
 645 639 645 639 611 640 c 1,21,-1
 588 682 l 1,0,1
EndSplineSet
Refer: 132 79 N 1 0 0 1 0 0 2
Substitution2: "'c2sc' Capitals to Small Capitals lookup 35 subtable" ohorn.sc
Substitution2: "'aalt' Access All Alternates lookup 0 subtable" ohorn.sc
Position2: "'cpsp' Capital Spacing lookup 0 subtable" dx=10 dy=0 dh=20 dv=0
EndChar

StartChar: uni01EA
Encoding: 490 490 160
Width: 603
GlyphClass: 2
Flags: W
LayerCount: 2
Fore
SplineSet
186 -230.5 m 0,0,1
 207 -224 207 -224 223 -214 c 1,2,-1
 240 -240 l 1,3,4
 216 -263 216 -263 188 -280.5 c 0,5,6
 160 -298 160 -298 137 -305 c 1,7,8
 87 -305 87 -305 55 -279 c 0,9,10
 23 -253 23 -253 23 -212 c 0,11,12
 23 -182 23 -182 40.5 -153.5 c 0,13,14
 58 -125 58 -125 116 -64 c 1,15,-1
 169 -65 l 1,16,17
 128 -113 128 -113 113.5 -138.5 c 0,18,19
 99 -164 99 -164 99 -187 c 256,20,21
 99 -210 99 -210 112.5 -223.5 c 0,22,23
 126 -237 126 -237 149 -237 c 0,24,25
 165 -237 165 -237 186 -230.5 c 0,0,1
EndSplineSet
Refer: 132 79 N 1 0 0 1 0 0 2
Substitution2: "'c2sc' Capitals to Small Capitals lookup 35 subtable" uni01EB.sc
Substitution2: "'aalt' Access All Alternates lookup 0 subtable" uni01EB.sc
Position2: "'cpsp' Capital Spacing lookup 0 subtable" dx=10 dy=0 dh=20 dv=0
EndChar

StartChar: Oslash
Encoding: 216 216 161
Width: 706
GlyphClass: 2
Flags: W
LayerCount: 2
Fore
SplineSet
168 168 m 1,0,-1
 127 184 l 1,1,-1
 124 194 l 1,2,-1
 562 987 l 1,3,-1
 605 970 l 1,4,-1
 608 958 l 1,5,-1
 168 168 l 1,0,-1
EndSplineSet
Refer: 132 79 N 1 0 0 1 0 0 2
Substitution2: "'c2sc' Capitals to Small Capitals lookup 35 subtable" oslash.sc
Substitution2: "'aalt' Access All Alternates lookup 0 subtable" oslash.sc
Position2: "'cpsp' Capital Spacing lookup 0 subtable" dx=10 dy=0 dh=20 dv=0
EndChar

StartChar: OE
Encoding: 338 338 167
Width: 1121
GlyphClass: 2
Flags: W
LayerCount: 2
Fore
SplineSet
174.857421875 701.428710938 m 0,0,1
 185.119346309 701.26256617 185.119346309 701.26256617 196.802134785 701.18008991 c 128,-1,2
 208.48492326 701.097613649 208.48492326 701.097613649 216.122464945 701.08139977 c 128,-1,3
 223.760006631 701.065185892 223.760006631 701.065185892 232.266691862 700.974776016 c 128,-1,4
 240.773377093 700.884366141 240.773377093 700.884366141 246.082022666 700.68791876 c 128,-1,5
 251.390668238 700.491471379 251.390668238 700.491471379 256.92347502 700.063925858 c 128,-1,6
 262.456281801 699.636380336 262.456281801 699.636380336 265.638256055 698.930497421 c 128,-1,7
 268.820230308 698.224614506 268.820230308 698.224614506 271.581383434 697.130731306 c 128,-1,8
 274.34253656 696.036848106 274.34253656 696.036848106 275.600064289 694.492327625 c 128,-1,9
 276.857592019 692.947807144 276.857592019 692.947807144 277.142578125 690.857421875 c 0,10,11
 278.597648541 681.157947014 278.597648541 681.157947014 270.85751606 676.696879027 c 128,-1,12
 263.11738358 672.235811039 263.11738358 672.235811039 252.838910331 672.138356569 c 128,-1,13
 242.560437083 672.0409021 242.560437083 672.0409021 233.214846383 670.366251585 c 128,-1,14
 223.869255683 668.691601071 223.869255683 668.691601071 222.857421875 664 c 2,15,-1
 210.857421875 542.857421875 l 1,16,-1
 514.286132812 577.142578125 l 1,17,18
 514.578278527 581.880694254 514.578278527 581.880694254 515.200619777 589.813685415 c 128,-1,19
 515.822961027 597.746676575 515.822961027 597.746676575 518.336059911 618.491978648 c 128,-1,20
 520.849158795 639.237280721 520.849158795 639.237280721 524.018666652 655.724466665 c 128,-1,21
 527.188174509 672.211652608 527.188174509 672.211652608 532.845434911 687.282759898 c 128,-1,22
 538.502695313 702.353867187 538.502695313 702.353867187 545.142578125 705.713867188 c 0,23,24
 559.552238978 712.025390625 559.552238978 712.025390625 575.286132812 712.025390625 c 128,-1,25
 591.019050085 712.025390625 591.019050085 712.025390625 605.428710938 705.713867188 c 0,26,27
 623.138742558 697.784015768 623.138742558 697.784015768 610.286132812 615.713867188 c 0,28,29
 598.154223848 516.398327959 598.154223848 516.398327959 573.709612845 377.097796287 c 128,-1,30
 549.265001841 237.797264616 549.265001841 237.797264616 526.857421875 140.286132812 c 0,31,32
 523.352349325 121.490058765 523.352349325 121.490058765 469.713867188 115.713867188 c 0,33,34
 348.531348838 104.427601802 348.531348838 104.427601802 291.771540572 91.7187226298 c 128,-1,35
 235.011732306 79.0098434571 235.011732306 79.0098434571 204 61.4287109375 c 0,36,37
 181.287808157 48.5527435244 181.287808157 48.5527435244 149.364803573 23.3392203091 c 128,-1,38
 117.441798989 -1.87430290623 117.441798989 -1.87430290623 90.9210037185 -35.2438427049 c 128,-1,39
 64.4002084479 -68.6133825036 64.4002084479 -68.6133825036 72.857421875 -88 c 0,40,41
 79.8128707628 -105.19215075 79.8128707628 -105.19215075 98.0409555843 -111.089163534 c 128,-1,42
 116.269040406 -116.986176318 116.269040406 -116.986176318 133.006895978 -113.863310424 c 128,-1,43
 149.744751551 -110.740444531 149.744751551 -110.740444531 158.571289062 -104 c 0,44,45
 169.141392462 -96.131430699 169.141392462 -96.131430699 163.65093316 -83.1007306134 c 128,-1,46
 158.160473858 -70.0700305278 158.160473858 -70.0700305278 151.58734809 -58.8995949074 c 128,-1,47
 145.014222323 -47.729159287 145.014222323 -47.729159287 158.571289062 -31.7138671875 c 0,48,49
 165.685815717 -22.3270674557 165.685815717 -22.3270674557 202.892822266 -28.8570556641 c 128,-1,50
 240.099828814 -35.3870438725 240.099828814 -35.3870438725 246.571289062 -53.4287109375 c 0,51,52
 255.765102657 -79.2851660449 255.765102657 -79.2851660449 216.567001365 -108.535547233 c 128,-1,53
 177.368900073 -137.785928422 177.368900073 -137.785928422 139.142578125 -149.142578125 c 0,54,55
 68.9627921199 -169.994013739 68.9627921199 -169.994013739 32.2861328125 -140.286132812 c 0,56,57
 18.8162277261 -131.5000428 18.8162277261 -131.5000428 9.28360214429 -113.900817407 c 128,-1,58
 -0.2490234375 -96.3015920139 -0.2490234375 -96.3015920139 -0.2490234375 -80.2197265625 c 0,59,60
 -0.2490234375 -58.0265876927 -0.2490234375 -58.0265876927 12.2861328125 -39.7138671875 c 0,61,62
 31.6466816678 -0.0141807625432 31.6466816678 -0.0141807625432 91.3267468805 37.1670996061 c 128,-1,63
 151.006812093 74.3483799748 151.006812093 74.3483799748 215.428710938 97.4287109375 c 0,64,65
 258.955277663 113.149683944 258.955277663 113.149683944 321.561388589 126.791597371 c 128,-1,66
 384.167499515 140.433510798 384.167499515 140.433510798 415.010225994 151.113350545 c 128,-1,67
 445.852952473 161.793190293 445.852952473 161.793190293 450.286132812 180.286132812 c 0,68,69
 474.586356804 273.193134084 474.586356804 273.193134084 485.713867188 368.571289062 c 2,70,-1
 506.857421875 535.713867188 l 1,71,72
 316.650137868 511.119609758 316.650137868 511.119609758 211.142578125 499.428710938 c 1,73,74
 203.368409524 363.347537483 203.368409524 363.347537483 188.571289062 343.428710938 c 0,75,76
 178.658040766 330.120692624 178.658040766 330.120692624 162.712036233 328.287002954 c 128,-1,77
 146.7660317 326.453313285 146.7660317 326.453313285 134.811726788 335.141382462 c 128,-1,78
 122.857421875 343.82945164 122.857421875 343.82945164 122.857421875 357.713867188 c 0,79,80
 129.458983178 494.65778887 129.458983178 494.65778887 134.114641526 573.807115263 c 128,-1,81
 138.770299875 652.956441657 138.770299875 652.956441657 139.142578125 660.857421875 c 0,82,83
 137.195421007 669.990069635 137.195421007 669.990069635 123.989040799 665.883825231 c 128,-1,84
 110.78266059 661.777580828 110.78266059 661.777580828 95.2482638889 664.687789352 c 128,-1,85
 79.7138671875 667.597997876 79.7138671875 667.597997876 79.7138671875 685.142578125 c 0,86,87
 79.3752492167 701.428710938 79.3752492167 701.428710938 174.857421875 701.428710938 c 0,0,1
1038.28613281 667.428710938 m 1,88,-1
 1039.14257812 668.857421875 l 1,89,90
 1049.92271584 672.817257617 1049.92271584 672.817257617 1056.96411133 658.107055664 c 128,-1,91
 1064.00550682 643.396853711 1064.00550682 643.396853711 1053.14257812 636.857421875 c 0,92,93
 1027.92071234 621.643415803 1027.92071234 621.643415803 969.767533373 587.091009613 c 128,-1,94
 911.614354406 552.538603424 911.614354406 552.538603424 879.169208814 532.735740387 c 128,-1,95
 846.724063222 512.932877349 846.724063222 512.932877349 799.253252123 482.990275238 c 128,-1,96
 751.782441024 453.047673127 751.782441024 453.047673127 711.466255689 424.726334137 c 128,-1,97
 671.150070355 396.404995146 671.150070355 396.404995146 633.713867188 367.142578125 c 1,98,99
 649.262199425 367.142578125 649.262199425 367.142578125 755.464355469 364.713989258 c 128,-1,100
 861.666511513 362.285400391 861.666511513 362.285400391 877.428710938 365.713867188 c 0,101,102
 899.508209671 366.90105917 899.508209671 366.90105917 913.214355469 352.714111328 c 128,-1,103
 926.920501266 338.527163486 926.920501266 338.527163486 911.713867188 320.857421875 c 0,104,105
 875.422225187 283.441700038 875.422225187 283.441700038 808.680417625 215.816581271 c 128,-1,106
 741.938610063 148.191462503 741.938610063 148.191462503 717.713867188 123.428710938 c 0,107,108
 693.445140309 98.3218491023 693.445140309 98.3218491023 693.986032831 92.7656711591 c 0,109,110
 694.42211476 88.2861328125 694.42211476 88.2861328125 702.857421875 88.2861328125 c 0,111,112
 756.999615868 86.5289038829 756.999615868 86.5289038829 904.465896697 80.7870325172 c 128,-1,113
 1051.93217753 75.0451611515 1051.93217753 75.0451611515 1089.42871094 73.7138671875 c 0,114,115
 1106.65677 73.0516328092 1106.65677 73.0516328092 1110.56831713 55.3582858065 c 128,-1,116
 1114.47986426 37.6649388037 1114.47986426 37.6649388037 1106.19340162 20.2611803394 c 128,-1,117
 1097.90693898 2.857421875 1097.90693898 2.857421875 1085.42871094 2.857421875 c 0,118,119
 686.090800614 12.5712890625 686.090800614 12.5712890625 616 12.5712890625 c 0,120,121
 613.656402394 12.6886491887 613.656402394 12.6886491887 598.905065842 7.20125818812 c 128,-1,122
 584.153729291 1.7138671875 584.153729291 1.7138671875 578 1.7138671875 c 0,123,124
 570.267342613 2.46735473568 570.267342613 2.46735473568 571.571533203 12.25 c 128,-1,125
 572.875723793 22.0326452643 572.875723793 22.0326452643 579.713867188 30.2861328125 c 0,126,127
 619.706335423 79.896633934 619.706335423 79.896633934 703.77534002 166.762057046 c 128,-1,128
 787.844344617 253.627480157 787.844344617 253.627480157 800.286132812 267.142578125 c 0,129,130
 823.098046159 292.31796057 823.098046159 292.31796057 820.54653565 297.844821678 c 0,131,132
 818.892010426 301.428710938 818.892010426 301.428710938 810.857421875 301.428710938 c 2,133,-1
 598.571289062 302.857421875 l 2,134,135
 591.952333648 303.473632812 591.952333648 303.473632812 585.315429688 303.473632812 c 0,136,137
 561.904753252 303.473632812 561.904753252 303.473632812 539.713867188 296 c 0,138,139
 523.847996279 286.678419532 523.847996279 286.678419532 513.309346069 267.579916969 c 128,-1,140
 502.770695859 248.481414406 502.770695859 248.481414406 490.857421875 213.713867188 c 0,141,142
 483.827339633 193.186206453 483.827339633 193.186206453 482.084607157 175.879815811 c 128,-1,143
 480.34187468 158.573425169 480.34187468 158.573425169 481.696795431 151.222646958 c 128,-1,144
 483.051716182 143.871868747 483.051716182 143.871868747 481.146801981 138.83559584 c 128,-1,145
 479.241887779 133.799322933 479.241887779 133.799322933 471.142578125 131.428710938 c 0,146,147
 459.647659558 127.63531316 459.647659558 127.63531316 456.79349104 148.467671969 c 0,148,149
 450.904327874 191.452225742 450.904327874 191.452225742 472.039515088 255.022100221 c 0,150,151
 475.815319139 266.378866887 475.815319139 266.378866887 479.713867188 274.286132812 c 0,152,153
 489.654545714 294.377089691 489.654545714 294.377089691 500.661777019 311.011671941 c 128,-1,154
 511.669008323 327.646254192 511.669008323 327.646254192 519.671434244 338.155645767 c 128,-1,155
 527.673860166 348.665037343 527.673860166 348.665037343 543.365580187 362.503497751 c 128,-1,156
 559.057300208 376.34195816 559.057300208 376.34195816 566.454420356 382.218869147 c 128,-1,157
 573.851540503 388.095780133 573.851540503 388.095780133 596.354865126 404.661990228 c 128,-1,158
 618.858189749 421.228200324 618.858189749 421.228200324 628.571289062 428.571289062 c 0,159,160
 682.057709531 469.621391687 682.057709531 469.621391687 762.674717599 519.849999283 c 128,-1,161
 843.291725666 570.07860688 843.291725666 570.07860688 903.713867188 600 c 1,162,163
 968.84887709 638.010312838 968.84887709 638.010312838 1038.28613281 667.428710938 c 1,88,-1
EndSplineSet
Substitution2: "'c2sc' Capitals to Small Capitals lookup 35 subtable" oe.sc
Substitution2: "'aalt' Access All Alternates lookup 0 subtable" oe.sc
Position2: "'cpsp' Capital Spacing lookup 0 subtable" dx=10 dy=0 dh=20 dv=0
EndChar

StartChar: P
Encoding: 80 80 168
Width: 650
GlyphClass: 2
Flags: W
LayerCount: 2
Fore
SplineSet
443.857421875 668.286132812 m 0,0,1
 474.4609375 664.491210938 474.4609375 664.491210938 505.2578125 655.072265625 c 128,-1,2
 536.055664062 645.654296875 536.055664062 645.654296875 568.041992188 628.9453125 c 128,-1,3
 600.02734375 612.236328125 600.02734375 612.236328125 620.03515625 583.786132812 c 128,-1,4
 640.041992188 555.336914062 640.041992188 555.336914062 640.142578125 519.713867188 c 0,5,6
 640.153320312 518.603515625 640.153320312 518.603515625 640.153320312 517.51953125 c 0,7,8
 640.153320312 474.635742188 640.153320312 474.635742188 617.463867188 424.129882812 c 128,-1,9
 594.774414062 373.623046875 594.774414062 373.623046875 562.713867188 345.142578125 c 0,10,11
 541.44921875 327.090820312 541.44921875 327.090820312 507.2109375 309.677734375 c 128,-1,12
 472.971679688 292.265625 472.971679688 292.265625 445.857421875 285.713867188 c 0,13,14
 406.74609375 274.666992188 406.74609375 274.666992188 324.459960938 267.880859375 c 128,-1,15
 242.174804688 261.095703125 242.174804688 261.095703125 179.444335938 259.833007812 c 2,16,-1
 116.713867188 258.571289062 l 1,17,18
 114.533203125 253.454101562 114.533203125 253.454101562 110.661132812 246.1171875 c 128,-1,19
 106.7890625 238.78125 106.7890625 238.78125 95.529296875 228.358398438 c 128,-1,20
 84.2705078125 217.936523438 84.2705078125 217.936523438 73.857421875 222 c 0,21,22
 32.2138671875 238.456054688 32.2138671875 238.456054688 63.857421875 306 c 0,23,24
 73.1416015625 325.634765625 73.1416015625 325.634765625 77.6474609375 334.077148438 c 128,-1,25
 82.15234375 342.520507812 82.15234375 342.520507812 90.9833984375 355.239257812 c 128,-1,26
 99.8134765625 367.958984375 99.8134765625 367.958984375 109.048828125 371.42578125 c 128,-1,27
 118.284179688 374.892578125 118.284179688 374.892578125 129.286132812 371.428710938 c 0,28,29
 145.793945312 366.349609375 145.793945312 366.349609375 149.436523438 353.634765625 c 128,-1,30
 153.080078125 340.920898438 153.080078125 340.920898438 148.46875 330.74609375 c 2,31,-1
 143.857421875 320.571289062 l 1,32,33
 283.857421875 322.764648438 283.857421875 322.764648438 422.428710938 342.857421875 c 0,34,35
 492.75 355.729492188 492.75 355.729492188 522.233398438 372.9765625 c 128,-1,36
 551.717773438 390.22265625 551.717773438 390.22265625 558.713867188 434 c 0,37,38
 565.387695312 475.032226562 565.387695312 475.032226562 553.62890625 507.548828125 c 128,-1,39
 541.869140625 540.065429688 541.869140625 540.065429688 518.783203125 560.453125 c 128,-1,40
 495.696289062 580.841796875 495.696289062 580.841796875 459.823242188 595.512695312 c 128,-1,41
 423.950195312 610.18359375 423.950195312 610.18359375 389.250976562 617.28515625 c 128,-1,42
 354.552734375 624.387695312 354.552734375 624.387695312 312.713867188 628.571289062 c 2,43,-1
 72.4287109375 657.142578125 l 2,44,45
 71.1748046875 653.3984375 71.1748046875 653.3984375 68.583984375 647.849609375 c 128,-1,46
 65.9921875 642.299804688 65.9921875 642.299804688 56.1787109375 633.006835938 c 128,-1,47
 46.365234375 623.713867188 46.365234375 623.713867188 34.4287109375 623.713867188 c 0,48,49
 20.6044921875 623.713867188 20.6044921875 623.713867188 14.8017578125 633.797851562 c 128,-1,50
 9 643.880859375 9 643.880859375 9 652.286132812 c 0,51,52
 11.3427734375 688.45703125 11.3427734375 688.45703125 27 721.142578125 c 0,53,54
 47.447265625 769.826171875 47.447265625 769.826171875 84.142578125 754.571289062 c 0,55,56
 99 748.73046875 99 748.73046875 102 737.801757812 c 128,-1,57
 105 726.873046875 105 726.873046875 100.571289062 718.865234375 c 2,58,-1
 96.142578125 710.857421875 l 1,59,60
 390.818359375 675.12890625 390.818359375 675.12890625 443.857421875 668.286132812 c 0,0,1
353.571289062 50.857421875 m 1,61,62
 357.602539062 50.564453125 357.602539062 50.564453125 363.5078125 49.5068359375 c 128,-1,63
 369.413085938 48.4482421875 369.413085938 48.4482421875 378.778320312 42.017578125 c 128,-1,64
 388.142578125 35.587890625 388.142578125 35.587890625 387 25.4287109375 c 128,-1,65
 385.86328125 15.1982421875 385.86328125 15.1982421875 379.532226562 9.228515625 c 128,-1,66
 373.202148438 3.259765625 373.202148438 3.259765625 361.68359375 1.7822265625 c 128,-1,67
 350.165039062 0.3037109375 350.165039062 0.3037109375 341.036132812 0.3330078125 c 128,-1,68
 331.908203125 0.361328125 331.908203125 0.361328125 316.947265625 1.7998046875 c 128,-1,69
 301.986328125 3.2392578125 301.986328125 3.2392578125 297 3.4287109375 c 0,70,71
 278.784179688 4.0986328125 278.784179688 4.0986328125 264.4453125 5.4755859375 c 128,-1,72
 250.106445312 6.8525390625 250.106445312 6.8525390625 233.62109375 9.9931640625 c 128,-1,73
 217.134765625 13.1337890625 217.134765625 13.1337890625 208.865234375 19.4130859375 c 128,-1,74
 200.594726562 25.6923828125 200.594726562 25.6923828125 202.713867188 34.5712890625 c 0,75,76
 206.142578125 48.9208984375 206.142578125 48.9208984375 218.071289062 55.7060546875 c 128,-1,77
 230 62.4921875 230 62.4921875 240.21484375 62.1025390625 c 2,78,-1
 250.428710938 61.7138671875 l 1,79,-1
 279 373.142578125 l 2,80,81
 276.82421875 373.1484375 276.82421875 373.1484375 273.598632812 373.9375 c 128,-1,82
 270.374023438 374.7265625 270.374023438 374.7265625 264.97265625 381.87109375 c 128,-1,83
 259.571289062 389.015625 259.571289062 389.015625 259.571289062 401.713867188 c 0,84,85
 259.571289062 406.955078125 259.571289062 406.955078125 261.046875 411.030273438 c 128,-1,86
 262.521484375 415.10546875 262.521484375 415.10546875 265.697265625 417.696289062 c 128,-1,87
 268.873046875 420.287109375 268.873046875 420.287109375 272.231445312 422.119140625 c 128,-1,88
 275.588867188 423.951171875 275.588867188 423.951171875 281.041992188 424.661132812 c 128,-1,89
 286.495117188 425.370117188 286.495117188 425.370117188 290.724609375 425.73046875 c 128,-1,90
 294.954101562 426.091796875 294.954101562 426.091796875 301.672851562 425.690429688 c 128,-1,91
 308.392578125 425.2890625 308.392578125 425.2890625 312.482421875 424.94921875 c 128,-1,92
 316.571289062 424.609375 316.571289062 424.609375 323.545898438 423.869140625 c 128,-1,93
 330.520507812 423.12890625 330.520507812 423.12890625 333.571289062 422.857421875 c 0,94,95
 338.026367188 422.4609375 338.026367188 422.4609375 346.490234375 421.831054688 c 128,-1,96
 354.953125 421.201171875 354.953125 421.201171875 359.841796875 420.764648438 c 128,-1,97
 364.729492188 420.329101562 364.729492188 420.329101562 372.282226562 419.487304688 c 128,-1,98
 379.834960938 418.646484375 379.834960938 418.646484375 384.340820312 417.579101562 c 128,-1,99
 388.846679688 416.512695312 388.846679688 416.512695312 394.547851562 414.88671875 c 128,-1,100
 400.249023438 413.259765625 400.249023438 413.259765625 403.431640625 410.98828125 c 128,-1,101
 406.614257812 408.716796875 406.614257812 408.716796875 409.5234375 405.732421875 c 128,-1,102
 412.432617188 402.747070312 412.432617188 402.747070312 413.3515625 398.697265625 c 128,-1,103
 414.26953125 394.647460938 414.26953125 394.647460938 413.571289062 389.713867188 c 0,104,105
 412.666992188 380.061523438 412.666992188 380.061523438 405.165039062 373.23046875 c 128,-1,106
 397.6640625 366.399414062 397.6640625 366.399414062 387.969726562 366.399414062 c 0,107,108
 386.481445312 366.399414062 386.481445312 366.399414062 385 366.571289062 c 2,109,-1
 353.571289062 50.857421875 l 1,61,62
EndSplineSet
Validated: 37
Substitution2: "'c2sc' Capitals to Small Capitals lookup 35 subtable" p.sc
Substitution2: "'aalt' Access All Alternates lookup 0 subtable" p.sc
Position2: "'cpsp' Capital Spacing lookup 0 subtable" dx=10 dy=0 dh=20 dv=0
EndChar

StartChar: Thorn
Encoding: 222 222 169
Width: 556
Flags: W
LayerCount: 2
Fore
SplineSet
54 43 m 1,0,1
 100 52 100 52 115.5 69.5 c 128,-1,2
 131 87 131 87 131 129 c 2,3,-1
 132 533 l 2,4,5
 132 565 132 565 124.5 576 c 128,-1,6
 117 587 117 587 95 587 c 0,7,8
 82 587 82 587 56 585 c 1,9,-1
 53 591 l 1,10,-1
 60 641 l 1,11,-1
 88 640 l 1,12,-1
 188 639 l 2,13,14
 231 639 231 639 315 647 c 1,15,-1
 310 593 l 1,16,17
 269 587 269 587 256 577 c 128,-1,18
 243 567 243 567 241 541 c 0,19,20
 240 531 240 531 239 521.5 c 128,-1,21
 238 512 238 512 239 507 c 1,22,-1
 319 507 l 2,23,24
 426 507 426 507 482 464 c 128,-1,25
 538 421 538 421 538 338 c 0,26,27
 538 286 538 286 505.5 242 c 128,-1,28
 473 198 473 198 418 172 c 128,-1,29
 363 146 363 146 299 146 c 2,30,-1
 228 146 l 1,31,-1
 228 113 l 2,32,33
 228 77 228 77 236 65 c 128,-1,34
 244 53 244 53 269 53 c 0,35,36
 293 53 293 53 320 56 c 1,37,-1
 323 51 l 1,38,-1
 314 -3 l 1,39,40
 218 0 218 0 174 0 c 0,41,42
 124 0 124 0 48 -11 c 1,43,-1
 54 43 l 1,0,1
402 240.5 m 128,-1,45
 429 271 429 271 429 323 c 0,46,47
 429 386 429 386 388.5 415 c 128,-1,48
 348 444 348 444 261 444 c 0,49,50
 246 444 246 444 241.5 442 c 128,-1,51
 237 440 237 440 236 433 c 0,52,53
 231 313 231 313 229 219 c 1,54,55
 246 213 246 213 274.5 208.5 c 128,-1,56
 303 204 303 204 323 203 c 0,57,44
 375 210 375 210 402 240.5 c 128,-1,45
EndSplineSet
Validated: 1
Substitution2: "'c2sc' Capitals to Small Capitals lookup 35 subtable" thorn.sc
Substitution2: "'aalt' Access All Alternates lookup 0 subtable" thorn.sc
Position2: "'cpsp' Capital Spacing lookup 0 subtable" dx=10 dy=0 dh=20 dv=0
EndChar

StartChar: Q
Encoding: 81 81 170
Width: 1000
GlyphClass: 2
LayerCount: 2
Fore
SplineSet
991.713867188 386.571289062 m 0,0,1
 991.713867188 378.344749457 991.713867188 378.344749457 980.792860675 369.029308322 c 128,-1,2
 969.871854163 359.713867188 969.871854163 359.713867188 964.857421875 359.713867188 c 0,3,4
 955.109708015 359.713867188 955.109708015 359.713867188 945.697920414 372.814293024 c 128,-1,5
 936.286132812 385.914718861 936.286132812 385.914718861 936.286132812 391.713867188 c 0,6,7
 938.636505299 401.192262434 938.636505299 401.192262434 947.007889721 409.564042068 c 128,-1,8
 955.379274143 417.935821703 955.379274143 417.935821703 964.857421875 420.286132812 c 0,9,10
 973.263516986 420.858815591 973.263516986 420.858815591 982.488692087 407.084665021 c 128,-1,11
 991.713867188 393.310514452 991.713867188 393.310514452 991.713867188 386.571289062 c 0,0,1
911.713867188 540.286132812 m 1,12,13
 910.299060031 527.422730763 910.299060031 527.422730763 898.571144387 522.952365451 c 128,-1,14
 886.843228742 518.48200014 886.843228742 518.48200014 873.047345197 520.09516059 c 128,-1,15
 859.251461651 521.708321041 859.251461651 521.708321041 846.571289062 519.713867188 c 0,16,17
 841.42150128 519.060085535 841.42150128 519.060085535 834.945678012 505.794833207 c 128,-1,18
 828.469854745 492.529580878 828.469854745 492.529580878 820.215259488 465.219963668 c 128,-1,19
 811.960664231 437.910346458 811.960664231 437.910346458 805.396068637 413.854489457 c 128,-1,20
 798.831473044 389.798632456 798.831473044 389.798632456 788.128540738 348.730713668 c 128,-1,21
 777.425608432 307.662794881 777.425608432 307.662794881 771.428710938 285.713867188 c 0,22,23
 700.420714597 38.7328353922 700.420714597 38.7328353922 657.142578125 26.5712890625 c 0,24,25
 620.469266179 18.6310566964 620.469266179 18.6310566964 567.980494238 11.9338099918 c 128,-1,26
 515.491722296 5.23656328732 515.491722296 5.23656328732 478 3.7138671875 c 0,27,28
 443.392464592 -0.10546875 443.392464592 -0.10546875 408.571289062 -0.10546875 c 0,29,30
 363.485413189 -0.10546875 363.485413189 -0.10546875 318.857421875 6.2861328125 c 1,31,32
 281.668877431 15.6772015838 281.668877431 15.6772015838 251.280497263 49.162851741 c 128,-1,33
 220.892117095 82.6485018983 220.892117095 82.6485018983 215.142578125 120.571289062 c 0,34,35
 211.6099633 140.900797077 211.6099633 140.900797077 206.984204248 183.445385401 c 128,-1,36
 202.358445197 225.989973725 202.358445197 225.989973725 197.840702002 261.991919287 c 128,-1,37
 193.322958807 297.993864848 193.322958807 297.993864848 186.490626123 334.910619776 c 128,-1,38
 179.65829344 371.827374703 179.65829344 371.827374703 168.570014502 394.394263037 c 128,-1,39
 157.481735563 416.96115137 157.481735563 416.96115137 142.857421875 419.142578125 c 0,40,41
 122.003503189 422.170158536 122.003503189 422.170158536 99.587761183 410.392342963 c 128,-1,42
 77.1720191767 398.614527391 77.1720191767 398.614527391 73.4287109375 398 c 0,43,44
 57.0467934128 395.301848318 57.0467934128 395.301848318 51.9499999651 399.168521101 c 128,-1,45
 46.8532065174 403.035193883 46.8532065174 403.035193883 42.2861328125 414.857421875 c 0,46,47
 39.2310245992 422.896934467 39.2310245992 422.896934467 47.0189272928 431.025700923 c 128,-1,48
 54.8068299864 439.154467378 54.8068299864 439.154467378 70.6453305197 445.975705327 c 128,-1,49
 86.483831053 452.796943276 86.483831053 452.796943276 100.097442918 457.544372798 c 128,-1,50
 113.711054783 462.291802319 113.711054783 462.291802319 130.23829927 466.940158452 c 128,-1,51
 146.765543757 471.588514586 146.765543757 471.588514586 148 472 c 0,52,53
 194.285233046 486.241454151 194.285233046 486.241454151 224.468813743 457.12170136 c 128,-1,54
 254.65239444 428.001948568 254.65239444 428.001948568 263.713867188 380 c 0,55,56
 263.714028889 379.999056777 263.714028889 379.999056777 269.879650057 334.203582318 c 128,-1,57
 276.045271225 288.40810786 276.045271225 288.40810786 282.794208585 244.484100787 c 128,-1,58
 289.543145945 200.560093714 289.543145945 200.560093714 301.156932772 151.043059858 c 128,-1,59
 312.770719599 101.526026001 312.770719599 101.526026001 324.286132812 80.857421875 c 0,60,61
 332.217514368 65.6845988707 332.217514368 65.6845988707 349.797461975 53.043595911 c 128,-1,62
 367.377409581 40.4025929514 367.377409581 40.4025929514 384.286132812 37.7138671875 c 0,63,64
 412.701651028 33.455078125 412.701651028 33.455078125 441.428710938 33.455078125 c 128,-1,65
 470.155770847 33.455078125 470.155770847 33.455078125 498.571289062 37.7138671875 c 0,66,67
 504.345013791 38.1379909466 504.345013791 38.1379909466 517.368247836 38.9637577459 c 128,-1,68
 530.391481882 39.7895245452 530.391481882 39.7895245452 533.259380056 40.0904001896 c 128,-1,69
 536.12727823 40.391275834 536.12727823 40.391275834 544.751760728 41.757694517 c 128,-1,70
 553.376243226 43.1241132 553.376243226 43.1241132 556.314745171 44.8134550365 c 128,-1,71
 559.253247116 46.502796873 559.253247116 46.502796873 566.057923037 49.9093207925 c 128,-1,72
 572.862598958 53.315844712 572.862598958 53.315844712 578.450649644 57.8931060934 c 128,-1,73
 584.038700331 62.4703674747 584.038700331 62.4703674747 592 69.4287109375 c 0,74,75
 621.177531817 94.9587396319 621.177531817 94.9587396319 685.428710938 302.857421875 c 0,76,77
 702.517254251 357.454507766 702.517254251 357.454507766 719.61964939 416.959623298 c 128,-1,78
 736.722044529 476.464738829 736.722044529 476.464738829 744.38035061 500.373384515 c 128,-1,79
 752.03865669 524.2820302 752.03865669 524.2820302 759.713867188 537.713867188 c 0,80,81
 772.293968636 558.05647033 772.293968636 558.05647033 852.286132812 562.857421875 c 0,82,83
 863.349666485 565.819785925 863.349666485 565.819785925 889.25012207 563.142700195 c 128,-1,84
 915.150577656 560.465614466 915.150577656 560.465614466 913.142578125 547.142578125 c 2,85,-1
 911.713867188 540.286132812 l 1,12,13
228.571289062 359.713867188 m 1,86,-1
 195.428710938 336 l 1,87,88
 136.714305397 270.167892613 136.714305397 270.167892613 89.4287109375 195.713867188 c 0,89,90
 84.5097359179 185.20075725 84.5097359179 185.20075725 93.2830608447 176.144363069 c 128,-1,91
 102.056385772 167.087968887 102.056385772 167.087968887 115.587956611 161.484833098 c 128,-1,92
 129.119527451 155.88169731 129.119527451 155.88169731 140.988474663 147.439254426 c 128,-1,93
 152.857421875 138.996811542 152.857421875 138.996811542 152.857421875 130 c 0,94,95
 152.857421875 110 152.857421875 110 119.428710938 110 c 1,96,97
 73.3977511191 118.289994569 73.3977511191 118.289994569 28.5712890625 131.713867188 c 0,98,99
 20.7743765466 134.194730519 20.7743765466 134.194730519 16.1639938677 139.237893733 c 128,-1,100
 11.5536111887 144.281056947 11.5536111887 144.281056947 11.2943342573 152.304340642 c 128,-1,101
 11.035057326 160.327624338 11.035057326 160.327624338 15.7344157427 170.118081233 c 128,-1,102
 20.4337741593 179.908538128 20.4337741593 179.908538128 32.8076467573 192.852965642 c 128,-1,103
 45.1815193553 205.797393157 45.1815193553 205.797393157 64.2861328125 219.713867188 c 0,104,105
 85.1188949332 234.457945927 85.1188949332 234.457945927 126.783810158 306.844072277 c 128,-1,106
 168.448725383 379.230198627 168.448725383 379.230198627 160.571289062 415.428710938 c 0,107,108
 152.715473798 450.323692076 152.715473798 450.323692076 162.286132812 449.713867188 c 1,109,-1
 228.571289062 359.713867188 l 1,86,-1
EndSplineSet
Validated: 37
Substitution2: "'c2sc' Capitals to Small Capitals lookup 35 subtable" q.sc
Substitution2: "'aalt' Access All Alternates lookup 0 subtable" q.sc
Position2: "'cpsp' Capital Spacing lookup 0 subtable" dx=10 dy=0 dh=20 dv=0
EndChar

StartChar: R
Encoding: 82 82 171
Width: 680
GlyphClass: 2
Flags: W
LayerCount: 2
Fore
SplineSet
44.2861328125 680 m 2,0,1
 19.4951171875 680 19.4951171875 680 10.857421875 694.286132812 c 0,2,3
 4.80078125 704.301757812 4.80078125 704.301757812 19.2705078125 742.88671875 c 128,-1,4
 33.7392578125 781.471679688 33.7392578125 781.471679688 48.2861328125 785.713867188 c 0,5,6
 55.05859375 787.689453125 55.05859375 787.689453125 56.6748046875 778.040039062 c 128,-1,7
 58.291015625 768.391601562 58.291015625 768.391601562 57.173828125 755.446289062 c 128,-1,8
 56.0576171875 742.500976562 56.0576171875 742.500976562 59.65625 731.298828125 c 128,-1,9
 63.2548828125 720.09765625 63.2548828125 720.09765625 73.4287109375 719.713867188 c 0,10,11
 97.53515625 719.713867188 97.53515625 719.713867188 172.321289062 718.571289062 c 128,-1,12
 247.107421875 717.428710938 247.107421875 717.428710938 271.428710938 717.428710938 c 0,13,14
 284.801757812 717.428710938 284.801757812 717.428710938 289.779296875 710.439453125 c 128,-1,15
 294.756835938 703.450195312 294.756835938 703.450195312 295.713867188 688.857421875 c 0,16,17
 296.221679688 681.111328125 296.221679688 681.111328125 259.293945312 634.25390625 c 128,-1,18
 222.365234375 587.397460938 222.365234375 587.397460938 185.182617188 544.413085938 c 2,19,-1
 148 501.428710938 l 1,20,-1
 287.428710938 501.428710938 l 2,21,22
 302.610351562 501.428710938 302.610351562 501.428710938 303.321289062 481.786132812 c 128,-1,23
 304.032226562 462.142578125 304.032226562 462.142578125 296.286132812 449.713867188 c 0,24,25
 291.731445312 440.270507812 291.731445312 440.270507812 265.3125 388.146484375 c 128,-1,26
 238.893554688 336.0234375 238.893554688 336.0234375 228.044921875 311.446289062 c 128,-1,27
 217.196289062 286.870117188 217.196289062 286.870117188 204.741210938 245.120117188 c 128,-1,28
 192.286132812 203.370117188 192.286132812 203.370117188 192.286132812 171.428710938 c 0,29,30
 192.2265625 169.540039062 192.2265625 169.540039062 192.2265625 167.615234375 c 0,31,32
 192.2265625 140.395507812 192.2265625 140.395507812 208.317382812 110.5390625 c 128,-1,33
 224.407226562 80.681640625 224.407226562 80.681640625 247.142578125 65.7138671875 c 0,34,35
 333.4453125 23.591796875 333.4453125 23.591796875 398 56.5712890625 c 0,36,37
 461.307617188 88.9130859375 461.307617188 88.9130859375 515.713867188 243.428710938 c 0,38,39
 534.434570312 302.984375 534.434570312 302.984375 550.758789062 389.209960938 c 128,-1,40
 567.083007812 475.435546875 567.083007812 475.435546875 571.428710938 537.713867188 c 0,41,42
 571.615234375 545.953125 571.615234375 545.953125 571.615234375 554.124023438 c 0,43,44
 571.615234375 628.255859375 571.615234375 628.255859375 556.571289062 700.857421875 c 1,45,-1
 533.142578125 700.857421875 l 2,46,47
 527.78515625 700.857421875 527.78515625 700.857421875 523.083007812 708 c 128,-1,48
 518.380859375 715.142578125 518.380859375 715.142578125 520.344726562 722.286132812 c 128,-1,49
 522.309570312 729.428710938 522.309570312 729.428710938 533.142578125 729.428710938 c 2,50,-1
 654 729.428710938 l 2,51,52
 667.063476562 729.428710938 667.063476562 729.428710938 669.51171875 722.286132812 c 128,-1,53
 671.959960938 715.142578125 671.959960938 715.142578125 666.297851562 708 c 128,-1,54
 660.634765625 700.857421875 660.634765625 700.857421875 654 700.857421875 c 2,55,-1
 631.428710938 700.857421875 l 1,56,57
 644.103515625 614.076171875 644.103515625 614.076171875 644.103515625 526.384765625 c 0,58,59
 644.103515625 518.412109375 644.103515625 518.412109375 644 510.571289062 c 0,60,61
 642.624023438 435.3359375 642.624023438 435.3359375 617.006835938 334.87890625 c 128,-1,62
 591.390625 234.420898438 591.390625 234.420898438 556.571289062 167.713867188 c 0,63,64
 534.360351562 126.302734375 534.360351562 126.302734375 488.234375 83.5244140625 c 128,-1,65
 442.107421875 40.74609375 442.107421875 40.74609375 399.142578125 21.7138671875 c 0,66,67
 349.71875 0.2607421875 349.71875 0.2607421875 295.842773438 0.2607421875 c 0,68,69
 259.962890625 0.2607421875 259.962890625 0.2607421875 225.428710938 10 c 0,70,71
 203.571289062 18.0234375 203.571289062 18.0234375 187.314453125 27.0888671875 c 128,-1,72
 171.056640625 36.1552734375 171.056640625 36.1552734375 151.096679688 53.5263671875 c 128,-1,73
 131.13671875 70.8984375 131.13671875 70.8984375 120.635742188 99.3212890625 c 128,-1,74
 110.134765625 127.745117188 110.134765625 127.745117188 111.142578125 164.857421875 c 0,75,76
 112.412109375 211.587890625 112.412109375 211.587890625 138.340820312 285.587890625 c 128,-1,77
 164.26953125 359.587890625 164.26953125 359.587890625 189.563476562 410.22265625 c 2,78,-1
 214.857421875 460.857421875 l 1,79,-1
 63.4287109375 460.857421875 l 2,80,81
 53.1865234375 460.857421875 53.1865234375 460.857421875 47.96484375 472.321289062 c 128,-1,82
 42.7421875 483.786132812 42.7421875 483.786132812 48.5712890625 496.857421875 c 0,83,84
 52.25390625 504.603515625 52.25390625 504.603515625 90.75390625 550.388671875 c 128,-1,85
 129.25390625 596.174804688 129.25390625 596.174804688 165.913085938 638.087890625 c 2,86,-1
 202.571289062 680 l 1,87,-1
 44.2861328125 680 l 2,0,1
EndSplineSet
Validated: 33
Substitution2: "'c2sc' Capitals to Small Capitals lookup 35 subtable" r.sc
Substitution2: "'aalt' Access All Alternates lookup 0 subtable" r.sc
Position2: "'cpsp' Capital Spacing lookup 0 subtable" dx=10 dy=0 dh=20 dv=0
EndChar

StartChar: S
Encoding: 83 83 179
Width: 833
GlyphClass: 2
Flags: W
LayerCount: 2
Fore
SplineSet
85.7138671875 714.286132812 m 2,0,-1
 744.857421875 718.286132812 l 2,1,2
 753.234375 718.286132812 753.234375 718.286132812 758.001953125 725.352539062 c 128,-1,3
 762.770507812 732.41796875 762.770507812 732.41796875 765.114257812 739.103515625 c 128,-1,4
 767.45703125 745.790039062 767.45703125 745.790039062 778.556640625 745.833984375 c 128,-1,5
 789.655273438 745.87890625 789.655273438 745.87890625 810.286132812 734.286132812 c 0,6,7
 841.819335938 716.5234375 841.819335938 716.5234375 801.5859375 696.966796875 c 0,8,9
 760.801757812 677.142578125 760.801757812 677.142578125 700.857421875 677.142578125 c 1,10,11
 671.084960938 569.248046875 671.084960938 569.248046875 621.009765625 472.211914062 c 128,-1,12
 570.93359375 375.176757812 570.93359375 375.176757812 513.920898438 304.668945312 c 128,-1,13
 456.907226562 234.161132812 456.907226562 234.161132812 392.493164062 174.666015625 c 128,-1,14
 328.078125 115.171875 328.078125 115.171875 268.766601562 76.5986328125 c 128,-1,15
 209.454101562 38.025390625 209.454101562 38.025390625 155.700195312 11.0048828125 c 128,-1,16
 101.946289062 -16.0166015625 101.946289062 -16.0166015625 65.333984375 -27.72265625 c 128,-1,17
 28.72265625 -39.4287109375 28.72265625 -39.4287109375 10.5712890625 -39.4287109375 c 1,18,19
 26.765625 -27.59765625 26.765625 -27.59765625 78.40234375 3.9658203125 c 128,-1,20
 130.040039062 35.5302734375 130.040039062 35.5302734375 170.251953125 62.3544921875 c 128,-1,21
 210.463867188 89.1787109375 210.463867188 89.1787109375 269.9921875 146.053710938 c 128,-1,22
 329.521484375 202.928710938 329.521484375 202.928710938 376.072265625 268.323242188 c 128,-1,23
 422.623046875 333.717773438 422.623046875 333.717773438 471.391601562 439.284179688 c 128,-1,24
 520.161132812 544.849609375 520.161132812 544.849609375 553.428710938 672 c 1,25,-1
 204.571289062 664.571289062 l 1,26,27
 194.920898438 617.840820312 194.920898438 617.840820312 185.206054688 544.555664062 c 128,-1,28
 175.4921875 471.26953125 175.4921875 471.26953125 170.602539062 421.349609375 c 2,29,-1
 165.713867188 371.428710938 l 1,30,31
 181.442382812 356.555664062 181.442382812 356.555664062 188.286132812 348.571289062 c 0,32,33
 190.943359375 343.7421875 190.943359375 343.7421875 188.846679688 335.958007812 c 128,-1,34
 186.749023438 328.172851562 186.749023438 328.172851562 180.962890625 321.947265625 c 128,-1,35
 175.176757812 315.721679688 175.176757812 315.721679688 170.857421875 318.286132812 c 0,36,37
 82.0751953125 372.21875 82.0751953125 372.21875 48.5712890625 391.142578125 c 0,38,39
 42.9736328125 394.142578125 42.9736328125 394.142578125 45.71484375 405.927734375 c 128,-1,40
 48.455078125 417.713867188 48.455078125 417.713867188 54.857421875 417.713867188 c 0,41,42
 69.578125 415.272460938 69.578125 415.272460938 83.4287109375 409.713867188 c 1,43,-1
 114 662.571289062 l 1,44,45
 103.758789062 662.194335938 103.758789062 662.194335938 88.3447265625 662.46875 c 128,-1,46
 72.9296875 662.744140625 72.9296875 662.744140625 45.3701171875 669.435546875 c 128,-1,47
 17.8095703125 676.126953125 17.8095703125 676.126953125 14 689.713867188 c 128,-1,48
 10.1435546875 703.361328125 10.1435546875 703.361328125 10.02734375 711.748046875 c 128,-1,49
 9.912109375 720.135742188 9.912109375 720.135742188 13.421875 723.341796875 c 128,-1,50
 16.9326171875 726.547851562 16.9326171875 726.547851562 22.2109375 726.956054688 c 128,-1,51
 27.4892578125 727.36328125 27.4892578125 727.36328125 35.5205078125 725.32421875 c 128,-1,52
 43.552734375 723.286132812 43.552734375 723.286132812 51.306640625 720.891601562 c 128,-1,53
 59.060546875 718.497070312 59.060546875 718.497070312 68.6953125 716.391601562 c 128,-1,54
 78.330078125 714.286132812 78.330078125 714.286132812 85.7138671875 714.286132812 c 2,0,-1
EndSplineSet
Validated: 33
Substitution2: "'c2sc' Capitals to Small Capitals lookup 35 subtable" s.sc
Substitution2: "'aalt' Access All Alternates lookup 0 subtable" s.sc
Position2: "'cpsp' Capital Spacing lookup 0 subtable" dx=10 dy=0 dh=20 dv=0
EndChar

StartChar: uniA78B
Encoding: 42891 42891 182
Width: 192
Flags: W
LayerCount: 2
Fore
SplineSet
53 334 m 1,0,1
 60 412 60 412 60 503 c 0,2,3
 60 577 60 577 56 647 c 1,4,-1
 143 661 l 1,5,-1
 152 652 l 1,6,7
 145 593 145 593 131.5 507.5 c 128,-1,8
 118 422 118 422 103 348 c 1,9,-1
 65 331 l 1,10,-1
 53 334 l 1,0,1
EndSplineSet
Validated: 1
Position2: "'cpsp' Capital Spacing lookup 0 subtable" dx=10 dy=0 dh=20 dv=0
EndChar

StartChar: Scedilla
Encoding: 350 350 185
Width: 534
GlyphClass: 2
Flags: W
AnchorPoint: "Anchor-13" 343 -235 basechar 0
LayerCount: 2
Fore
SplineSet
418 213 m 4,0,-1
 379 -48 l 5,1,2
 423 -76 423 -76 446 -95.5 c 4,3,4
 469 -115 469 -115 469 -140 c 260,5,6
 469 -165 469 -165 450.5 -187 c 4,7,8
 432 -209 432 -209 402.5 -222 c 4,9,10
 373 -235 373 -235 343 -235 c 4,11,12
 316 -235 316 -235 293.5 -224.5 c 4,13,14
 271 -214 271 -214 271 -196 c 4,15,16
 271 -180 271 -180 301 -137 c 5,17,-1
 310 -137 l 5,18,19
 311 -164 311 -164 325 -178.5 c 4,20,21
 339 -193 339 -193 363 -193 c 4,22,23
 382 -193 382 -193 395 -183.5 c 4,24,25
 408 -174 408 -174 408 -159 c 4,26,27
 408 -143 408 -143 385.5 -125.5 c 4,28,29
 363 -108 363 -108 323 -85 c 5,30,-1
 373 219 l 4,31,32
 406 251 406 251 418 213 c 4,0,-1
EndSplineSet
Refer: 179 83 N 1 0 0 1 0 0 2
Substitution2: "'c2sc' Capitals to Small Capitals lookup 35 subtable" scedilla.sc
Substitution2: "'locl' Localized Forms in Latin lookup 11 subtable" uni0218
Substitution2: "'locl' Localized Forms in Latin lookup 10 subtable" uni0218
AlternateSubs2: "'aalt' Access All Alternates lookup 1 subtable" uni0218 scedilla.sc
Position2: "'cpsp' Capital Spacing lookup 0 subtable" dx=10 dy=0 dh=20 dv=0
EndChar

StartChar: uni1E9E
Encoding: 7838 7838 191
Width: 770
Flags: W
LayerCount: 2
Fore
SplineSet
416.5 -1.5 m 128,-1,1
 374 9 374 9 344 24 c 1,2,-1
 338 36 l 1,3,4
 348 121 348 121 352 198 c 1,5,-1
 411 203 l 1,6,7
 411 141 411 141 420.5 110 c 128,-1,8
 430 79 430 79 454.5 66.5 c 128,-1,9
 479 54 479 54 527 54 c 256,10,11
 575 54 575 54 604.5 87.5 c 128,-1,12
 634 121 634 121 634 174 c 0,13,14
 634 239 634 239 593.5 273 c 128,-1,15
 553 307 553 307 474 307 c 0,16,17
 436 307 436 307 389 298 c 1,18,-1
 366 335 l 1,19,-1
 544 575 l 1,20,-1
 304 575 l 2,21,22
 274 575 274 575 261.5 573 c 128,-1,23
 249 571 249 571 245.5 563.5 c 128,-1,24
 242 556 242 556 241 538 c 2,25,-1
 228 125 l 2,26,27
 228 85 228 85 236 72 c 128,-1,28
 244 59 244 59 268 59 c 0,29,30
 281 59 281 59 306 61 c 1,31,-1
 311 54 l 1,32,-1
 301 -4 l 1,33,34
 224 0 224 0 183 0 c 0,35,36
 125 0 125 0 49 -12 c 1,37,-1
 55 44 l 1,38,39
 100 52 100 52 115.5 69.5 c 128,-1,40
 131 87 131 87 131 130 c 2,41,-1
 132 533 l 2,42,43
 132 565 132 565 125 576 c 128,-1,44
 118 587 118 587 97 587 c 0,45,46
 86 587 86 587 64 585 c 1,47,-1
 60 591 l 1,48,-1
 68 642 l 1,49,50
 220 639 220 639 284 639 c 0,51,52
 418 639 418 639 663 645 c 1,53,-1
 679 619 l 1,54,-1
 505 393 l 1,55,-1
 538 392 l 2,56,57
 597 391 597 391 644 366.5 c 128,-1,58
 691 342 691 342 717.5 300.5 c 128,-1,59
 744 259 744 259 744 208 c 0,60,61
 744 144 744 144 713.5 94 c 128,-1,62
 683 44 683 44 629 16 c 128,-1,63
 575 -12 575 -12 507 -12 c 0,64,0
 459 -12 459 -12 416.5 -1.5 c 128,-1,1
EndSplineSet
Validated: 1
Substitution2: "'c2sc' Capitals to Small Capitals lookup 35 subtable" germandbls.sc
Substitution2: "'aalt' Access All Alternates lookup 0 subtable" germandbls.sc
Position2: "'cpsp' Capital Spacing lookup 0 subtable" dx=10 dy=0 dh=20 dv=0
EndChar

StartChar: T
Encoding: 84 84 193
Width: 755
GlyphClass: 2
Flags: W
LayerCount: 2
Fore
SplineSet
506.571289062 118 m 0,0,1
 506.571289062 66.3779296875 506.571289062 66.3779296875 470.239257812 30.0458984375 c 128,-1,2
 433.907226562 -6.2861328125 433.907226562 -6.2861328125 382.571289062 -6.2861328125 c 128,-1,3
 331.236328125 -6.2861328125 331.236328125 -6.2861328125 294.903320312 30.0458984375 c 128,-1,4
 258.571289062 66.37890625 258.571289062 66.37890625 258.571289062 117.713867188 c 128,-1,5
 258.571289062 169.049804688 258.571289062 169.049804688 294.903320312 205.381835938 c 128,-1,6
 331.235351562 241.713867188 331.235351562 241.713867188 382.571289062 241.713867188 c 128,-1,7
 433.7890625 241.713867188 433.7890625 241.713867188 470.12109375 205.465820312 c 128,-1,8
 506.453125 169.217773438 506.453125 169.217773438 506.571289062 118 c 0,0,1
382.571289062 202.286132812 m 0,9,10
 350.723632812 202.286132812 350.723632812 202.286132812 340.647460938 180.879882812 c 128,-1,11
 330.571289062 159.473632812 330.571289062 159.473632812 330.571289062 118 c 0,12,13
 330.571289062 76.236328125 330.571289062 76.236328125 340.678710938 54.26171875 c 128,-1,14
 350.787109375 32.2861328125 350.787109375 32.2861328125 382.571289062 32.2861328125 c 128,-1,15
 414.498046875 32.2861328125 414.498046875 32.2861328125 424.677734375 53.94921875 c 128,-1,16
 434.857421875 75.6123046875 434.857421875 75.6123046875 434.857421875 118 c 128,-1,17
 434.857421875 160.236328125 434.857421875 160.236328125 424.79296875 181.260742188 c 128,-1,18
 414.729492188 202.286132812 414.729492188 202.286132812 382.571289062 202.286132812 c 0,9,10
10.857421875 641.428710938 m 0,19,20
 26.1142578125 690.885742188 26.1142578125 690.885742188 58.2861328125 731.428710938 c 0,21,22
 67.73828125 741.328125 67.73828125 741.328125 81.4287109375 741.328125 c 128,-1,23
 95.1171875 741.328125 95.1171875 741.328125 104.571289062 731.428710938 c 0,24,25
 106.856445312 729.143554688 106.856445312 729.143554688 107.28515625 724.786132812 c 128,-1,26
 107.713867188 720.428710938 107.713867188 720.428710938 107 717.21484375 c 2,27,-1
 106.286132812 714 l 1,28,-1
 722 714 l 2,29,30
 729.9921875 714 729.9921875 714 736.286132812 697.357421875 c 128,-1,31
 742.579101562 680.71484375 742.579101562 680.71484375 742.094726562 664.071289062 c 128,-1,32
 741.611328125 647.428710938 741.611328125 647.428710938 733.142578125 647.428710938 c 2,33,-1
 430.857421875 653.428710938 l 1,34,-1
 430.857421875 224.857421875 l 1,35,36
 437.666015625 223.551757812 437.666015625 223.551757812 422.280273438 221.975585938 c 0,37,38
 358.360351562 215.426757812 358.360351562 215.426757812 331.830078125 219.057617188 c 0,39,40
 329.361328125 219.395507812 329.361328125 219.395507812 330.572265625 219.947265625 c 0,41,42
 331.455078125 220.349609375 331.455078125 220.349609375 334.286132812 220.857421875 c 2,43,-1
 338.286132812 649.428710938 l 1,44,-1
 78.857421875 651.428710938 l 1,45,46
 63.3994140625 623.708984375 63.3994140625 623.708984375 48.5712890625 621.142578125 c 0,47,48
 36.1337890625 618.990234375 36.1337890625 618.990234375 22.796875 625.01953125 c 128,-1,49
 9.4599609375 631.048828125 9.4599609375 631.048828125 10.857421875 641.428710938 c 0,19,20
EndSplineSet
Validated: 37
Substitution2: "'c2sc' Capitals to Small Capitals lookup 35 subtable" t.sc
Substitution2: "'aalt' Access All Alternates lookup 0 subtable" t.sc
Position2: "'cpsp' Capital Spacing lookup 0 subtable" dx=10 dy=0 dh=20 dv=0
EndChar

StartChar: Tbar
Encoding: 358 358 194
Width: 556
GlyphClass: 2
Flags: W
LayerCount: 2
Fore
SplineSet
539 473 m 1,0,-1
 553 457 l 1,1,-1
 548 412 l 1,2,-1
 217 410 l 1,3,-1
 208 420 l 1,4,-1
 215 469 l 1,5,-1
 539 473 l 1,0,-1
EndSplineSet
Refer: 193 84 N 1 0 0 1 0 0 2
Substitution2: "'c2sc' Capitals to Small Capitals lookup 35 subtable" tbar.sc
Substitution2: "'aalt' Access All Alternates lookup 0 subtable" tbar.sc
Position2: "'cpsp' Capital Spacing lookup 0 subtable" dx=10 dy=0 dh=20 dv=0
EndChar

StartChar: uni0162
Encoding: 354 354 196
Width: 556
GlyphClass: 2
Flags: W
LayerCount: 2
Fore
SplineSet
408 -2 m 1,0,-1
 392 -48 l 1,1,2
 397 -51 397 -51 423 -67.5 c 0,3,4
 449 -84 449 -84 465 -103 c 0,5,6
 481 -122 481 -122 481 -140 c 0,7,8
 481 -165 481 -165 462.5 -187 c 0,9,10
 444 -209 444 -209 415 -222 c 0,11,12
 386 -235 386 -235 356 -235 c 0,13,14
 329 -235 329 -235 306 -224 c 0,15,16
 283 -213 283 -213 283 -196 c 0,17,18
 283 -180 283 -180 313 -137 c 1,19,-1
 322 -137 l 1,20,21
 323 -164 323 -164 337.5 -178.5 c 0,22,23
 352 -193 352 -193 376 -193 c 0,24,25
 395 -193 395 -193 408 -183.5 c 0,26,27
 421 -174 421 -174 421 -159 c 0,28,29
 421 -143 421 -143 398.5 -125.5 c 0,30,31
 376 -108 376 -108 335 -85 c 1,32,-1
 361 -2 l 1,33,-1
 408 -2 l 1,0,-1
EndSplineSet
Refer: 193 84 N 1 0 0 1 0 0 2
Substitution2: "'c2sc' Capitals to Small Capitals lookup 35 subtable" uni0163.sc
Substitution2: "'locl' Localized Forms in Latin lookup 11 subtable" uni021A
Substitution2: "'locl' Localized Forms in Latin lookup 10 subtable" uni021A
AlternateSubs2: "'aalt' Access All Alternates lookup 1 subtable" uni021A uni0163.sc
Position2: "'cpsp' Capital Spacing lookup 0 subtable" dx=10 dy=0 dh=20 dv=0
EndChar

StartChar: U
Encoding: 85 85 200
Width: 763
GlyphClass: 2
Flags: W
LayerCount: 2
Fore
SplineSet
327.713867188 3.7138671875 m 0,0,1
 267.63671875 3.578125 267.63671875 3.578125 221.64453125 35.3125 c 128,-1,2
 175.65234375 67.0458984375 175.65234375 67.0458984375 153.688476562 113.258789062 c 128,-1,3
 131.724609375 159.47265625 131.724609375 159.47265625 131.428710938 210 c 0,4,5
 131.04296875 257.87109375 131.04296875 257.87109375 142.587890625 306.953125 c 128,-1,6
 154.133789062 356.034179688 154.133789062 356.034179688 168.26953125 389.368164062 c 128,-1,7
 182.405273438 422.702148438 182.405273438 422.702148438 194.4453125 461.203125 c 128,-1,8
 206.484375 499.704101562 206.484375 499.704101562 206.857421875 528.571289062 c 0,9,10
 207.814453125 535.921875 207.814453125 535.921875 207.814453125 543.3359375 c 0,11,12
 207.814453125 570.958984375 207.814453125 570.958984375 190.791015625 600.118164062 c 128,-1,13
 173.767578125 629.27734375 173.767578125 629.27734375 149.713867188 642.857421875 c 0,14,15
 128.302734375 654.918945312 128.302734375 654.918945312 109.861328125 650.147460938 c 128,-1,16
 91.419921875 645.375976562 91.419921875 645.375976562 82.03515625 636.03515625 c 128,-1,17
 72.650390625 626.6953125 72.650390625 626.6953125 58.548828125 614.048828125 c 128,-1,18
 44.447265625 601.40234375 44.447265625 601.40234375 31.7138671875 597.713867188 c 0,19,20
 11.1796875 591.59375 11.1796875 591.59375 9.5712890625 608.678710938 c 128,-1,21
 7.9638671875 625.763671875 7.9638671875 625.763671875 20.857421875 636.571289062 c 0,22,23
 31.53515625 646.486328125 31.53515625 646.486328125 48.345703125 663.052734375 c 128,-1,24
 65.15625 679.619140625 65.15625 679.619140625 72.2265625 685.907226562 c 128,-1,25
 79.2958984375 692.196289062 79.2958984375 692.196289062 91.0244140625 699.543945312 c 128,-1,26
 102.752929688 706.891601562 102.752929688 706.891601562 115.428710938 710.571289062 c 0,27,28
 151.864257812 721.024414062 151.864257812 721.024414062 179.344726562 707.7265625 c 128,-1,29
 206.826171875 694.427734375 206.826171875 694.427734375 221.374023438 664.4921875 c 128,-1,30
 235.921875 634.557617188 235.921875 634.557617188 242.817382812 600.841796875 c 128,-1,31
 249.713867188 567.126953125 249.713867188 567.126953125 249.713867188 531.142578125 c 0,32,33
 249.454101562 482.587890625 249.454101562 482.587890625 223.708007812 381.327148438 c 128,-1,34
 197.9609375 280.06640625 197.9609375 280.06640625 203.142578125 224.286132812 c 0,35,36
 210.411132812 146.04296875 210.411132812 146.04296875 254.70703125 93.736328125 c 128,-1,37
 299.001953125 41.4287109375 299.001953125 41.4287109375 357.428710938 41.4287109375 c 0,38,39
 408.256835938 41.4287109375 408.256835938 41.4287109375 449.495117188 60.6142578125 c 128,-1,40
 490.733398438 79.80078125 490.733398438 79.80078125 519.331054688 114.719726562 c 128,-1,41
 547.927734375 149.639648438 547.927734375 149.639648438 567.075195312 192.784179688 c 128,-1,42
 586.223632812 235.928710938 586.223632812 235.928710938 598 289.428710938 c 0,43,44
 611.823242188 368.447265625 611.823242188 368.447265625 606.94140625 408.286132812 c 128,-1,45
 602.060546875 448.124023438 602.060546875 448.124023438 595.05859375 512.857421875 c 128,-1,46
 588.056640625 577.590820312 588.056640625 577.590820312 594.286132812 634 c 0,47,48
 594.94140625 650.96484375 594.94140625 650.96484375 605.40625 669.6328125 c 128,-1,49
 615.870117188 688.301757812 615.870117188 688.301757812 630 697.713867188 c 0,50,51
 647.069335938 708.487304688 647.069335938 708.487304688 676.520507812 713.516601562 c 128,-1,52
 705.97265625 718.545898438 705.97265625 718.545898438 728.8125 714.482421875 c 128,-1,53
 751.65234375 710.418945312 751.65234375 710.418945312 750.571289062 697.713867188 c 0,54,55
 749.330078125 684.724609375 749.330078125 684.724609375 738.59765625 679.87890625 c 128,-1,56
 727.864257812 675.034179688 727.864257812 675.034179688 715.174804688 675.625 c 128,-1,57
 702.485351562 676.215820312 702.485351562 676.215820312 689.712890625 671.138671875 c 128,-1,58
 676.940429688 666.060546875 676.940429688 666.060546875 672.571289062 652.857421875 c 0,59,60
 661.05859375 617.2734375 661.05859375 617.2734375 664.43359375 544.8046875 c 128,-1,61
 667.80859375 472.3359375 667.80859375 472.3359375 671.661132812 413.958007812 c 128,-1,62
 675.513671875 355.580078125 675.513671875 355.580078125 656.857421875 288 c 0,63,64
 617.127929688 169.662109375 617.127929688 169.662109375 542.9765625 98.2744140625 c 128,-1,65
 468.825195312 26.8876953125 468.825195312 26.8876953125 368.286132812 7.4287109375 c 0,66,67
 348.185546875 3.7138671875 348.185546875 3.7138671875 327.713867188 3.7138671875 c 0,0,1
499.142578125 272.571289062 m 1,68,69
 488.744140625 245.994140625 488.744140625 245.994140625 460.951171875 225.903320312 c 128,-1,70
 433.158203125 205.811523438 433.158203125 205.811523438 404.571289062 204 c 0,71,72
 366.055664062 201.181640625 366.055664062 201.181640625 328.170898438 218.932617188 c 128,-1,73
 290.286132812 236.684570312 290.286132812 236.684570312 290.286132812 264.857421875 c 0,74,75
 290.677734375 278.166015625 290.677734375 278.166015625 304 282.036132812 c 128,-1,76
 317.323242188 285.905273438 317.323242188 285.905273438 327.142578125 280.571289062 c 0,77,78
 331.154296875 278.896484375 331.154296875 278.896484375 366.66015625 256.775390625 c 128,-1,79
 402.166015625 234.654296875 402.166015625 234.654296875 421.142578125 236.857421875 c 0,80,81
 441.7890625 239.318359375 441.7890625 239.318359375 454.373046875 259.833984375 c 128,-1,82
 466.958007812 280.350585938 466.958007812 280.350585938 465.817382812 305.404296875 c 128,-1,83
 464.676757812 330.458007812 464.676757812 330.458007812 449.713867188 345.142578125 c 0,84,85
 438.32421875 356.314453125 438.32421875 356.314453125 415.857421875 376.500976562 c 128,-1,86
 393.390625 396.686523438 393.390625 396.686523438 383.09375 407.487304688 c 128,-1,87
 372.795898438 418.288085938 372.795898438 418.288085938 359.364257812 436.112304688 c 128,-1,88
 345.931640625 453.936523438 345.931640625 453.936523438 339.971679688 473.61328125 c 128,-1,89
 334.010742188 493.291015625 334.010742188 493.291015625 332.857421875 518 c 0,90,91
 333.193359375 558.098632812 333.193359375 558.098632812 361.740234375 588.486328125 c 128,-1,92
 390.287109375 618.875 390.287109375 618.875 430.286132812 621.713867188 c 0,93,94
 438.4609375 622.201171875 438.4609375 622.201171875 446.68359375 622.201171875 c 0,95,96
 487.1953125 622.201171875 487.1953125 622.201171875 526 610.571289062 c 0,97,98
 536.528320312 605.387695312 536.528320312 605.387695312 536.528320312 593.653320312 c 0,99,100
 536.528320312 584.797851562 536.528320312 584.797851562 529.713867188 579.142578125 c 0,101,102
 522.993164062 574.360351562 522.993164062 574.360351562 483.662109375 582.711914062 c 128,-1,103
 444.330078125 591.064453125 444.330078125 591.064453125 432.571289062 583.428710938 c 0,104,105
 420.977539062 574.264648438 420.977539062 574.264648438 412.771484375 557.3203125 c 128,-1,106
 404.56640625 540.375976562 404.56640625 540.375976562 404.56640625 525.59765625 c 0,107,108
 404.56640625 514.708984375 404.56640625 514.708984375 407.713867188 504.286132812 c 0,109,110
 411.302734375 482.379882812 411.302734375 482.379882812 428.303710938 462.71875 c 128,-1,111
 445.3046875 443.05859375 445.3046875 443.05859375 467.314453125 422.423828125 c 128,-1,112
 489.32421875 401.788085938 489.32421875 401.788085938 499.142578125 383.713867188 c 0,113,114
 511.6796875 357.344726562 511.6796875 357.344726562 511.6796875 328.142578125 c 128,-1,115
 511.6796875 298.942382812 511.6796875 298.942382812 499.142578125 272.571289062 c 1,68,69
EndSplineSet
Validated: 33
Substitution2: "'c2sc' Capitals to Small Capitals lookup 35 subtable" u.sc
Substitution2: "'aalt' Access All Alternates lookup 0 subtable" u.sc
Position2: "'cpsp' Capital Spacing lookup 0 subtable" dx=10 dy=0 dh=20 dv=0
EndChar

StartChar: Uhorn
Encoding: 431 431 214
Width: 699
GlyphClass: 2
Flags: W
LayerCount: 2
Fore
SplineSet
635 685 m 1,0,1
 663 685 663 685 681 698 c 0,2,3
 699 711 699 711 699 733 c 0,4,5
 699 750 699 750 690.5 768.5 c 0,6,7
 682 787 682 787 668 800 c 1,8,-1
 670 814 l 1,9,10
 705 844 705 844 735 844 c 0,11,12
 761 844 761 844 777 822 c 0,13,14
 793 800 793 800 793 763 c 0,15,16
 793 730 793 730 774 702 c 0,17,18
 755 674 755 674 723.5 658 c 0,19,20
 692 642 692 642 658 643 c 1,21,-1
 635 685 l 1,0,1
EndSplineSet
Refer: 200 85 N 1 0 0 1 0 0 2
Substitution2: "'c2sc' Capitals to Small Capitals lookup 35 subtable" uhorn.sc
Substitution2: "'aalt' Access All Alternates lookup 0 subtable" uhorn.sc
Position2: "'cpsp' Capital Spacing lookup 0 subtable" dx=10 dy=0 dh=20 dv=0
EndChar

StartChar: Uogonek
Encoding: 370 370 224
Width: 670
Flags: W
LayerCount: 2
Fore
SplineSet
353 -215 m 128,-1,1
 322 -189 322 -189 322 -145 c 0,2,3
 322 -118 322 -118 342 -86.5 c 128,-1,4
 362 -55 362 -55 413 -1 c 1,5,6
 371 -12 371 -12 322 -12 c 0,7,8
 213 -12 213 -12 155.5 44 c 128,-1,9
 98 100 98 100 98 207 c 2,10,-1
 98 533 l 2,11,12
 98 565 98 565 91 576 c 128,-1,13
 84 587 84 587 63 587 c 0,14,15
 52 587 52 587 30 585 c 1,16,-1
 28 589 l 1,17,-1
 35 642 l 1,18,19
 117 639 117 639 162 639 c 0,20,21
 202 639 202 639 273 647 c 1,22,-1
 267 592 l 1,23,24
 233 588 233 588 220.5 576.5 c 128,-1,25
 208 565 208 565 207 537 c 2,26,-1
 199 244 l 2,27,28
 199 155 199 155 237.5 107 c 128,-1,29
 276 59 276 59 348 59 c 256,30,31
 420 59 420 59 458 98 c 128,-1,32
 496 137 496 137 496 212 c 2,33,-1
 491 533 l 2,34,35
 489 568 489 568 482.5 577.5 c 128,-1,36
 476 587 476 587 456 587 c 2,37,-1
 417 585 l 1,38,-1
 415 589 l 1,39,-1
 423 642 l 1,40,41
 501 639 501 639 537 639 c 0,42,43
 582 639 582 639 644 647 c 1,44,-1
 639 593 l 1,45,46
 610 588 610 588 597 582.5 c 128,-1,47
 584 577 584 577 579 567 c 128,-1,48
 574 557 574 557 574 538 c 2,49,-1
 574 213 l 2,50,51
 574 116 574 116 510 44 c 0,52,53
 443 -27 443 -27 420.5 -61.5 c 128,-1,54
 398 -96 398 -96 398 -126 c 0,55,56
 398 -147 398 -147 412 -160 c 128,-1,57
 426 -173 426 -173 448 -173 c 256,58,59
 470 -173 470 -173 490 -165 c 128,-1,60
 510 -157 510 -157 522 -150 c 1,61,-1
 539 -176 l 1,62,63
 482 -227 482 -227 436 -241 c 1,64,0
 384 -241 384 -241 353 -215 c 128,-1,1
EndSplineSet
Validated: 1
Substitution2: "'c2sc' Capitals to Small Capitals lookup 35 subtable" uogonek.sc
Substitution2: "'aalt' Access All Alternates lookup 0 subtable" uogonek.sc
Position2: "'cpsp' Capital Spacing lookup 0 subtable" dx=10 dy=0 dh=20 dv=0
EndChar

StartChar: V
Encoding: 86 86 228
Width: 733
GlyphClass: 2
Flags: W
LayerCount: 2
Fore
SplineSet
288.286132812 3.7138671875 m 0,0,1
 228.341796875 3.578125 228.341796875 3.578125 182.416015625 35.3095703125 c 128,-1,2
 136.491210938 67.0400390625 136.491210938 67.0400390625 114.537109375 113.26171875 c 128,-1,3
 92.58203125 159.483398438 92.58203125 159.483398438 92.2861328125 210 c 0,4,5
 91.7783203125 272.984375 91.7783203125 272.984375 110.778320312 363.840820312 c 128,-1,6
 129.778320312 454.698242188 129.778320312 454.698242188 149.032226562 514.063476562 c 2,7,-1
 168.286132812 573.428710938 l 1,8,-1
 210.857421875 575.428710938 l 1,9,10
 204.555664062 547.6328125 204.555664062 547.6328125 195.48046875 503.575195312 c 128,-1,11
 186.404296875 459.517578125 186.404296875 459.517578125 173.186523438 364.42578125 c 128,-1,12
 159.96875 269.333984375 159.96875 269.333984375 164.286132812 222.857421875 c 0,13,14
 171.553710938 144.615234375 171.553710938 144.615234375 215.849609375 92.3076171875 c 128,-1,15
 260.145507812 40 260.145507812 40 318.571289062 40 c 0,16,17
 369.396484375 40 369.396484375 40 410.591796875 59.181640625 c 128,-1,18
 451.787109375 78.36328125 451.787109375 78.36328125 480.33203125 113.295898438 c 128,-1,19
 508.876953125 148.229492188 508.876953125 148.229492188 527.975585938 191.350585938 c 128,-1,20
 547.07421875 234.47265625 547.07421875 234.47265625 558.857421875 288 c 0,21,22
 569.629882812 347.8515625 569.629882812 347.8515625 567.978515625 411.34375 c 128,-1,23
 566.328125 474.8359375 566.328125 474.8359375 558.877929688 524.274414062 c 2,24,-1
 551.428710938 573.713867188 l 1,25,-1
 623.713867188 573.713867188 l 1,26,27
 626.235351562 550.849609375 626.235351562 550.849609375 629.193359375 514.728515625 c 128,-1,28
 632.15234375 478.606445312 632.15234375 478.606445312 631.282226562 401.461914062 c 128,-1,29
 630.413085938 324.317382812 630.413085938 324.317382812 617.713867188 288 c 0,30,31
 591.216796875 209.076171875 591.216796875 209.076171875 548.762695312 150.424804688 c 128,-1,32
 506.307617188 91.7744140625 506.307617188 91.7744140625 451.046875 56.05078125 c 128,-1,33
 395.786132812 20.3271484375 395.786132812 20.3271484375 329.142578125 7.4287109375 c 0,34,35
 308.8984375 3.7138671875 308.8984375 3.7138671875 288.286132812 3.7138671875 c 0,0,1
325.142578125 564.571289062 m 0,36,37
 253.095703125 569.607421875 253.095703125 569.607421875 180.857421875 569.607421875 c 128,-1,38
 108.618164062 569.607421875 108.618164062 569.607421875 36.5712890625 564.571289062 c 0,39,40
 21.947265625 564.571289062 21.947265625 564.571289062 12.5712890625 588.286132812 c 0,41,42
 9.044921875 597.204101562 9.044921875 597.204101562 17.68359375 605.159179688 c 128,-1,43
 26.322265625 613.114257812 26.322265625 613.114257812 36.5712890625 612 c 0,44,45
 108.62890625 607.071289062 108.62890625 607.071289062 180.857421875 607.071289062 c 128,-1,46
 253.084960938 607.071289062 253.084960938 607.071289062 325.142578125 612 c 0,47,48
 334.71484375 612 334.71484375 612 339.458007812 607.018554688 c 128,-1,49
 344.200195312 602.036132812 344.200195312 602.036132812 348.857421875 588.286132812 c 0,50,51
 352.984375 576.1015625 352.984375 576.1015625 344.805664062 569.836914062 c 128,-1,52
 336.626953125 563.573242188 336.626953125 563.573242188 325.142578125 564.571289062 c 0,36,37
525.142578125 564.286132812 m 0,53,54
 501.103515625 561.516601562 501.103515625 561.516601562 479.936523438 531.188476562 c 128,-1,55
 458.76953125 500.859375 458.76953125 500.859375 439.015625 459.668945312 c 128,-1,56
 419.260742188 418.477539062 419.260742188 418.477539062 407.142578125 404.857421875 c 0,57,58
 386.706054688 387.444335938 386.706054688 387.444335938 362.286132812 376.286132812 c 0,59,60
 358.102539062 374.786132812 358.102539062 374.786132812 339.5078125 366.629882812 c 128,-1,61
 320.9140625 358.473632812 320.9140625 358.473632812 312.473632812 356.517578125 c 128,-1,62
 304.033203125 354.561523438 304.033203125 354.561523438 290.900390625 358.353515625 c 128,-1,63
 277.767578125 362.14453125 277.767578125 362.14453125 269.142578125 376.286132812 c 0,64,65
 262.358398438 388.044921875 262.358398438 388.044921875 283.428710938 401.142578125 c 0,66,67
 293.169921875 407.086914062 293.169921875 407.086914062 340.571289062 431.428710938 c 0,68,69
 355.216796875 441.395507812 355.216796875 441.395507812 369.866210938 460.23046875 c 128,-1,70
 384.516601562 479.06640625 384.516601562 479.06640625 390.571289062 495.713867188 c 0,71,72
 395.540039062 518.18359375 395.540039062 518.18359375 410.2734375 545.892578125 c 128,-1,73
 425.0078125 573.602539062 425.0078125 573.602539062 440.857421875 590.286132812 c 0,74,75
 453.373046875 602.439453125 453.373046875 602.439453125 486.365234375 607.362304688 c 128,-1,76
 519.358398438 612.286132812 519.358398438 612.286132812 538.286132812 612.286132812 c 2,77,-1
 693.713867188 612.286132812 l 2,78,79
 710.834960938 612.286132812 710.834960938 612.286132812 715.9140625 606.447265625 c 128,-1,80
 720.994140625 600.607421875 720.994140625 600.607421875 722.286132812 587.428710938 c 0,81,82
 722.540039062 574.342773438 722.540039062 574.342773438 680.03515625 569.28515625 c 128,-1,83
 637.530273438 564.227539062 637.530273438 564.227539062 582.059570312 564.333984375 c 128,-1,84
 526.58984375 564.440429688 526.58984375 564.440429688 525.142578125 564.286132812 c 0,53,54
EndSplineSet
Validated: 37
Substitution2: "Single Substitution lookup 54 subtable" V.ss01
Substitution2: "'ss01' Style Set 1 lookup 44 subtable" V.ss01
Substitution2: "'c2sc' Capitals to Small Capitals lookup 35 subtable" v.sc
AlternateSubs2: "'aalt' Access All Alternates lookup 1 subtable" v.sc V.ss01
Position2: "'cpsp' Capital Spacing lookup 0 subtable" dx=10 dy=0 dh=20 dv=0
EndChar

StartChar: W
Encoding: 87 87 229
Width: 774
GlyphClass: 2
Flags: W
LayerCount: 2
Fore
SplineSet
12.857421875 636.286132812 m 0,0,1
 17.15234375 646.1796875 17.15234375 646.1796875 27.826171875 653.182617188 c 128,-1,2
 38.5 660.184570312 38.5 660.184570312 49.2861328125 660.184570312 c 0,3,4
 63.771484375 660.184570312 63.771484375 660.184570312 74.857421875 650.857421875 c 1,5,6
 86.7587890625 631.03515625 86.7587890625 631.03515625 125.900390625 565.091796875 c 128,-1,7
 165.041992188 499.1484375 165.041992188 499.1484375 183.372070312 469.338867188 c 128,-1,8
 201.703125 439.529296875 201.703125 439.529296875 234.512695312 387.586914062 c 128,-1,9
 267.323242188 335.645507812 267.323242188 335.645507812 296.78515625 294.09765625 c 128,-1,10
 326.247070312 252.549804688 326.247070312 252.549804688 357.428710938 212.857421875 c 1,11,12
 357.428710938 240.94140625 357.428710938 240.94140625 358.5078125 292.211914062 c 128,-1,13
 359.587890625 343.481445312 359.587890625 343.481445312 359.587890625 385.693359375 c 128,-1,14
 359.587890625 427.905273438 359.587890625 427.905273438 357.428710938 466 c 0,15,16
 356.30078125 487.647460938 356.30078125 487.647460938 385.25 503 c 128,-1,17
 414.19921875 518.352539062 414.19921875 518.352539062 432.571289062 501.428710938 c 0,18,19
 478.8125 457.670898438 478.8125 457.670898438 637.713867188 301.428710938 c 0,20,21
 674 261.114257812 674 261.114257812 674 286.286132812 c 0,22,23
 677.290039062 382.501953125 677.290039062 382.501953125 689.428710938 687.713867188 c 0,24,25
 690.091796875 705.6171875 690.091796875 705.6171875 708.427734375 709.6640625 c 128,-1,26
 726.763671875 713.709960938 726.763671875 713.709960938 744.810546875 705.002929688 c 128,-1,27
 762.857421875 696.295898438 762.857421875 696.295898438 762.857421875 683.142578125 c 0,28,29
 752.571289062 289.553710938 752.571289062 289.553710938 752.571289062 197.428710938 c 0,30,31
 752.29296875 184.87890625 752.29296875 184.87890625 735.745117188 167.227539062 c 128,-1,32
 719.196289062 149.576171875 719.196289062 149.576171875 706.571289062 159.713867188 c 0,33,34
 654.625976562 201.303710938 654.625976562 201.303710938 562.603515625 290.305664062 c 128,-1,35
 470.581054688 379.307617188 470.581054688 379.307617188 460.857421875 388.286132812 c 0,36,37
 434.4921875 412.252929688 434.4921875 412.252929688 428.614257812 409.043945312 c 0,38,39
 425.142578125 407.147460938 425.142578125 407.147460938 425.142578125 399.142578125 c 0,40,41
 423.713867188 344 423.713867188 344 423.713867188 178.857421875 c 0,42,43
 423.713867188 176.470703125 423.713867188 176.470703125 423.272460938 166.611328125 c 128,-1,44
 422.831054688 156.750976562 422.831054688 156.750976562 422.950195312 151.072265625 c 128,-1,45
 423.069335938 145.39453125 423.069335938 145.39453125 424.969726562 137.9765625 c 128,-1,46
 426.870117188 130.55859375 426.870117188 130.55859375 430.857421875 126.571289062 c 0,47,48
 432.01171875 125.416992188 432.01171875 125.416992188 439.940429688 117.236328125 c 128,-1,49
 447.868164062 109.0546875 447.868164062 109.0546875 450.600585938 106.684570312 c 128,-1,50
 453.33203125 104.313476562 453.33203125 104.313476562 460.776367188 97.95703125 c 128,-1,51
 468.219726562 91.6015625 468.219726562 91.6015625 472.920898438 89.9150390625 c 128,-1,52
 477.622070312 88.2275390625 477.622070312 88.2275390625 484.671875 85.8759765625 c 128,-1,53
 491.720703125 83.5244140625 491.720703125 83.5244140625 498.48046875 84.7001953125 c 128,-1,54
 505.240234375 85.8759765625 505.240234375 85.8759765625 512.286132812 89.4287109375 c 0,55,56
 519.060546875 92.6259765625 519.060546875 92.6259765625 524.923828125 102.09375 c 128,-1,57
 530.786132812 111.5625 530.786132812 111.5625 534.049804688 120.669921875 c 128,-1,58
 537.313476562 129.77734375 537.313476562 129.77734375 542.2578125 137.627929688 c 128,-1,59
 547.202148438 145.477539062 547.202148438 145.477539062 552.139648438 145.4375 c 128,-1,60
 557.076171875 145.3984375 557.076171875 145.3984375 566.286132812 136.571289062 c 0,61,62
 614.430664062 83.873046875 614.430664062 83.873046875 603.142578125 42 c 0,63,64
 597.102539062 19.5830078125 597.102539062 19.5830078125 571.032226562 9.0283203125 c 128,-1,65
 544.9609375 -1.5263671875 544.9609375 -1.5263671875 514.967773438 0.49609375 c 128,-1,66
 484.974609375 2.517578125 484.974609375 2.517578125 462.857421875 13.4287109375 c 0,67,68
 448.887695312 20.2734375 448.887695312 20.2734375 435.73046875 28.2666015625 c 128,-1,69
 422.572265625 36.259765625 422.572265625 36.259765625 409.208007812 47.2216796875 c 128,-1,70
 395.84375 58.1845703125 395.84375 58.1845703125 386.034179688 66.1494140625 c 128,-1,71
 376.223632812 74.1142578125 376.223632812 74.1142578125 362.569335938 88.98046875 c 128,-1,72
 348.9140625 103.845703125 348.9140625 103.845703125 341.981445312 111.030273438 c 128,-1,73
 335.047851562 118.215820312 335.047851562 118.215820312 320.6328125 136.231445312 c 128,-1,74
 306.217773438 154.248046875 306.217773438 154.248046875 301.69140625 159.900390625 c 128,-1,75
 297.165039062 165.551757812 297.165039062 165.551757812 281.518554688 185.966796875 c 128,-1,76
 265.873046875 206.380859375 265.873046875 206.380859375 262.857421875 210.286132812 c 0,77,78
 157.142578125 352.802734375 157.142578125 352.802734375 67.142578125 505.713867188 c 0,79,80
 65.4609375 508.51171875 65.4609375 508.51171875 62.076171875 514.126953125 c 0,81,82
 42.6318359375 546.380859375 42.6318359375 546.380859375 33.16796875 563.426757812 c 128,-1,83
 23.7041015625 580.47265625 23.7041015625 580.47265625 16.0771484375 602.586914062 c 128,-1,84
 8.4501953125 624.702148438 8.4501953125 624.702148438 12.857421875 636.286132812 c 0,0,1
150.286132812 142.857421875 m 0,85,86
 150.029296875 145.416992188 150.029296875 145.416992188 150.029296875 148.01953125 c 0,87,88
 150.029296875 161.3515625 150.029296875 161.3515625 158.475585938 174.991210938 c 128,-1,89
 166.922851562 188.630859375 166.922851562 188.630859375 178.857421875 194.571289062 c 0,90,91
 202.388671875 207.862304688 202.388671875 207.862304688 227.670898438 181.139648438 c 128,-1,92
 252.954101562 154.41796875 252.954101562 154.41796875 250 116.857421875 c 0,93,94
 247.573242188 86.4296875 247.573242188 86.4296875 205.9765625 98.939453125 c 0,95,96
 168.883789062 110.094726562 168.883789062 110.094726562 153.891601562 134.482421875 c 0,97,98
 151.22265625 138.823242188 151.22265625 138.823242188 150.286132812 142.857421875 c 0,85,86
373.428710938 685.713867188 m 0,99,100
 369.975585938 696.45703125 369.975585938 696.45703125 380.3671875 704.41015625 c 128,-1,101
 390.7578125 712.36328125 390.7578125 712.36328125 402.571289062 714.286132812 c 0,102,103
 427.219726562 718.96875 427.219726562 718.96875 457.856445312 700.649414062 c 0,104,105
 494.215820312 678.909179688 494.215820312 678.909179688 466 657.142578125 c 0,106,107
 450.489257812 647.655273438 450.489257812 647.655273438 432.306640625 647.655273438 c 0,108,109
 415.025390625 647.655273438 415.025390625 647.655273438 397.774414062 658.806640625 c 128,-1,110
 380.5234375 669.95703125 380.5234375 669.95703125 373.428710938 685.713867188 c 0,99,100
EndSplineSet
Validated: 33
Substitution2: "'c2sc' Capitals to Small Capitals lookup 35 subtable" w.sc
Substitution2: "'aalt' Access All Alternates lookup 0 subtable" w.sc
Position2: "'cpsp' Capital Spacing lookup 0 subtable" dx=10 dy=0 dh=20 dv=0
EndChar

